<?xml version="1.0" encoding="UTF-8" standalone="no"?>
<!DOCTYPE svg PUBLIC "-//W3C//DTD SVG 1.1//EN"
 "http://www.w3.org/Graphics/SVG/1.1/DTD/svg11.dtd">
<!-- Generated by graphviz version 2.44.0 (0)
 -->
<!-- Title: Tree Pages: 1 -->
<svg width="767pt" height="1119pt"
 viewBox="0.00 0.00 920.00 1342.50" xmlns="http://www.w3.org/2000/svg" xmlns:xlink="http://www.w3.org/1999/xlink">
<g id="graph0" class="graph" transform="scale(0.83 0.83) rotate(0) translate(4 1338.5)">
<title>Tree</title>
<!-- 0 -->
<g id="node1" class="node">
<title>0</title>
<path fill="#ffc155" stroke="black" stroke-width="3" d="M73,-440C73,-440 12,-440 12,-440 6,-440 0,-434 0,-428 0,-428 0,-399 0,-399 0,-393 6,-387 12,-387 12,-387 73,-387 73,-387 79,-387 85,-393 85,-399 85,-399 85,-428 85,-428 85,-434 79,-440 73,-440"/>
<text text-anchor="middle" x="42.5" y="-424.8" font-family="helvetica" font-size="14.00">1</text>
<text text-anchor="middle" x="42.5" y="-409.8" font-family="helvetica" font-size="14.00">Prob: 1.0</text>
<text text-anchor="middle" x="42.5" y="-394.8" font-family="helvetica" font-size="14.00">Frac: 0.013</text>
</g>
<!-- 1 -->
<g id="node2" class="node">
<title>1</title>
<g id="a_node2"><a xlink:href=".//ptsd26.svg" xlink:title="ptsd26">
<path fill="#e2c871" stroke="black" stroke-width="3" d="M154,-560.5C154,-560.5 121,-560.5 121,-560.5 115,-560.5 109,-554.5 109,-548.5 109,-548.5 109,-536.5 109,-536.5 109,-530.5 115,-524.5 121,-524.5 121,-524.5 154,-524.5 154,-524.5 160,-524.5 166,-530.5 166,-536.5 166,-536.5 166,-548.5 166,-548.5 166,-554.5 160,-560.5 154,-560.5"/>
<text text-anchor="middle" x="137.5" y="-538.8" font-family="helvetica" font-size="14.00">ptsd26</text>
</a>
</g>
</g>
<!-- 1&#45;&#45;0 -->
<g id="edge1" class="edge">
<title>1&#45;&#45;0</title>
<path fill="none" stroke="black" stroke-width="3" d="M124.69,-524.37C108.48,-502.71 80.43,-465.2 61.67,-440.12"/>
<text text-anchor="middle" x="105.5" y="-474.3" font-family="helvetica" font-size="14.00"> 2</text>
</g>
<!-- 2 -->
<g id="node3" class="node">
<title>2</title>
<path fill="#aad6aa" stroke="black" stroke-width="3" d="M176,-440C176,-440 115,-440 115,-440 109,-440 103,-434 103,-428 103,-428 103,-399 103,-399 103,-393 109,-387 115,-387 115,-387 176,-387 176,-387 182,-387 188,-393 188,-399 188,-399 188,-428 188,-428 188,-434 182,-440 176,-440"/>
<text text-anchor="middle" x="145.5" y="-424.8" font-family="helvetica" font-size="14.00">1</text>
<text text-anchor="middle" x="145.5" y="-409.8" font-family="helvetica" font-size="14.00">Prob: 0.5</text>
<text text-anchor="middle" x="145.5" y="-394.8" font-family="helvetica" font-size="14.00">Frac: 0.007</text>
</g>
<!-- 1&#45;&#45;2 -->
<g id="edge2" class="edge">
<title>1&#45;&#45;2</title>
<path fill="none" stroke="black" stroke-width="3" d="M138.58,-524.37C139.94,-502.71 142.31,-465.2 143.89,-440.12"/>
<text text-anchor="middle" x="148.5" y="-481.8" font-family="helvetica" font-size="14.00"> 1</text>
<text text-anchor="middle" x="148.5" y="-466.8" font-family="helvetica" font-size="14.00"> 3</text>
</g>
<!-- 3 -->
<g id="node4" class="node">
<title>3</title>
<g id="a_node4"><a xlink:href=".//ptsd99.svg" xlink:title="ptsd99">
<path fill="#f1c462" stroke="black" stroke-width="3" d="M243,-689.5C243,-689.5 210,-689.5 210,-689.5 204,-689.5 198,-683.5 198,-677.5 198,-677.5 198,-665.5 198,-665.5 198,-659.5 204,-653.5 210,-653.5 210,-653.5 243,-653.5 243,-653.5 249,-653.5 255,-659.5 255,-665.5 255,-665.5 255,-677.5 255,-677.5 255,-683.5 249,-689.5 243,-689.5"/>
<text text-anchor="middle" x="226.5" y="-667.8" font-family="helvetica" font-size="14.00">ptsd99</text>
</a>
</g>
</g>
<!-- 3&#45;&#45;1 -->
<g id="edge3" class="edge">
<title>3&#45;&#45;1</title>
<path fill="none" stroke="black" stroke-width="3" d="M214.5,-653.37C197.51,-629.13 166.63,-585.07 149.6,-560.76"/>
<text text-anchor="middle" x="204.5" y="-610.8" font-family="helvetica" font-size="14.00"> 2</text>
<text text-anchor="middle" x="204.5" y="-595.8" font-family="helvetica" font-size="14.00"> 3</text>
</g>
<!-- 4 -->
<g id="node5" class="node">
<title>4</title>
<path fill="#ffc155" stroke="black" stroke-width="3" d="M257,-569C257,-569 196,-569 196,-569 190,-569 184,-563 184,-557 184,-557 184,-528 184,-528 184,-522 190,-516 196,-516 196,-516 257,-516 257,-516 263,-516 269,-522 269,-528 269,-528 269,-557 269,-557 269,-563 263,-569 257,-569"/>
<text text-anchor="middle" x="226.5" y="-553.8" font-family="helvetica" font-size="14.00">1</text>
<text text-anchor="middle" x="226.5" y="-538.8" font-family="helvetica" font-size="14.00">Prob: 1.0</text>
<text text-anchor="middle" x="226.5" y="-523.8" font-family="helvetica" font-size="14.00">Frac: 0.023</text>
</g>
<!-- 3&#45;&#45;4 -->
<g id="edge4" class="edge">
<title>3&#45;&#45;4</title>
<path fill="none" stroke="black" stroke-width="3" d="M226.5,-653.37C226.5,-631.71 226.5,-594.2 226.5,-569.12"/>
<text text-anchor="middle" x="232.5" y="-603.3" font-family="helvetica" font-size="14.00"> 4</text>
</g>
<!-- 5 -->
<g id="node6" class="node">
<title>5</title>
<g id="a_node6"><a xlink:href=".//ptsd133.svg" xlink:title="ptsd133">
<path fill="#ebc75c" stroke="black" stroke-width="3" d="M340,-818.5C340,-818.5 299,-818.5 299,-818.5 293,-818.5 287,-812.5 287,-806.5 287,-806.5 287,-794.5 287,-794.5 287,-788.5 293,-782.5 299,-782.5 299,-782.5 340,-782.5 340,-782.5 346,-782.5 352,-788.5 352,-794.5 352,-794.5 352,-806.5 352,-806.5 352,-812.5 346,-818.5 340,-818.5"/>
<text text-anchor="middle" x="319.5" y="-796.8" font-family="helvetica" font-size="14.00">ptsd133</text>
</a>
</g>
</g>
<!-- 5&#45;&#45;3 -->
<g id="edge5" class="edge">
<title>5&#45;&#45;3</title>
<path fill="none" stroke="black" stroke-width="3" d="M306.96,-782.37C289.21,-758.13 256.94,-714.07 239.14,-689.76"/>
<text text-anchor="middle" x="295.5" y="-747.3" font-family="helvetica" font-size="14.00"> 1</text>
<text text-anchor="middle" x="295.5" y="-732.3" font-family="helvetica" font-size="14.00"> 3</text>
<text text-anchor="middle" x="295.5" y="-717.3" font-family="helvetica" font-size="14.00"> 4</text>
</g>
<!-- 9 -->
<g id="node10" class="node">
<title>9</title>
<g id="a_node10"><a xlink:href=".//ptsd134.svg" xlink:title="ptsd134">
<path fill="#e3cc55" stroke="black" stroke-width="3" d="M340,-689.5C340,-689.5 299,-689.5 299,-689.5 293,-689.5 287,-683.5 287,-677.5 287,-677.5 287,-665.5 287,-665.5 287,-659.5 293,-653.5 299,-653.5 299,-653.5 340,-653.5 340,-653.5 346,-653.5 352,-659.5 352,-665.5 352,-665.5 352,-677.5 352,-677.5 352,-683.5 346,-689.5 340,-689.5"/>
<text text-anchor="middle" x="319.5" y="-667.8" font-family="helvetica" font-size="14.00">ptsd134</text>
</a>
</g>
</g>
<!-- 5&#45;&#45;9 -->
<g id="edge6" class="edge">
<title>5&#45;&#45;9</title>
<path fill="none" stroke="black" stroke-width="3" d="M319.5,-782.37C319.5,-758.13 319.5,-714.07 319.5,-689.76"/>
<text text-anchor="middle" x="325.5" y="-739.8" font-family="helvetica" font-size="14.00"> 2</text>
<text text-anchor="middle" x="325.5" y="-724.8" font-family="helvetica" font-size="14.00"> 5</text>
</g>
<!-- 6 -->
<g id="node7" class="node">
<title>6</title>
<path fill="#ffc155" stroke="black" stroke-width="3" d="M307,-440C307,-440 246,-440 246,-440 240,-440 234,-434 234,-428 234,-428 234,-399 234,-399 234,-393 240,-387 246,-387 246,-387 307,-387 307,-387 313,-387 319,-393 319,-399 319,-399 319,-428 319,-428 319,-434 313,-440 307,-440"/>
<text text-anchor="middle" x="276.5" y="-424.8" font-family="helvetica" font-size="14.00">1</text>
<text text-anchor="middle" x="276.5" y="-409.8" font-family="helvetica" font-size="14.00">Prob: 1.0</text>
<text text-anchor="middle" x="276.5" y="-394.8" font-family="helvetica" font-size="14.00">Frac: 0.013</text>
</g>
<!-- 7 -->
<g id="node8" class="node">
<title>7</title>
<g id="a_node8"><a xlink:href=".//ptsd160.svg" xlink:title="ptsd160">
<path fill="#e9c955" stroke="black" stroke-width="3" d="M340,-560.5C340,-560.5 299,-560.5 299,-560.5 293,-560.5 287,-554.5 287,-548.5 287,-548.5 287,-536.5 287,-536.5 287,-530.5 293,-524.5 299,-524.5 299,-524.5 340,-524.5 340,-524.5 346,-524.5 352,-530.5 352,-536.5 352,-536.5 352,-548.5 352,-548.5 352,-554.5 346,-560.5 340,-560.5"/>
<text text-anchor="middle" x="319.5" y="-538.8" font-family="helvetica" font-size="14.00">ptsd160</text>
</a>
</g>
</g>
<!-- 7&#45;&#45;6 -->
<g id="edge7" class="edge">
<title>7&#45;&#45;6</title>
<path fill="none" stroke="black" stroke-width="3" d="M313.7,-524.37C306.37,-502.71 293.67,-465.2 285.18,-440.12"/>
<text text-anchor="middle" x="308.5" y="-474.3" font-family="helvetica" font-size="14.00"> 1</text>
</g>
<!-- 8 -->
<g id="node9" class="node">
<title>8</title>
<path fill="#cdd555" stroke="black" stroke-width="3" d="M411.5,-440C411.5,-440 349.5,-440 349.5,-440 343.5,-440 337.5,-434 337.5,-428 337.5,-428 337.5,-399 337.5,-399 337.5,-393 343.5,-387 349.5,-387 349.5,-387 411.5,-387 411.5,-387 417.5,-387 423.5,-393 423.5,-399 423.5,-399 423.5,-428 423.5,-428 423.5,-434 417.5,-440 411.5,-440"/>
<text text-anchor="middle" x="380.5" y="-424.8" font-family="helvetica" font-size="14.00">1</text>
<text text-anchor="middle" x="380.5" y="-409.8" font-family="helvetica" font-size="14.00">Prob: 0.667</text>
<text text-anchor="middle" x="380.5" y="-394.8" font-family="helvetica" font-size="14.00">Frac: 0.01</text>
</g>
<!-- 7&#45;&#45;8 -->
<g id="edge8" class="edge">
<title>7&#45;&#45;8</title>
<path fill="none" stroke="black" stroke-width="3" d="M327.73,-524.37C338.13,-502.71 356.15,-465.2 368.19,-440.12"/>
<text text-anchor="middle" x="361.5" y="-481.8" font-family="helvetica" font-size="14.00"> 2</text>
<text text-anchor="middle" x="361.5" y="-466.8" font-family="helvetica" font-size="14.00"> 3</text>
</g>
<!-- 9&#45;&#45;7 -->
<g id="edge9" class="edge">
<title>9&#45;&#45;7</title>
<path fill="none" stroke="black" stroke-width="3" d="M319.5,-653.37C319.5,-629.13 319.5,-585.07 319.5,-560.76"/>
<text text-anchor="middle" x="325.5" y="-610.8" font-family="helvetica" font-size="14.00"> 1</text>
<text text-anchor="middle" x="325.5" y="-595.8" font-family="helvetica" font-size="14.00"> 2</text>
</g>
<!-- 10 -->
<g id="node11" class="node">
<title>10</title>
<path fill="#d9d055" stroke="black" stroke-width="3" d="M443,-569C443,-569 382,-569 382,-569 376,-569 370,-563 370,-557 370,-557 370,-528 370,-528 370,-522 376,-516 382,-516 382,-516 443,-516 443,-516 449,-516 455,-522 455,-528 455,-528 455,-557 455,-557 455,-563 449,-569 443,-569"/>
<text text-anchor="middle" x="412.5" y="-553.8" font-family="helvetica" font-size="14.00">1</text>
<text text-anchor="middle" x="412.5" y="-538.8" font-family="helvetica" font-size="14.00">Prob: 0.75</text>
<text text-anchor="middle" x="412.5" y="-523.8" font-family="helvetica" font-size="14.00">Frac: 0.013</text>
</g>
<!-- 9&#45;&#45;10 -->
<g id="edge10" class="edge">
<title>9&#45;&#45;10</title>
<path fill="none" stroke="black" stroke-width="3" d="M332.04,-653.37C347.91,-631.71 375.37,-594.2 393.74,-569.12"/>
<text text-anchor="middle" x="388.5" y="-610.8" font-family="helvetica" font-size="14.00"> 3</text>
<text text-anchor="middle" x="388.5" y="-595.8" font-family="helvetica" font-size="14.00"> 5</text>
</g>
<!-- 11 -->
<g id="node12" class="node">
<title>11</title>
<g id="a_node12"><a xlink:href=".//ptsd129.svg" xlink:title="ptsd129">
<path fill="#fbc255" stroke="black" stroke-width="3" d="M433,-947.5C433,-947.5 392,-947.5 392,-947.5 386,-947.5 380,-941.5 380,-935.5 380,-935.5 380,-923.5 380,-923.5 380,-917.5 386,-911.5 392,-911.5 392,-911.5 433,-911.5 433,-911.5 439,-911.5 445,-917.5 445,-923.5 445,-923.5 445,-935.5 445,-935.5 445,-941.5 439,-947.5 433,-947.5"/>
<text text-anchor="middle" x="412.5" y="-925.8" font-family="helvetica" font-size="14.00">ptsd129</text>
</a>
</g>
</g>
<!-- 11&#45;&#45;5 -->
<g id="edge11" class="edge">
<title>11&#45;&#45;5</title>
<path fill="none" stroke="black" stroke-width="3" d="M399.96,-911.37C382.21,-887.13 349.94,-843.07 332.14,-818.76"/>
<text text-anchor="middle" x="388.5" y="-861.3" font-family="helvetica" font-size="14.00"> 2</text>
</g>
<!-- 13 -->
<g id="node14" class="node">
<title>13</title>
<g id="a_node14"><a xlink:href=".//ptsd206.svg" xlink:title="ptsd206">
<path fill="#fec155" stroke="black" stroke-width="3" d="M433,-818.5C433,-818.5 392,-818.5 392,-818.5 386,-818.5 380,-812.5 380,-806.5 380,-806.5 380,-794.5 380,-794.5 380,-788.5 386,-782.5 392,-782.5 392,-782.5 433,-782.5 433,-782.5 439,-782.5 445,-788.5 445,-794.5 445,-794.5 445,-806.5 445,-806.5 445,-812.5 439,-818.5 433,-818.5"/>
<text text-anchor="middle" x="412.5" y="-796.8" font-family="helvetica" font-size="14.00">ptsd206</text>
</a>
</g>
</g>
<!-- 11&#45;&#45;13 -->
<g id="edge12" class="edge">
<title>11&#45;&#45;13</title>
<path fill="none" stroke="black" stroke-width="3" d="M412.5,-911.37C412.5,-887.13 412.5,-843.07 412.5,-818.76"/>
<text text-anchor="middle" x="418.5" y="-876.3" font-family="helvetica" font-size="14.00"> 1</text>
<text text-anchor="middle" x="418.5" y="-861.3" font-family="helvetica" font-size="14.00"> 3</text>
<text text-anchor="middle" x="418.5" y="-846.3" font-family="helvetica" font-size="14.00"> 4</text>
</g>
<!-- 12 -->
<g id="node13" class="node">
<title>12</title>
<path fill="#ffc155" stroke="black" stroke-width="3" d="M443,-698C443,-698 382,-698 382,-698 376,-698 370,-692 370,-686 370,-686 370,-657 370,-657 370,-651 376,-645 382,-645 382,-645 443,-645 443,-645 449,-645 455,-651 455,-657 455,-657 455,-686 455,-686 455,-692 449,-698 443,-698"/>
<text text-anchor="middle" x="412.5" y="-682.8" font-family="helvetica" font-size="14.00">1</text>
<text text-anchor="middle" x="412.5" y="-667.8" font-family="helvetica" font-size="14.00">Prob: 1.0</text>
<text text-anchor="middle" x="412.5" y="-652.8" font-family="helvetica" font-size="14.00">Frac: 0.355</text>
</g>
<!-- 13&#45;&#45;12 -->
<g id="edge13" class="edge">
<title>13&#45;&#45;12</title>
<path fill="none" stroke="black" stroke-width="3" d="M412.5,-782.37C412.5,-760.71 412.5,-723.2 412.5,-698.12"/>
<text text-anchor="middle" x="418.5" y="-747.3" font-family="helvetica" font-size="14.00"> 1</text>
<text text-anchor="middle" x="418.5" y="-732.3" font-family="helvetica" font-size="14.00"> 3</text>
<text text-anchor="middle" x="418.5" y="-717.3" font-family="helvetica" font-size="14.00"> 4</text>
</g>
<!-- 23 -->
<g id="node24" class="node">
<title>23</title>
<g id="a_node24"><a xlink:href=".//ptsd30.svg" xlink:title="ptsd30">
<path fill="#fcc255" stroke="black" stroke-width="3" d="M518,-689.5C518,-689.5 485,-689.5 485,-689.5 479,-689.5 473,-683.5 473,-677.5 473,-677.5 473,-665.5 473,-665.5 473,-659.5 479,-653.5 485,-653.5 485,-653.5 518,-653.5 518,-653.5 524,-653.5 530,-659.5 530,-665.5 530,-665.5 530,-677.5 530,-677.5 530,-683.5 524,-689.5 518,-689.5"/>
<text text-anchor="middle" x="501.5" y="-667.8" font-family="helvetica" font-size="14.00">ptsd30</text>
</a>
</g>
</g>
<!-- 13&#45;&#45;23 -->
<g id="edge14" class="edge">
<title>13&#45;&#45;23</title>
<path fill="none" stroke="black" stroke-width="3" d="M424.5,-782.37C441.49,-758.13 472.37,-714.07 489.4,-689.76"/>
<text text-anchor="middle" x="479.5" y="-739.8" font-family="helvetica" font-size="14.00"> 2</text>
<text text-anchor="middle" x="479.5" y="-724.8" font-family="helvetica" font-size="14.00"> 5</text>
</g>
<!-- 14 -->
<g id="node15" class="node">
<title>14</title>
<path fill="#ffc155" stroke="black" stroke-width="3" d="M521,-440C521,-440 468,-440 468,-440 462,-440 456,-434 456,-428 456,-428 456,-399 456,-399 456,-393 462,-387 468,-387 468,-387 521,-387 521,-387 527,-387 533,-393 533,-399 533,-399 533,-428 533,-428 533,-434 527,-440 521,-440"/>
<text text-anchor="middle" x="494.5" y="-424.8" font-family="helvetica" font-size="14.00">1</text>
<text text-anchor="middle" x="494.5" y="-409.8" font-family="helvetica" font-size="14.00">Prob: 1.0</text>
<text text-anchor="middle" x="494.5" y="-394.8" font-family="helvetica" font-size="14.00">Frac: 0.03</text>
</g>
<!-- 15 -->
<g id="node16" class="node">
<title>15</title>
<g id="a_node16"><a xlink:href=".//ptsd7.svg" xlink:title="ptsd7">
<path fill="#f8c355" stroke="black" stroke-width="3" d="M516.5,-560.5C516.5,-560.5 486.5,-560.5 486.5,-560.5 480.5,-560.5 474.5,-554.5 474.5,-548.5 474.5,-548.5 474.5,-536.5 474.5,-536.5 474.5,-530.5 480.5,-524.5 486.5,-524.5 486.5,-524.5 516.5,-524.5 516.5,-524.5 522.5,-524.5 528.5,-530.5 528.5,-536.5 528.5,-536.5 528.5,-548.5 528.5,-548.5 528.5,-554.5 522.5,-560.5 516.5,-560.5"/>
<text text-anchor="middle" x="501.5" y="-538.8" font-family="helvetica" font-size="14.00">ptsd7</text>
</a>
</g>
</g>
<!-- 15&#45;&#45;14 -->
<g id="edge15" class="edge">
<title>15&#45;&#45;14</title>
<path fill="none" stroke="black" stroke-width="3" d="M500.56,-524.37C499.36,-502.71 497.29,-465.2 495.91,-440.12"/>
<text text-anchor="middle" x="505.5" y="-481.8" font-family="helvetica" font-size="14.00"> 1</text>
<text text-anchor="middle" x="505.5" y="-466.8" font-family="helvetica" font-size="14.00"> 3</text>
</g>
<!-- 21 -->
<g id="node22" class="node">
<title>21</title>
<g id="a_node22"><a xlink:href=".//ptsd165.svg" xlink:title="ptsd165">
<path fill="#f3c555" stroke="black" stroke-width="3" d="M604,-431.5C604,-431.5 563,-431.5 563,-431.5 557,-431.5 551,-425.5 551,-419.5 551,-419.5 551,-407.5 551,-407.5 551,-401.5 557,-395.5 563,-395.5 563,-395.5 604,-395.5 604,-395.5 610,-395.5 616,-401.5 616,-407.5 616,-407.5 616,-419.5 616,-419.5 616,-425.5 610,-431.5 604,-431.5"/>
<text text-anchor="middle" x="583.5" y="-409.8" font-family="helvetica" font-size="14.00">ptsd165</text>
</a>
</g>
</g>
<!-- 15&#45;&#45;21 -->
<g id="edge16" class="edge">
<title>15&#45;&#45;21</title>
<path fill="none" stroke="black" stroke-width="3" d="M512.56,-524.37C528.21,-500.13 556.66,-456.07 572.35,-431.76"/>
<text text-anchor="middle" x="556.5" y="-481.8" font-family="helvetica" font-size="14.00"> 2</text>
<text text-anchor="middle" x="556.5" y="-466.8" font-family="helvetica" font-size="14.00"> 4</text>
</g>
<!-- 16 -->
<g id="node17" class="node">
<title>16</title>
<path fill="#ffc155" stroke="black" stroke-width="3" d="M459,-53C459,-53 398,-53 398,-53 392,-53 386,-47 386,-41 386,-41 386,-12 386,-12 386,-6 392,0 398,0 398,0 459,0 459,0 465,0 471,-6 471,-12 471,-12 471,-41 471,-41 471,-47 465,-53 459,-53"/>
<text text-anchor="middle" x="428.5" y="-37.8" font-family="helvetica" font-size="14.00">1</text>
<text text-anchor="middle" x="428.5" y="-22.8" font-family="helvetica" font-size="14.00">Prob: 1.0</text>
<text text-anchor="middle" x="428.5" y="-7.8" font-family="helvetica" font-size="14.00">Frac: 0.013</text>
</g>
<!-- 17 -->
<g id="node18" class="node">
<title>17</title>
<g id="a_node18"><a xlink:href=".//ptsd124.svg" xlink:title="ptsd124">
<path fill="#e6cb55" stroke="black" stroke-width="3" d="M500,-173.5C500,-173.5 459,-173.5 459,-173.5 453,-173.5 447,-167.5 447,-161.5 447,-161.5 447,-149.5 447,-149.5 447,-143.5 453,-137.5 459,-137.5 459,-137.5 500,-137.5 500,-137.5 506,-137.5 512,-143.5 512,-149.5 512,-149.5 512,-161.5 512,-161.5 512,-167.5 506,-173.5 500,-173.5"/>
<text text-anchor="middle" x="479.5" y="-151.8" font-family="helvetica" font-size="14.00">ptsd124</text>
</a>
</g>
</g>
<!-- 17&#45;&#45;16 -->
<g id="edge17" class="edge">
<title>17&#45;&#45;16</title>
<path fill="none" stroke="black" stroke-width="3" d="M472.62,-137.37C463.92,-115.71 448.86,-78.2 438.79,-53.12"/>
<text text-anchor="middle" x="465.5" y="-87.3" font-family="helvetica" font-size="14.00"> 2</text>
</g>
<!-- 18 -->
<g id="node19" class="node">
<title>18</title>
<path fill="#b4e055" stroke="black" stroke-width="3" d="M562,-53C562,-53 501,-53 501,-53 495,-53 489,-47 489,-41 489,-41 489,-12 489,-12 489,-6 495,0 501,0 501,0 562,0 562,0 568,0 574,-6 574,-12 574,-12 574,-41 574,-41 574,-47 568,-53 562,-53"/>
<text text-anchor="middle" x="531.5" y="-37.8" font-family="helvetica" font-size="14.00">1</text>
<text text-anchor="middle" x="531.5" y="-22.8" font-family="helvetica" font-size="14.00">Prob: 0.5</text>
<text text-anchor="middle" x="531.5" y="-7.8" font-family="helvetica" font-size="14.00">Frac: 0.007</text>
</g>
<!-- 17&#45;&#45;18 -->
<g id="edge18" class="edge">
<title>17&#45;&#45;18</title>
<path fill="none" stroke="black" stroke-width="3" d="M486.51,-137.37C495.38,-115.71 510.74,-78.2 521.01,-53.12"/>
<text text-anchor="middle" x="516.5" y="-94.8" font-family="helvetica" font-size="14.00"> 1</text>
<text text-anchor="middle" x="516.5" y="-79.8" font-family="helvetica" font-size="14.00"> 3</text>
</g>
<!-- 19 -->
<g id="node20" class="node">
<title>19</title>
<g id="a_node20"><a xlink:href=".//ptsd86.svg" xlink:title="ptsd86">
<path fill="#ecc855" stroke="black" stroke-width="3" d="M542,-302.5C542,-302.5 509,-302.5 509,-302.5 503,-302.5 497,-296.5 497,-290.5 497,-290.5 497,-278.5 497,-278.5 497,-272.5 503,-266.5 509,-266.5 509,-266.5 542,-266.5 542,-266.5 548,-266.5 554,-272.5 554,-278.5 554,-278.5 554,-290.5 554,-290.5 554,-296.5 548,-302.5 542,-302.5"/>
<text text-anchor="middle" x="525.5" y="-280.8" font-family="helvetica" font-size="14.00">ptsd86</text>
</a>
</g>
</g>
<!-- 19&#45;&#45;17 -->
<g id="edge19" class="edge">
<title>19&#45;&#45;17</title>
<path fill="none" stroke="black" stroke-width="3" d="M519.3,-266.37C510.52,-242.13 494.56,-198.07 485.75,-173.76"/>
<text text-anchor="middle" x="513.5" y="-223.8" font-family="helvetica" font-size="14.00"> 1</text>
<text text-anchor="middle" x="513.5" y="-208.8" font-family="helvetica" font-size="14.00"> 2</text>
</g>
<!-- 20 -->
<g id="node21" class="node">
<title>20</title>
<path fill="#ffc155" stroke="black" stroke-width="3" d="M603,-182C603,-182 542,-182 542,-182 536,-182 530,-176 530,-170 530,-170 530,-141 530,-141 530,-135 536,-129 542,-129 542,-129 603,-129 603,-129 609,-129 615,-135 615,-141 615,-141 615,-170 615,-170 615,-176 609,-182 603,-182"/>
<text text-anchor="middle" x="572.5" y="-166.8" font-family="helvetica" font-size="14.00">1</text>
<text text-anchor="middle" x="572.5" y="-151.8" font-family="helvetica" font-size="14.00">Prob: 1.0</text>
<text text-anchor="middle" x="572.5" y="-136.8" font-family="helvetica" font-size="14.00">Frac: 0.007</text>
</g>
<!-- 19&#45;&#45;20 -->
<g id="edge20" class="edge">
<title>19&#45;&#45;20</title>
<path fill="none" stroke="black" stroke-width="3" d="M531.84,-266.37C539.86,-244.71 553.74,-207.2 563.02,-182.12"/>
<text text-anchor="middle" x="559.5" y="-216.3" font-family="helvetica" font-size="14.00"> 3</text>
</g>
<!-- 21&#45;&#45;19 -->
<g id="edge21" class="edge">
<title>21&#45;&#45;19</title>
<path fill="none" stroke="black" stroke-width="3" d="M575.68,-395.37C564.61,-371.13 544.49,-327.07 533.38,-302.76"/>
<text text-anchor="middle" x="566.5" y="-352.8" font-family="helvetica" font-size="14.00"> 1</text>
<text text-anchor="middle" x="566.5" y="-337.8" font-family="helvetica" font-size="14.00"> 2</text>
</g>
<!-- 22 -->
<g id="node23" class="node">
<title>22</title>
<path fill="#ffc155" stroke="black" stroke-width="3" d="M645,-311C645,-311 584,-311 584,-311 578,-311 572,-305 572,-299 572,-299 572,-270 572,-270 572,-264 578,-258 584,-258 584,-258 645,-258 645,-258 651,-258 657,-264 657,-270 657,-270 657,-299 657,-299 657,-305 651,-311 645,-311"/>
<text text-anchor="middle" x="614.5" y="-295.8" font-family="helvetica" font-size="14.00">1</text>
<text text-anchor="middle" x="614.5" y="-280.8" font-family="helvetica" font-size="14.00">Prob: 1.0</text>
<text text-anchor="middle" x="614.5" y="-265.8" font-family="helvetica" font-size="14.00">Frac: 0.016</text>
</g>
<!-- 21&#45;&#45;22 -->
<g id="edge22" class="edge">
<title>21&#45;&#45;22</title>
<path fill="none" stroke="black" stroke-width="3" d="M587.68,-395.37C592.97,-373.71 602.12,-336.2 608.25,-311.12"/>
<text text-anchor="middle" x="608.5" y="-345.3" font-family="helvetica" font-size="14.00"> 3</text>
</g>
<!-- 23&#45;&#45;15 -->
<g id="edge23" class="edge">
<title>23&#45;&#45;15</title>
<path fill="none" stroke="black" stroke-width="3" d="M501.5,-653.37C501.5,-629.13 501.5,-585.07 501.5,-560.76"/>
<text text-anchor="middle" x="507.5" y="-610.8" font-family="helvetica" font-size="14.00"> 2</text>
<text text-anchor="middle" x="507.5" y="-595.8" font-family="helvetica" font-size="14.00"> 4</text>
</g>
<!-- 24 -->
<g id="node25" class="node">
<title>24</title>
<path fill="#ffc155" stroke="black" stroke-width="3" d="M620,-569C620,-569 559,-569 559,-569 553,-569 547,-563 547,-557 547,-557 547,-528 547,-528 547,-522 553,-516 559,-516 559,-516 620,-516 620,-516 626,-516 632,-522 632,-528 632,-528 632,-557 632,-557 632,-563 626,-569 620,-569"/>
<text text-anchor="middle" x="589.5" y="-553.8" font-family="helvetica" font-size="14.00">1</text>
<text text-anchor="middle" x="589.5" y="-538.8" font-family="helvetica" font-size="14.00">Prob: 1.0</text>
<text text-anchor="middle" x="589.5" y="-523.8" font-family="helvetica" font-size="14.00">Frac: 0.102</text>
</g>
<!-- 23&#45;&#45;24 -->
<g id="edge24" class="edge">
<title>23&#45;&#45;24</title>
<path fill="none" stroke="black" stroke-width="3" d="M513.37,-653.37C528.38,-631.71 554.37,-594.2 571.74,-569.12"/>
<text text-anchor="middle" x="567.5" y="-618.3" font-family="helvetica" font-size="14.00"> 1</text>
<text text-anchor="middle" x="567.5" y="-603.3" font-family="helvetica" font-size="14.00"> 3</text>
<text text-anchor="middle" x="567.5" y="-588.3" font-family="helvetica" font-size="14.00"> 5</text>
</g>
<!-- 25 -->
<g id="node26" class="node">
<title>25</title>
<g id="a_node26"><a xlink:href=".//ptsd63.svg" xlink:title="ptsd63">
<path fill="#fac256" stroke="black" stroke-width="3" d="M525,-1076.5C525,-1076.5 492,-1076.5 492,-1076.5 486,-1076.5 480,-1070.5 480,-1064.5 480,-1064.5 480,-1052.5 480,-1052.5 480,-1046.5 486,-1040.5 492,-1040.5 492,-1040.5 525,-1040.5 525,-1040.5 531,-1040.5 537,-1046.5 537,-1052.5 537,-1052.5 537,-1064.5 537,-1064.5 537,-1070.5 531,-1076.5 525,-1076.5"/>
<text text-anchor="middle" x="508.5" y="-1054.8" font-family="helvetica" font-size="14.00">ptsd63</text>
</a>
</g>
</g>
<!-- 25&#45;&#45;11 -->
<g id="edge25" class="edge">
<title>25&#45;&#45;11</title>
<path fill="none" stroke="black" stroke-width="3" d="M495.55,-1040.37C477.23,-1016.13 443.93,-972.07 425.55,-947.76"/>
<text text-anchor="middle" x="489.5" y="-990.3" font-family="helvetica" font-size="14.00"> 1</text>
</g>
<!-- 26 -->
<g id="node27" class="node">
<title>26</title>
<path fill="#c6cf8d" stroke="black" stroke-width="3" d="M539.5,-956C539.5,-956 477.5,-956 477.5,-956 471.5,-956 465.5,-950 465.5,-944 465.5,-944 465.5,-915 465.5,-915 465.5,-909 471.5,-903 477.5,-903 477.5,-903 539.5,-903 539.5,-903 545.5,-903 551.5,-909 551.5,-915 551.5,-915 551.5,-944 551.5,-944 551.5,-950 545.5,-956 539.5,-956"/>
<text text-anchor="middle" x="508.5" y="-940.8" font-family="helvetica" font-size="14.00">1</text>
<text text-anchor="middle" x="508.5" y="-925.8" font-family="helvetica" font-size="14.00">Prob: 0.667</text>
<text text-anchor="middle" x="508.5" y="-910.8" font-family="helvetica" font-size="14.00">Frac: 0.01</text>
</g>
<!-- 25&#45;&#45;26 -->
<g id="edge26" class="edge">
<title>25&#45;&#45;26</title>
<path fill="none" stroke="black" stroke-width="3" d="M508.5,-1040.37C508.5,-1018.71 508.5,-981.2 508.5,-956.12"/>
<text text-anchor="middle" x="514.5" y="-990.3" font-family="helvetica" font-size="14.00"> 2</text>
</g>
<!-- 27 -->
<g id="node28" class="node">
<title>27</title>
<g id="a_node28"><a xlink:href=".//ptsd117.svg" xlink:title="ptsd117">
<path fill="#d9cb68" stroke="black" stroke-width="3" d="M625,-1205.5C625,-1205.5 584,-1205.5 584,-1205.5 578,-1205.5 572,-1199.5 572,-1193.5 572,-1193.5 572,-1181.5 572,-1181.5 572,-1175.5 578,-1169.5 584,-1169.5 584,-1169.5 625,-1169.5 625,-1169.5 631,-1169.5 637,-1175.5 637,-1181.5 637,-1181.5 637,-1193.5 637,-1193.5 637,-1199.5 631,-1205.5 625,-1205.5"/>
<text text-anchor="middle" x="604.5" y="-1183.8" font-family="helvetica" font-size="14.00">ptsd117</text>
</a>
</g>
</g>
<!-- 27&#45;&#45;25 -->
<g id="edge27" class="edge">
<title>27&#45;&#45;25</title>
<path fill="none" stroke="black" stroke-width="3" d="M591.55,-1169.37C573.23,-1145.13 539.93,-1101.07 521.55,-1076.76"/>
<text text-anchor="middle" x="579.5" y="-1119.3" font-family="helvetica" font-size="14.00"> 1</text>
</g>
<!-- 31 -->
<g id="node32" class="node">
<title>31</title>
<g id="a_node32"><a xlink:href=".//ptsd58.svg" xlink:title="ptsd58">
<path fill="#9edc86" stroke="black" stroke-width="3" d="M621,-1076.5C621,-1076.5 588,-1076.5 588,-1076.5 582,-1076.5 576,-1070.5 576,-1064.5 576,-1064.5 576,-1052.5 576,-1052.5 576,-1046.5 582,-1040.5 588,-1040.5 588,-1040.5 621,-1040.5 621,-1040.5 627,-1040.5 633,-1046.5 633,-1052.5 633,-1052.5 633,-1064.5 633,-1064.5 633,-1070.5 627,-1076.5 621,-1076.5"/>
<text text-anchor="middle" x="604.5" y="-1054.8" font-family="helvetica" font-size="14.00">ptsd58</text>
</a>
</g>
</g>
<!-- 27&#45;&#45;31 -->
<g id="edge28" class="edge">
<title>27&#45;&#45;31</title>
<path fill="none" stroke="black" stroke-width="3" d="M604.5,-1169.37C604.5,-1145.13 604.5,-1101.07 604.5,-1076.76"/>
<text text-anchor="middle" x="610.5" y="-1134.3" font-family="helvetica" font-size="14.00"> 2</text>
<text text-anchor="middle" x="610.5" y="-1119.3" font-family="helvetica" font-size="14.00"> 3</text>
<text text-anchor="middle" x="610.5" y="-1104.3" font-family="helvetica" font-size="14.00"> 4</text>
</g>
<!-- 28 -->
<g id="node29" class="node">
<title>28</title>
<path fill="#6aff55" stroke="black" stroke-width="3" d="M536,-827C536,-827 475,-827 475,-827 469,-827 463,-821 463,-815 463,-815 463,-786 463,-786 463,-780 469,-774 475,-774 475,-774 536,-774 536,-774 542,-774 548,-780 548,-786 548,-786 548,-815 548,-815 548,-821 542,-827 536,-827"/>
<text text-anchor="middle" x="505.5" y="-811.8" font-family="helvetica" font-size="14.00">2</text>
<text text-anchor="middle" x="505.5" y="-796.8" font-family="helvetica" font-size="14.00">Prob: 1.0</text>
<text text-anchor="middle" x="505.5" y="-781.8" font-family="helvetica" font-size="14.00">Frac: 0.007</text>
</g>
<!-- 29 -->
<g id="node30" class="node">
<title>29</title>
<g id="a_node30"><a xlink:href=".//ptsd188.svg" xlink:title="ptsd188">
<path fill="#d4c36d" stroke="black" stroke-width="3" d="M625,-947.5C625,-947.5 584,-947.5 584,-947.5 578,-947.5 572,-941.5 572,-935.5 572,-935.5 572,-923.5 572,-923.5 572,-917.5 578,-911.5 584,-911.5 584,-911.5 625,-911.5 625,-911.5 631,-911.5 637,-917.5 637,-923.5 637,-923.5 637,-935.5 637,-935.5 637,-941.5 631,-947.5 625,-947.5"/>
<text text-anchor="middle" x="604.5" y="-925.8" font-family="helvetica" font-size="14.00">ptsd188</text>
</a>
</g>
</g>
<!-- 29&#45;&#45;28 -->
<g id="edge29" class="edge">
<title>29&#45;&#45;28</title>
<path fill="none" stroke="black" stroke-width="3" d="M591.15,-911.37C574.26,-889.71 545.03,-852.2 525.47,-827.12"/>
<text text-anchor="middle" x="578.5" y="-861.3" font-family="helvetica" font-size="14.00"> 2</text>
</g>
<!-- 30 -->
<g id="node31" class="node">
<title>30</title>
<path fill="#ffab77" stroke="black" stroke-width="3" d="M639,-827C639,-827 578,-827 578,-827 572,-827 566,-821 566,-815 566,-815 566,-786 566,-786 566,-780 572,-774 578,-774 578,-774 639,-774 639,-774 645,-774 651,-780 651,-786 651,-786 651,-815 651,-815 651,-821 645,-827 639,-827"/>
<text text-anchor="middle" x="608.5" y="-811.8" font-family="helvetica" font-size="14.00">1</text>
<text text-anchor="middle" x="608.5" y="-796.8" font-family="helvetica" font-size="14.00">Prob: 0.8</text>
<text text-anchor="middle" x="608.5" y="-781.8" font-family="helvetica" font-size="14.00">Frac: 0.016</text>
</g>
<!-- 29&#45;&#45;30 -->
<g id="edge30" class="edge">
<title>29&#45;&#45;30</title>
<path fill="none" stroke="black" stroke-width="3" d="M605.04,-911.37C605.72,-889.71 606.9,-852.2 607.69,-827.12"/>
<text text-anchor="middle" x="613.5" y="-876.3" font-family="helvetica" font-size="14.00"> 1</text>
<text text-anchor="middle" x="613.5" y="-861.3" font-family="helvetica" font-size="14.00"> 3</text>
<text text-anchor="middle" x="613.5" y="-846.3" font-family="helvetica" font-size="14.00"> 4</text>
</g>
<!-- 31&#45;&#45;29 -->
<g id="edge31" class="edge">
<title>31&#45;&#45;29</title>
<path fill="none" stroke="black" stroke-width="3" d="M604.5,-1040.37C604.5,-1016.13 604.5,-972.07 604.5,-947.76"/>
<text text-anchor="middle" x="610.5" y="-990.3" font-family="helvetica" font-size="14.00"> 1</text>
</g>
<!-- 33 -->
<g id="node34" class="node">
<title>33</title>
<g id="a_node34"><a xlink:href=".//ptsd17.svg" xlink:title="ptsd17">
<path fill="#9ade88" stroke="black" stroke-width="3" d="M729,-947.5C729,-947.5 696,-947.5 696,-947.5 690,-947.5 684,-941.5 684,-935.5 684,-935.5 684,-923.5 684,-923.5 684,-917.5 690,-911.5 696,-911.5 696,-911.5 729,-911.5 729,-911.5 735,-911.5 741,-917.5 741,-923.5 741,-923.5 741,-935.5 741,-935.5 741,-941.5 735,-947.5 729,-947.5"/>
<text text-anchor="middle" x="712.5" y="-925.8" font-family="helvetica" font-size="14.00">ptsd17</text>
</a>
</g>
</g>
<!-- 31&#45;&#45;33 -->
<g id="edge32" class="edge">
<title>31&#45;&#45;33</title>
<path fill="none" stroke="black" stroke-width="3" d="M619.07,-1040.37C639.68,-1016.13 677.15,-972.07 697.82,-947.76"/>
<text text-anchor="middle" x="690.5" y="-1012.8" font-family="helvetica" font-size="14.00"> 2</text>
<text text-anchor="middle" x="690.5" y="-997.8" font-family="helvetica" font-size="14.00"> 3</text>
<text text-anchor="middle" x="690.5" y="-982.8" font-family="helvetica" font-size="14.00"> 4</text>
<text text-anchor="middle" x="690.5" y="-967.8" font-family="helvetica" font-size="14.00"> 5</text>
</g>
<!-- 32 -->
<g id="node33" class="node">
<title>32</title>
<path fill="#a0dd85" stroke="black" stroke-width="3" d="M743.5,-827C743.5,-827 681.5,-827 681.5,-827 675.5,-827 669.5,-821 669.5,-815 669.5,-815 669.5,-786 669.5,-786 669.5,-780 675.5,-774 681.5,-774 681.5,-774 743.5,-774 743.5,-774 749.5,-774 755.5,-780 755.5,-786 755.5,-786 755.5,-815 755.5,-815 755.5,-821 749.5,-827 743.5,-827"/>
<text text-anchor="middle" x="712.5" y="-811.8" font-family="helvetica" font-size="14.00">1</text>
<text text-anchor="middle" x="712.5" y="-796.8" font-family="helvetica" font-size="14.00">Prob: 0.371</text>
<text text-anchor="middle" x="712.5" y="-781.8" font-family="helvetica" font-size="14.00">Frac: 0.115</text>
</g>
<!-- 33&#45;&#45;32 -->
<g id="edge33" class="edge">
<title>33&#45;&#45;32</title>
<path fill="none" stroke="black" stroke-width="3" d="M712.5,-911.37C712.5,-889.71 712.5,-852.2 712.5,-827.12"/>
<text text-anchor="middle" x="718.5" y="-868.8" font-family="helvetica" font-size="14.00"> 1</text>
<text text-anchor="middle" x="718.5" y="-853.8" font-family="helvetica" font-size="14.00"> 4</text>
</g>
<!-- 35 -->
<g id="node36" class="node">
<title>35</title>
<g id="a_node36"><a xlink:href=".//ptsd17.svg" xlink:title="ptsd17">
<path fill="#97de89" stroke="black" stroke-width="3" d="M819,-818.5C819,-818.5 786,-818.5 786,-818.5 780,-818.5 774,-812.5 774,-806.5 774,-806.5 774,-794.5 774,-794.5 774,-788.5 780,-782.5 786,-782.5 786,-782.5 819,-782.5 819,-782.5 825,-782.5 831,-788.5 831,-794.5 831,-794.5 831,-806.5 831,-806.5 831,-812.5 825,-818.5 819,-818.5"/>
<text text-anchor="middle" x="802.5" y="-796.8" font-family="helvetica" font-size="14.00">ptsd17</text>
</a>
</g>
</g>
<!-- 33&#45;&#45;35 -->
<g id="edge34" class="edge">
<title>33&#45;&#45;35</title>
<path fill="none" stroke="black" stroke-width="3" d="M724.64,-911.37C741.81,-887.13 773.04,-843.07 790.27,-818.76"/>
<text text-anchor="middle" x="778.5" y="-876.3" font-family="helvetica" font-size="14.00"> 2</text>
<text text-anchor="middle" x="778.5" y="-861.3" font-family="helvetica" font-size="14.00"> 3</text>
<text text-anchor="middle" x="778.5" y="-846.3" font-family="helvetica" font-size="14.00"> 5</text>
</g>
<!-- 34 -->
<g id="node35" class="node">
<title>34</title>
<path fill="#98e280" stroke="black" stroke-width="3" d="M791.5,-698C791.5,-698 729.5,-698 729.5,-698 723.5,-698 717.5,-692 717.5,-686 717.5,-686 717.5,-657 717.5,-657 717.5,-651 723.5,-645 729.5,-645 729.5,-645 791.5,-645 791.5,-645 797.5,-645 803.5,-651 803.5,-657 803.5,-657 803.5,-686 803.5,-686 803.5,-692 797.5,-698 791.5,-698"/>
<text text-anchor="middle" x="760.5" y="-682.8" font-family="helvetica" font-size="14.00">2</text>
<text text-anchor="middle" x="760.5" y="-667.8" font-family="helvetica" font-size="14.00">Prob: 0.418</text>
<text text-anchor="middle" x="760.5" y="-652.8" font-family="helvetica" font-size="14.00">Frac: 0.181</text>
</g>
<!-- 35&#45;&#45;34 -->
<g id="edge35" class="edge">
<title>35&#45;&#45;34</title>
<path fill="none" stroke="black" stroke-width="3" d="M796.84,-782.37C789.67,-760.71 777.27,-723.2 768.97,-698.12"/>
<text text-anchor="middle" x="794.5" y="-739.8" font-family="helvetica" font-size="14.00"> 2</text>
<text text-anchor="middle" x="794.5" y="-724.8" font-family="helvetica" font-size="14.00"> 3</text>
</g>
<!-- 39 -->
<g id="node40" class="node">
<title>39</title>
<g id="a_node40"><a xlink:href=".//ptsd78.svg" xlink:title="ptsd78">
<path fill="#90c6bb" stroke="black" stroke-width="3" d="M867,-689.5C867,-689.5 834,-689.5 834,-689.5 828,-689.5 822,-683.5 822,-677.5 822,-677.5 822,-665.5 822,-665.5 822,-659.5 828,-653.5 834,-653.5 834,-653.5 867,-653.5 867,-653.5 873,-653.5 879,-659.5 879,-665.5 879,-665.5 879,-677.5 879,-677.5 879,-683.5 873,-689.5 867,-689.5"/>
<text text-anchor="middle" x="850.5" y="-667.8" font-family="helvetica" font-size="14.00">ptsd78</text>
</a>
</g>
</g>
<!-- 35&#45;&#45;39 -->
<g id="edge36" class="edge">
<title>35&#45;&#45;39</title>
<path fill="none" stroke="black" stroke-width="3" d="M808.97,-782.37C818.13,-758.13 834.79,-714.07 843.98,-689.76"/>
<text text-anchor="middle" x="840.5" y="-732.3" font-family="helvetica" font-size="14.00"> 5</text>
</g>
<!-- 36 -->
<g id="node37" class="node">
<title>36</title>
<path fill="#55ebff" stroke="black" stroke-width="3" d="M714,-440C714,-440 661,-440 661,-440 655,-440 649,-434 649,-428 649,-428 649,-399 649,-399 649,-393 655,-387 661,-387 661,-387 714,-387 714,-387 720,-387 726,-393 726,-399 726,-399 726,-428 726,-428 726,-434 720,-440 714,-440"/>
<text text-anchor="middle" x="687.5" y="-424.8" font-family="helvetica" font-size="14.00">3</text>
<text text-anchor="middle" x="687.5" y="-409.8" font-family="helvetica" font-size="14.00">Prob: 1.0</text>
<text text-anchor="middle" x="687.5" y="-394.8" font-family="helvetica" font-size="14.00">Frac: 0.01</text>
</g>
<!-- 37 -->
<g id="node38" class="node">
<title>37</title>
<g id="a_node38"><a xlink:href=".//ptsd106.svg" xlink:title="ptsd106">
<path fill="#7bd1dd" stroke="black" stroke-width="3" d="M797,-560.5C797,-560.5 756,-560.5 756,-560.5 750,-560.5 744,-554.5 744,-548.5 744,-548.5 744,-536.5 744,-536.5 744,-530.5 750,-524.5 756,-524.5 756,-524.5 797,-524.5 797,-524.5 803,-524.5 809,-530.5 809,-536.5 809,-536.5 809,-548.5 809,-548.5 809,-554.5 803,-560.5 797,-560.5"/>
<text text-anchor="middle" x="776.5" y="-538.8" font-family="helvetica" font-size="14.00">ptsd106</text>
</a>
</g>
</g>
<!-- 37&#45;&#45;36 -->
<g id="edge37" class="edge">
<title>37&#45;&#45;36</title>
<path fill="none" stroke="black" stroke-width="3" d="M764.5,-524.37C749.31,-502.71 723.03,-465.2 705.46,-440.12"/>
<text text-anchor="middle" x="746.5" y="-474.3" font-family="helvetica" font-size="14.00"> 3</text>
</g>
<!-- 38 -->
<g id="node39" class="node">
<title>38</title>
<path fill="#b4aaaa" stroke="black" stroke-width="3" d="M817,-440C817,-440 756,-440 756,-440 750,-440 744,-434 744,-428 744,-428 744,-399 744,-399 744,-393 750,-387 756,-387 756,-387 817,-387 817,-387 823,-387 829,-393 829,-399 829,-399 829,-428 829,-428 829,-434 823,-440 817,-440"/>
<text text-anchor="middle" x="786.5" y="-424.8" font-family="helvetica" font-size="14.00">2</text>
<text text-anchor="middle" x="786.5" y="-409.8" font-family="helvetica" font-size="14.00">Prob: 0.5</text>
<text text-anchor="middle" x="786.5" y="-394.8" font-family="helvetica" font-size="14.00">Frac: 0.007</text>
</g>
<!-- 37&#45;&#45;38 -->
<g id="edge38" class="edge">
<title>37&#45;&#45;38</title>
<path fill="none" stroke="black" stroke-width="3" d="M777.85,-524.37C779.55,-502.71 782.51,-465.2 784.48,-440.12"/>
<text text-anchor="middle" x="787.5" y="-481.8" font-family="helvetica" font-size="14.00"> 2</text>
<text text-anchor="middle" x="787.5" y="-466.8" font-family="helvetica" font-size="14.00"> 4</text>
</g>
<!-- 39&#45;&#45;37 -->
<g id="edge39" class="edge">
<title>39&#45;&#45;37</title>
<path fill="none" stroke="black" stroke-width="3" d="M840.52,-653.37C826.4,-629.13 800.72,-585.07 786.56,-560.76"/>
<text text-anchor="middle" x="832.5" y="-610.8" font-family="helvetica" font-size="14.00"> 2</text>
<text text-anchor="middle" x="832.5" y="-595.8" font-family="helvetica" font-size="14.00"> 3</text>
</g>
<!-- 40 -->
<g id="node41" class="node">
<title>40</title>
<path fill="#a5bb99" stroke="black" stroke-width="3" d="M900,-569C900,-569 839,-569 839,-569 833,-569 827,-563 827,-557 827,-557 827,-528 827,-528 827,-522 833,-516 839,-516 839,-516 900,-516 900,-516 906,-516 912,-522 912,-528 912,-528 912,-557 912,-557 912,-563 906,-569 900,-569"/>
<text text-anchor="middle" x="869.5" y="-553.8" font-family="helvetica" font-size="14.00">2</text>
<text text-anchor="middle" x="869.5" y="-538.8" font-family="helvetica" font-size="14.00">Prob: 0.6</text>
<text text-anchor="middle" x="869.5" y="-523.8" font-family="helvetica" font-size="14.00">Frac: 0.016</text>
</g>
<!-- 39&#45;&#45;40 -->
<g id="edge40" class="edge">
<title>39&#45;&#45;40</title>
<path fill="none" stroke="black" stroke-width="3" d="M853.06,-653.37C856.3,-631.71 861.91,-594.2 865.67,-569.12"/>
<text text-anchor="middle" x="868.5" y="-610.8" font-family="helvetica" font-size="14.00"> 4</text>
<text text-anchor="middle" x="868.5" y="-595.8" font-family="helvetica" font-size="14.00"> 5</text>
</g>
<!-- 41 -->
<g id="node42" class="node">
<title>41</title>
<g id="a_node42"><a xlink:href=".//ptsd63.svg" xlink:title="ptsd63">
<path fill="#d9c96c" stroke="black" stroke-width="3" d="M665,-1334.5C665,-1334.5 632,-1334.5 632,-1334.5 626,-1334.5 620,-1328.5 620,-1322.5 620,-1322.5 620,-1310.5 620,-1310.5 620,-1304.5 626,-1298.5 632,-1298.5 632,-1298.5 665,-1298.5 665,-1298.5 671,-1298.5 677,-1304.5 677,-1310.5 677,-1310.5 677,-1322.5 677,-1322.5 677,-1328.5 671,-1334.5 665,-1334.5"/>
<text text-anchor="middle" x="648.5" y="-1312.8" font-family="helvetica" font-size="14.00">ptsd63</text>
</a>
</g>
</g>
<!-- 41&#45;&#45;27 -->
<g id="edge41" class="edge">
<title>41&#45;&#45;27</title>
<path fill="none" stroke="black" stroke-width="3" d="M642.57,-1298.37C634.17,-1274.13 618.9,-1230.07 610.48,-1205.76"/>
<text text-anchor="middle" x="640.5" y="-1263.3" font-family="helvetica" font-size="14.00"> 1</text>
<text text-anchor="middle" x="640.5" y="-1248.3" font-family="helvetica" font-size="14.00"> 2</text>
<text text-anchor="middle" x="640.5" y="-1233.3" font-family="helvetica" font-size="14.00"> 3</text>
</g>
<!-- 43 -->
<g id="node44" class="node">
<title>43</title>
<g id="a_node44"><a xlink:href=".//ptsd41.svg" xlink:title="ptsd41">
<path fill="#d976ff" stroke="black" stroke-width="3" d="M710,-1205.5C710,-1205.5 677,-1205.5 677,-1205.5 671,-1205.5 665,-1199.5 665,-1193.5 665,-1193.5 665,-1181.5 665,-1181.5 665,-1175.5 671,-1169.5 677,-1169.5 677,-1169.5 710,-1169.5 710,-1169.5 716,-1169.5 722,-1175.5 722,-1181.5 722,-1181.5 722,-1193.5 722,-1193.5 722,-1199.5 716,-1205.5 710,-1205.5"/>
<text text-anchor="middle" x="693.5" y="-1183.8" font-family="helvetica" font-size="14.00">ptsd41</text>
</a>
</g>
</g>
<!-- 41&#45;&#45;43 -->
<g id="edge42" class="edge">
<title>41&#45;&#45;43</title>
<path fill="none" stroke="black" stroke-width="3" d="M654.57,-1298.37C663.16,-1274.13 678.77,-1230.07 687.38,-1205.76"/>
<text text-anchor="middle" x="685.5" y="-1248.3" font-family="helvetica" font-size="14.00"> 4</text>
</g>
<!-- 42 -->
<g id="node43" class="node">
<title>42</title>
<path fill="#55ebff" stroke="black" stroke-width="3" d="M724,-1085C724,-1085 663,-1085 663,-1085 657,-1085 651,-1079 651,-1073 651,-1073 651,-1044 651,-1044 651,-1038 657,-1032 663,-1032 663,-1032 724,-1032 724,-1032 730,-1032 736,-1038 736,-1044 736,-1044 736,-1073 736,-1073 736,-1079 730,-1085 724,-1085"/>
<text text-anchor="middle" x="693.5" y="-1069.8" font-family="helvetica" font-size="14.00">3</text>
<text text-anchor="middle" x="693.5" y="-1054.8" font-family="helvetica" font-size="14.00">Prob: 1.0</text>
<text text-anchor="middle" x="693.5" y="-1039.8" font-family="helvetica" font-size="14.00">Frac: 0.007</text>
</g>
<!-- 43&#45;&#45;42 -->
<g id="edge43" class="edge">
<title>43&#45;&#45;42</title>
<path fill="none" stroke="black" stroke-width="3" d="M693.5,-1169.37C693.5,-1147.71 693.5,-1110.2 693.5,-1085.12"/>
<text text-anchor="middle" x="699.5" y="-1119.3" font-family="helvetica" font-size="14.00"> 3</text>
</g>
<!-- 44 -->
<g id="node45" class="node">
<title>44</title>
<path fill="#ff55ff" stroke="black" stroke-width="3" d="M827,-1085C827,-1085 766,-1085 766,-1085 760,-1085 754,-1079 754,-1073 754,-1073 754,-1044 754,-1044 754,-1038 760,-1032 766,-1032 766,-1032 827,-1032 827,-1032 833,-1032 839,-1038 839,-1044 839,-1044 839,-1073 839,-1073 839,-1079 833,-1085 827,-1085"/>
<text text-anchor="middle" x="796.5" y="-1069.8" font-family="helvetica" font-size="14.00">4</text>
<text text-anchor="middle" x="796.5" y="-1054.8" font-family="helvetica" font-size="14.00">Prob: 1.0</text>
<text text-anchor="middle" x="796.5" y="-1039.8" font-family="helvetica" font-size="14.00">Frac: 0.023</text>
</g>
<!-- 43&#45;&#45;44 -->
<g id="edge44" class="edge">
<title>43&#45;&#45;44</title>
<path fill="none" stroke="black" stroke-width="3" d="M707.39,-1169.37C724.96,-1147.71 755.38,-1110.2 775.72,-1085.12"/>
<text text-anchor="middle" x="768.5" y="-1126.8" font-family="helvetica" font-size="14.00"> 1</text>
<text text-anchor="middle" x="768.5" y="-1111.8" font-family="helvetica" font-size="14.00"> 4</text>
</g>
</g>
</svg>
