<?xml version="1.0" encoding="UTF-8" standalone="no"?>
<!DOCTYPE svg PUBLIC "-//W3C//DTD SVG 1.1//EN"
 "http://www.w3.org/Graphics/SVG/1.1/DTD/svg11.dtd">
<!-- Generated by graphviz version 2.44.0 (0)
 -->
<!-- Title: Tree Pages: 1 -->
<svg width="778pt" height="1226pt"
 viewBox="0.00 0.00 934.00 1471.50" xmlns="http://www.w3.org/2000/svg" xmlns:xlink="http://www.w3.org/1999/xlink">
<g id="graph0" class="graph" transform="scale(0.83 0.83) rotate(0) translate(4 1467.5)">
<title>Tree</title>
<!-- 0 -->
<g id="node1" class="node">
<title>0</title>
<path fill="#ffc155" stroke="black" stroke-width="3" d="M373,-1214C373,-1214 312,-1214 312,-1214 306,-1214 300,-1208 300,-1202 300,-1202 300,-1173 300,-1173 300,-1167 306,-1161 312,-1161 312,-1161 373,-1161 373,-1161 379,-1161 385,-1167 385,-1173 385,-1173 385,-1202 385,-1202 385,-1208 379,-1214 373,-1214"/>
<text text-anchor="middle" x="342.5" y="-1198.8" font-family="helvetica" font-size="14.00">1</text>
<text text-anchor="middle" x="342.5" y="-1183.8" font-family="helvetica" font-size="14.00">Prob: 1.0</text>
<text text-anchor="middle" x="342.5" y="-1168.8" font-family="helvetica" font-size="14.00">Frac: 0.378</text>
</g>
<!-- 1 -->
<g id="node2" class="node">
<title>1</title>
<g id="a_node2"><a xlink:href=".//ptsd140.svg" xlink:title="ptsd140">
<path fill="#fdc155" stroke="black" stroke-width="3" d="M452,-1334.5C452,-1334.5 411,-1334.5 411,-1334.5 405,-1334.5 399,-1328.5 399,-1322.5 399,-1322.5 399,-1310.5 399,-1310.5 399,-1304.5 405,-1298.5 411,-1298.5 411,-1298.5 452,-1298.5 452,-1298.5 458,-1298.5 464,-1304.5 464,-1310.5 464,-1310.5 464,-1322.5 464,-1322.5 464,-1328.5 458,-1334.5 452,-1334.5"/>
<text text-anchor="middle" x="431.5" y="-1312.8" font-family="helvetica" font-size="14.00">ptsd140</text>
</a>
</g>
</g>
<!-- 1&#45;&#45;0 -->
<g id="edge1" class="edge">
<title>1&#45;&#45;0</title>
<path fill="none" stroke="black" stroke-width="3" d="M419.5,-1298.37C404.31,-1276.71 378.03,-1239.2 360.46,-1214.12"/>
<text text-anchor="middle" x="414.5" y="-1255.8" font-family="helvetica" font-size="14.00"> 1</text>
<text text-anchor="middle" x="414.5" y="-1240.8" font-family="helvetica" font-size="14.00"> 4</text>
</g>
<!-- 3 -->
<g id="node4" class="node">
<title>3</title>
<g id="a_node4"><a xlink:href=".//ptsd33.svg" xlink:title="ptsd33">
<path fill="#fcc255" stroke="black" stroke-width="3" d="M448,-1205.5C448,-1205.5 415,-1205.5 415,-1205.5 409,-1205.5 403,-1199.5 403,-1193.5 403,-1193.5 403,-1181.5 403,-1181.5 403,-1175.5 409,-1169.5 415,-1169.5 415,-1169.5 448,-1169.5 448,-1169.5 454,-1169.5 460,-1175.5 460,-1181.5 460,-1181.5 460,-1193.5 460,-1193.5 460,-1199.5 454,-1205.5 448,-1205.5"/>
<text text-anchor="middle" x="431.5" y="-1183.8" font-family="helvetica" font-size="14.00">ptsd33</text>
</a>
</g>
</g>
<!-- 1&#45;&#45;3 -->
<g id="edge2" class="edge">
<title>1&#45;&#45;3</title>
<path fill="none" stroke="black" stroke-width="3" d="M431.5,-1298.37C431.5,-1274.13 431.5,-1230.07 431.5,-1205.76"/>
<text text-anchor="middle" x="437.5" y="-1263.3" font-family="helvetica" font-size="14.00"> 2</text>
<text text-anchor="middle" x="437.5" y="-1248.3" font-family="helvetica" font-size="14.00"> 3</text>
<text text-anchor="middle" x="437.5" y="-1233.3" font-family="helvetica" font-size="14.00"> 5</text>
</g>
<!-- 2 -->
<g id="node3" class="node">
<title>2</title>
<path fill="#ffc155" stroke="black" stroke-width="3" d="M373,-1085C373,-1085 312,-1085 312,-1085 306,-1085 300,-1079 300,-1073 300,-1073 300,-1044 300,-1044 300,-1038 306,-1032 312,-1032 312,-1032 373,-1032 373,-1032 379,-1032 385,-1038 385,-1044 385,-1044 385,-1073 385,-1073 385,-1079 379,-1085 373,-1085"/>
<text text-anchor="middle" x="342.5" y="-1069.8" font-family="helvetica" font-size="14.00">1</text>
<text text-anchor="middle" x="342.5" y="-1054.8" font-family="helvetica" font-size="14.00">Prob: 1.0</text>
<text text-anchor="middle" x="342.5" y="-1039.8" font-family="helvetica" font-size="14.00">Frac: 0.056</text>
</g>
<!-- 3&#45;&#45;2 -->
<g id="edge3" class="edge">
<title>3&#45;&#45;2</title>
<path fill="none" stroke="black" stroke-width="3" d="M419.5,-1169.37C404.31,-1147.71 378.03,-1110.2 360.46,-1085.12"/>
<text text-anchor="middle" x="414.5" y="-1119.3" font-family="helvetica" font-size="14.00"> 4</text>
</g>
<!-- 21 -->
<g id="node22" class="node">
<title>21</title>
<g id="a_node22"><a xlink:href=".//ptsd33.svg" xlink:title="ptsd33">
<path fill="#fbc255" stroke="black" stroke-width="3" d="M448,-1076.5C448,-1076.5 415,-1076.5 415,-1076.5 409,-1076.5 403,-1070.5 403,-1064.5 403,-1064.5 403,-1052.5 403,-1052.5 403,-1046.5 409,-1040.5 415,-1040.5 415,-1040.5 448,-1040.5 448,-1040.5 454,-1040.5 460,-1046.5 460,-1052.5 460,-1052.5 460,-1064.5 460,-1064.5 460,-1070.5 454,-1076.5 448,-1076.5"/>
<text text-anchor="middle" x="431.5" y="-1054.8" font-family="helvetica" font-size="14.00">ptsd33</text>
</a>
</g>
</g>
<!-- 3&#45;&#45;21 -->
<g id="edge4" class="edge">
<title>3&#45;&#45;21</title>
<path fill="none" stroke="black" stroke-width="3" d="M431.5,-1169.37C431.5,-1145.13 431.5,-1101.07 431.5,-1076.76"/>
<text text-anchor="middle" x="437.5" y="-1141.8" font-family="helvetica" font-size="14.00"> 1</text>
<text text-anchor="middle" x="437.5" y="-1126.8" font-family="helvetica" font-size="14.00"> 2</text>
<text text-anchor="middle" x="437.5" y="-1111.8" font-family="helvetica" font-size="14.00"> 3</text>
<text text-anchor="middle" x="437.5" y="-1096.8" font-family="helvetica" font-size="14.00"> 5</text>
</g>
<!-- 4 -->
<g id="node5" class="node">
<title>4</title>
<path fill="#ffc155" stroke="black" stroke-width="3" d="M96,-311C96,-311 43,-311 43,-311 37,-311 31,-305 31,-299 31,-299 31,-270 31,-270 31,-264 37,-258 43,-258 43,-258 96,-258 96,-258 102,-258 108,-264 108,-270 108,-270 108,-299 108,-299 108,-305 102,-311 96,-311"/>
<text text-anchor="middle" x="69.5" y="-295.8" font-family="helvetica" font-size="14.00">1</text>
<text text-anchor="middle" x="69.5" y="-280.8" font-family="helvetica" font-size="14.00">Prob: 1.0</text>
<text text-anchor="middle" x="69.5" y="-265.8" font-family="helvetica" font-size="14.00">Frac: 0.01</text>
</g>
<!-- 5 -->
<g id="node6" class="node">
<title>5</title>
<g id="a_node6"><a xlink:href=".//ptsd157.svg" xlink:title="ptsd157">
<path fill="#f5c455" stroke="black" stroke-width="3" d="M107,-431.5C107,-431.5 66,-431.5 66,-431.5 60,-431.5 54,-425.5 54,-419.5 54,-419.5 54,-407.5 54,-407.5 54,-401.5 60,-395.5 66,-395.5 66,-395.5 107,-395.5 107,-395.5 113,-395.5 119,-401.5 119,-407.5 119,-407.5 119,-419.5 119,-419.5 119,-425.5 113,-431.5 107,-431.5"/>
<text text-anchor="middle" x="86.5" y="-409.8" font-family="helvetica" font-size="14.00">ptsd157</text>
</a>
</g>
</g>
<!-- 5&#45;&#45;4 -->
<g id="edge5" class="edge">
<title>5&#45;&#45;4</title>
<path fill="none" stroke="black" stroke-width="3" d="M84.21,-395.37C81.31,-373.71 76.29,-336.2 72.93,-311.12"/>
<text text-anchor="middle" x="86.5" y="-345.3" font-family="helvetica" font-size="14.00"> 1</text>
</g>
<!-- 9 -->
<g id="node10" class="node">
<title>9</title>
<g id="a_node10"><a xlink:href=".//ptsd33.svg" xlink:title="ptsd33">
<path fill="#f3c555" stroke="black" stroke-width="3" d="M171,-302.5C171,-302.5 138,-302.5 138,-302.5 132,-302.5 126,-296.5 126,-290.5 126,-290.5 126,-278.5 126,-278.5 126,-272.5 132,-266.5 138,-266.5 138,-266.5 171,-266.5 171,-266.5 177,-266.5 183,-272.5 183,-278.5 183,-278.5 183,-290.5 183,-290.5 183,-296.5 177,-302.5 171,-302.5"/>
<text text-anchor="middle" x="154.5" y="-280.8" font-family="helvetica" font-size="14.00">ptsd33</text>
</a>
</g>
</g>
<!-- 5&#45;&#45;9 -->
<g id="edge6" class="edge">
<title>5&#45;&#45;9</title>
<path fill="none" stroke="black" stroke-width="3" d="M95.67,-395.37C108.65,-371.13 132.24,-327.07 145.26,-302.76"/>
<text text-anchor="middle" x="133.5" y="-352.8" font-family="helvetica" font-size="14.00"> 2</text>
<text text-anchor="middle" x="133.5" y="-337.8" font-family="helvetica" font-size="14.00"> 3</text>
</g>
<!-- 6 -->
<g id="node7" class="node">
<title>6</title>
<path fill="#ffc155" stroke="black" stroke-width="3" d="M73,-53C73,-53 12,-53 12,-53 6,-53 0,-47 0,-41 0,-41 0,-12 0,-12 0,-6 6,0 12,0 12,0 73,0 73,0 79,0 85,-6 85,-12 85,-12 85,-41 85,-41 85,-47 79,-53 73,-53"/>
<text text-anchor="middle" x="42.5" y="-37.8" font-family="helvetica" font-size="14.00">1</text>
<text text-anchor="middle" x="42.5" y="-22.8" font-family="helvetica" font-size="14.00">Prob: 1.0</text>
<text text-anchor="middle" x="42.5" y="-7.8" font-family="helvetica" font-size="14.00">Frac: 0.023</text>
</g>
<!-- 7 -->
<g id="node8" class="node">
<title>7</title>
<g id="a_node8"><a xlink:href=".//ptsd208.svg" xlink:title="ptsd208">
<path fill="#eec755" stroke="black" stroke-width="3" d="M114,-173.5C114,-173.5 73,-173.5 73,-173.5 67,-173.5 61,-167.5 61,-161.5 61,-161.5 61,-149.5 61,-149.5 61,-143.5 67,-137.5 73,-137.5 73,-137.5 114,-137.5 114,-137.5 120,-137.5 126,-143.5 126,-149.5 126,-149.5 126,-161.5 126,-161.5 126,-167.5 120,-173.5 114,-173.5"/>
<text text-anchor="middle" x="93.5" y="-151.8" font-family="helvetica" font-size="14.00">ptsd208</text>
</a>
</g>
</g>
<!-- 7&#45;&#45;6 -->
<g id="edge7" class="edge">
<title>7&#45;&#45;6</title>
<path fill="none" stroke="black" stroke-width="3" d="M86.62,-137.37C77.92,-115.71 62.86,-78.2 52.79,-53.12"/>
<text text-anchor="middle" x="79.5" y="-87.3" font-family="helvetica" font-size="14.00"> 2</text>
</g>
<!-- 8 -->
<g id="node9" class="node">
<title>8</title>
<path fill="#b4e055" stroke="black" stroke-width="3" d="M176,-53C176,-53 115,-53 115,-53 109,-53 103,-47 103,-41 103,-41 103,-12 103,-12 103,-6 109,0 115,0 115,0 176,0 176,0 182,0 188,-6 188,-12 188,-12 188,-41 188,-41 188,-47 182,-53 176,-53"/>
<text text-anchor="middle" x="145.5" y="-37.8" font-family="helvetica" font-size="14.00">1</text>
<text text-anchor="middle" x="145.5" y="-22.8" font-family="helvetica" font-size="14.00">Prob: 0.5</text>
<text text-anchor="middle" x="145.5" y="-7.8" font-family="helvetica" font-size="14.00">Frac: 0.007</text>
</g>
<!-- 7&#45;&#45;8 -->
<g id="edge8" class="edge">
<title>7&#45;&#45;8</title>
<path fill="none" stroke="black" stroke-width="3" d="M100.51,-137.37C109.38,-115.71 124.74,-78.2 135.01,-53.12"/>
<text text-anchor="middle" x="130.5" y="-94.8" font-family="helvetica" font-size="14.00"> 1</text>
<text text-anchor="middle" x="130.5" y="-79.8" font-family="helvetica" font-size="14.00"> 4</text>
</g>
<!-- 9&#45;&#45;7 -->
<g id="edge9" class="edge">
<title>9&#45;&#45;7</title>
<path fill="none" stroke="black" stroke-width="3" d="M146.27,-266.37C134.63,-242.13 113.47,-198.07 101.79,-173.76"/>
<text text-anchor="middle" x="135.5" y="-223.8" font-family="helvetica" font-size="14.00"> 1</text>
<text text-anchor="middle" x="135.5" y="-208.8" font-family="helvetica" font-size="14.00"> 2</text>
</g>
<!-- 10 -->
<g id="node11" class="node">
<title>10</title>
<path fill="#ffc155" stroke="black" stroke-width="3" d="M217,-182C217,-182 156,-182 156,-182 150,-182 144,-176 144,-170 144,-170 144,-141 144,-141 144,-135 150,-129 156,-129 156,-129 217,-129 217,-129 223,-129 229,-135 229,-141 229,-141 229,-170 229,-170 229,-176 223,-182 217,-182"/>
<text text-anchor="middle" x="186.5" y="-166.8" font-family="helvetica" font-size="14.00">1</text>
<text text-anchor="middle" x="186.5" y="-151.8" font-family="helvetica" font-size="14.00">Prob: 1.0</text>
<text text-anchor="middle" x="186.5" y="-136.8" font-family="helvetica" font-size="14.00">Frac: 0.013</text>
</g>
<!-- 9&#45;&#45;10 -->
<g id="edge10" class="edge">
<title>9&#45;&#45;10</title>
<path fill="none" stroke="black" stroke-width="3" d="M158.82,-266.37C164.27,-244.71 173.72,-207.2 180.04,-182.12"/>
<text text-anchor="middle" x="179.5" y="-216.3" font-family="helvetica" font-size="14.00"> 3</text>
</g>
<!-- 11 -->
<g id="node12" class="node">
<title>11</title>
<g id="a_node12"><a xlink:href=".//ptsd81.svg" xlink:title="ptsd81">
<path fill="#f7c355" stroke="black" stroke-width="3" d="M149,-560.5C149,-560.5 116,-560.5 116,-560.5 110,-560.5 104,-554.5 104,-548.5 104,-548.5 104,-536.5 104,-536.5 104,-530.5 110,-524.5 116,-524.5 116,-524.5 149,-524.5 149,-524.5 155,-524.5 161,-530.5 161,-536.5 161,-536.5 161,-548.5 161,-548.5 161,-554.5 155,-560.5 149,-560.5"/>
<text text-anchor="middle" x="132.5" y="-538.8" font-family="helvetica" font-size="14.00">ptsd81</text>
</a>
</g>
</g>
<!-- 11&#45;&#45;5 -->
<g id="edge11" class="edge">
<title>11&#45;&#45;5</title>
<path fill="none" stroke="black" stroke-width="3" d="M126.3,-524.37C117.52,-500.13 101.56,-456.07 92.75,-431.76"/>
<text text-anchor="middle" x="120.5" y="-481.8" font-family="helvetica" font-size="14.00"> 2</text>
<text text-anchor="middle" x="120.5" y="-466.8" font-family="helvetica" font-size="14.00"> 3</text>
</g>
<!-- 12 -->
<g id="node13" class="node">
<title>12</title>
<path fill="#ffc155" stroke="black" stroke-width="3" d="M210,-440C210,-440 149,-440 149,-440 143,-440 137,-434 137,-428 137,-428 137,-399 137,-399 137,-393 143,-387 149,-387 149,-387 210,-387 210,-387 216,-387 222,-393 222,-399 222,-399 222,-428 222,-428 222,-434 216,-440 210,-440"/>
<text text-anchor="middle" x="179.5" y="-424.8" font-family="helvetica" font-size="14.00">1</text>
<text text-anchor="middle" x="179.5" y="-409.8" font-family="helvetica" font-size="14.00">Prob: 1.0</text>
<text text-anchor="middle" x="179.5" y="-394.8" font-family="helvetica" font-size="14.00">Frac: 0.016</text>
</g>
<!-- 11&#45;&#45;12 -->
<g id="edge12" class="edge">
<title>11&#45;&#45;12</title>
<path fill="none" stroke="black" stroke-width="3" d="M138.84,-524.37C146.86,-502.71 160.74,-465.2 170.02,-440.12"/>
<text text-anchor="middle" x="166.5" y="-481.8" font-family="helvetica" font-size="14.00"> 1</text>
<text text-anchor="middle" x="166.5" y="-466.8" font-family="helvetica" font-size="14.00"> 4</text>
</g>
<!-- 13 -->
<g id="node14" class="node">
<title>13</title>
<g id="a_node14"><a xlink:href=".//ptsd76.svg" xlink:title="ptsd76">
<path fill="#fac355" stroke="black" stroke-width="3" d="M207,-689.5C207,-689.5 174,-689.5 174,-689.5 168,-689.5 162,-683.5 162,-677.5 162,-677.5 162,-665.5 162,-665.5 162,-659.5 168,-653.5 174,-653.5 174,-653.5 207,-653.5 207,-653.5 213,-653.5 219,-659.5 219,-665.5 219,-665.5 219,-677.5 219,-677.5 219,-683.5 213,-689.5 207,-689.5"/>
<text text-anchor="middle" x="190.5" y="-667.8" font-family="helvetica" font-size="14.00">ptsd76</text>
</a>
</g>
</g>
<!-- 13&#45;&#45;11 -->
<g id="edge13" class="edge">
<title>13&#45;&#45;11</title>
<path fill="none" stroke="black" stroke-width="3" d="M182.68,-653.37C171.61,-629.13 151.49,-585.07 140.38,-560.76"/>
<text text-anchor="middle" x="173.5" y="-610.8" font-family="helvetica" font-size="14.00"> 2</text>
<text text-anchor="middle" x="173.5" y="-595.8" font-family="helvetica" font-size="14.00"> 3</text>
</g>
<!-- 14 -->
<g id="node15" class="node">
<title>14</title>
<path fill="#ffc155" stroke="black" stroke-width="3" d="M252,-569C252,-569 191,-569 191,-569 185,-569 179,-563 179,-557 179,-557 179,-528 179,-528 179,-522 185,-516 191,-516 191,-516 252,-516 252,-516 258,-516 264,-522 264,-528 264,-528 264,-557 264,-557 264,-563 258,-569 252,-569"/>
<text text-anchor="middle" x="221.5" y="-553.8" font-family="helvetica" font-size="14.00">1</text>
<text text-anchor="middle" x="221.5" y="-538.8" font-family="helvetica" font-size="14.00">Prob: 1.0</text>
<text text-anchor="middle" x="221.5" y="-523.8" font-family="helvetica" font-size="14.00">Frac: 0.033</text>
</g>
<!-- 13&#45;&#45;14 -->
<g id="edge14" class="edge">
<title>13&#45;&#45;14</title>
<path fill="none" stroke="black" stroke-width="3" d="M194.68,-653.37C199.97,-631.71 209.12,-594.2 215.25,-569.12"/>
<text text-anchor="middle" x="215.5" y="-610.8" font-family="helvetica" font-size="14.00"> 1</text>
<text text-anchor="middle" x="215.5" y="-595.8" font-family="helvetica" font-size="14.00"> 5</text>
</g>
<!-- 15 -->
<g id="node16" class="node">
<title>15</title>
<g id="a_node16"><a xlink:href=".//ptsd96.svg" xlink:title="ptsd96">
<path fill="#fcc255" stroke="black" stroke-width="3" d="M296,-818.5C296,-818.5 263,-818.5 263,-818.5 257,-818.5 251,-812.5 251,-806.5 251,-806.5 251,-794.5 251,-794.5 251,-788.5 257,-782.5 263,-782.5 263,-782.5 296,-782.5 296,-782.5 302,-782.5 308,-788.5 308,-794.5 308,-794.5 308,-806.5 308,-806.5 308,-812.5 302,-818.5 296,-818.5"/>
<text text-anchor="middle" x="279.5" y="-796.8" font-family="helvetica" font-size="14.00">ptsd96</text>
</a>
</g>
</g>
<!-- 15&#45;&#45;13 -->
<g id="edge15" class="edge">
<title>15&#45;&#45;13</title>
<path fill="none" stroke="black" stroke-width="3" d="M267.5,-782.37C250.51,-758.13 219.63,-714.07 202.6,-689.76"/>
<text text-anchor="middle" x="257.5" y="-739.8" font-family="helvetica" font-size="14.00"> 2</text>
<text text-anchor="middle" x="257.5" y="-724.8" font-family="helvetica" font-size="14.00"> 4</text>
</g>
<!-- 16 -->
<g id="node17" class="node">
<title>16</title>
<path fill="#ffc155" stroke="black" stroke-width="3" d="M310,-698C310,-698 249,-698 249,-698 243,-698 237,-692 237,-686 237,-686 237,-657 237,-657 237,-651 243,-645 249,-645 249,-645 310,-645 310,-645 316,-645 322,-651 322,-657 322,-657 322,-686 322,-686 322,-692 316,-698 310,-698"/>
<text text-anchor="middle" x="279.5" y="-682.8" font-family="helvetica" font-size="14.00">1</text>
<text text-anchor="middle" x="279.5" y="-667.8" font-family="helvetica" font-size="14.00">Prob: 1.0</text>
<text text-anchor="middle" x="279.5" y="-652.8" font-family="helvetica" font-size="14.00">Frac: 0.099</text>
</g>
<!-- 15&#45;&#45;16 -->
<g id="edge16" class="edge">
<title>15&#45;&#45;16</title>
<path fill="none" stroke="black" stroke-width="3" d="M279.5,-782.37C279.5,-760.71 279.5,-723.2 279.5,-698.12"/>
<text text-anchor="middle" x="285.5" y="-747.3" font-family="helvetica" font-size="14.00"> 1</text>
<text text-anchor="middle" x="285.5" y="-732.3" font-family="helvetica" font-size="14.00"> 3</text>
<text text-anchor="middle" x="285.5" y="-717.3" font-family="helvetica" font-size="14.00"> 5</text>
</g>
<!-- 17 -->
<g id="node18" class="node">
<title>17</title>
<g id="a_node18"><a xlink:href=".//ptsd197.svg" xlink:title="ptsd197">
<path fill="#fac255" stroke="black" stroke-width="3" d="M361,-947.5C361,-947.5 320,-947.5 320,-947.5 314,-947.5 308,-941.5 308,-935.5 308,-935.5 308,-923.5 308,-923.5 308,-917.5 314,-911.5 320,-911.5 320,-911.5 361,-911.5 361,-911.5 367,-911.5 373,-917.5 373,-923.5 373,-923.5 373,-935.5 373,-935.5 373,-941.5 367,-947.5 361,-947.5"/>
<text text-anchor="middle" x="340.5" y="-925.8" font-family="helvetica" font-size="14.00">ptsd197</text>
</a>
</g>
</g>
<!-- 17&#45;&#45;15 -->
<g id="edge17" class="edge">
<title>17&#45;&#45;15</title>
<path fill="none" stroke="black" stroke-width="3" d="M332.27,-911.37C320.63,-887.13 299.47,-843.07 287.79,-818.76"/>
<text text-anchor="middle" x="327.5" y="-876.3" font-family="helvetica" font-size="14.00"> 1</text>
<text text-anchor="middle" x="327.5" y="-861.3" font-family="helvetica" font-size="14.00"> 2</text>
<text text-anchor="middle" x="327.5" y="-846.3" font-family="helvetica" font-size="14.00"> 3</text>
</g>
<!-- 19 -->
<g id="node20" class="node">
<title>19</title>
<g id="a_node20"><a xlink:href=".//ptsd44.svg" xlink:title="ptsd44">
<path fill="#ecc855" stroke="black" stroke-width="3" d="M399,-818.5C399,-818.5 366,-818.5 366,-818.5 360,-818.5 354,-812.5 354,-806.5 354,-806.5 354,-794.5 354,-794.5 354,-788.5 360,-782.5 366,-782.5 366,-782.5 399,-782.5 399,-782.5 405,-782.5 411,-788.5 411,-794.5 411,-794.5 411,-806.5 411,-806.5 411,-812.5 405,-818.5 399,-818.5"/>
<text text-anchor="middle" x="382.5" y="-796.8" font-family="helvetica" font-size="14.00">ptsd44</text>
</a>
</g>
</g>
<!-- 17&#45;&#45;19 -->
<g id="edge18" class="edge">
<title>17&#45;&#45;19</title>
<path fill="none" stroke="black" stroke-width="3" d="M346.16,-911.37C354.18,-887.13 368.75,-843.07 376.79,-818.76"/>
<text text-anchor="middle" x="375.5" y="-868.8" font-family="helvetica" font-size="14.00"> 4</text>
<text text-anchor="middle" x="375.5" y="-853.8" font-family="helvetica" font-size="14.00"> 5</text>
</g>
<!-- 18 -->
<g id="node19" class="node">
<title>18</title>
<path fill="#ffc155" stroke="black" stroke-width="3" d="M413,-698C413,-698 352,-698 352,-698 346,-698 340,-692 340,-686 340,-686 340,-657 340,-657 340,-651 346,-645 352,-645 352,-645 413,-645 413,-645 419,-645 425,-651 425,-657 425,-657 425,-686 425,-686 425,-692 419,-698 413,-698"/>
<text text-anchor="middle" x="382.5" y="-682.8" font-family="helvetica" font-size="14.00">1</text>
<text text-anchor="middle" x="382.5" y="-667.8" font-family="helvetica" font-size="14.00">Prob: 1.0</text>
<text text-anchor="middle" x="382.5" y="-652.8" font-family="helvetica" font-size="14.00">Frac: 0.016</text>
</g>
<!-- 19&#45;&#45;18 -->
<g id="edge19" class="edge">
<title>19&#45;&#45;18</title>
<path fill="none" stroke="black" stroke-width="3" d="M382.5,-782.37C382.5,-760.71 382.5,-723.2 382.5,-698.12"/>
<text text-anchor="middle" x="388.5" y="-732.3" font-family="helvetica" font-size="14.00"> 3</text>
</g>
<!-- 20 -->
<g id="node21" class="node">
<title>20</title>
<path fill="#cdd555" stroke="black" stroke-width="3" d="M517.5,-698C517.5,-698 455.5,-698 455.5,-698 449.5,-698 443.5,-692 443.5,-686 443.5,-686 443.5,-657 443.5,-657 443.5,-651 449.5,-645 455.5,-645 455.5,-645 517.5,-645 517.5,-645 523.5,-645 529.5,-651 529.5,-657 529.5,-657 529.5,-686 529.5,-686 529.5,-692 523.5,-698 517.5,-698"/>
<text text-anchor="middle" x="486.5" y="-682.8" font-family="helvetica" font-size="14.00">1</text>
<text text-anchor="middle" x="486.5" y="-667.8" font-family="helvetica" font-size="14.00">Prob: 0.667</text>
<text text-anchor="middle" x="486.5" y="-652.8" font-family="helvetica" font-size="14.00">Frac: 0.01</text>
</g>
<!-- 19&#45;&#45;20 -->
<g id="edge20" class="edge">
<title>19&#45;&#45;20</title>
<path fill="none" stroke="black" stroke-width="3" d="M396.53,-782.37C414.27,-760.71 444.98,-723.2 465.52,-698.12"/>
<text text-anchor="middle" x="459.5" y="-739.8" font-family="helvetica" font-size="14.00"> 2</text>
<text text-anchor="middle" x="459.5" y="-724.8" font-family="helvetica" font-size="14.00"> 5</text>
</g>
<!-- 21&#45;&#45;17 -->
<g id="edge21" class="edge">
<title>21&#45;&#45;17</title>
<path fill="none" stroke="black" stroke-width="3" d="M419.23,-1040.37C401.86,-1016.13 370.29,-972.07 352.87,-947.76"/>
<text text-anchor="middle" x="408.5" y="-1005.3" font-family="helvetica" font-size="14.00"> 1</text>
<text text-anchor="middle" x="408.5" y="-990.3" font-family="helvetica" font-size="14.00"> 2</text>
<text text-anchor="middle" x="408.5" y="-975.3" font-family="helvetica" font-size="14.00"> 3</text>
</g>
<!-- 22 -->
<g id="node23" class="node">
<title>22</title>
<path fill="#ffc155" stroke="black" stroke-width="3" d="M464,-956C464,-956 403,-956 403,-956 397,-956 391,-950 391,-944 391,-944 391,-915 391,-915 391,-909 397,-903 403,-903 403,-903 464,-903 464,-903 470,-903 476,-909 476,-915 476,-915 476,-944 476,-944 476,-950 470,-956 464,-956"/>
<text text-anchor="middle" x="433.5" y="-940.8" font-family="helvetica" font-size="14.00">1</text>
<text text-anchor="middle" x="433.5" y="-925.8" font-family="helvetica" font-size="14.00">Prob: 1.0</text>
<text text-anchor="middle" x="433.5" y="-910.8" font-family="helvetica" font-size="14.00">Frac: 0.056</text>
</g>
<!-- 21&#45;&#45;22 -->
<g id="edge22" class="edge">
<title>21&#45;&#45;22</title>
<path fill="none" stroke="black" stroke-width="3" d="M431.77,-1040.37C432.11,-1018.71 432.7,-981.2 433.1,-956.12"/>
<text text-anchor="middle" x="439.5" y="-990.3" font-family="helvetica" font-size="14.00"> 5</text>
</g>
<!-- 23 -->
<g id="node24" class="node">
<title>23</title>
<g id="a_node24"><a xlink:href=".//ptsd62.svg" xlink:title="ptsd62">
<path fill="#ebc460" stroke="black" stroke-width="3" d="M492,-1463.5C492,-1463.5 459,-1463.5 459,-1463.5 453,-1463.5 447,-1457.5 447,-1451.5 447,-1451.5 447,-1439.5 447,-1439.5 447,-1433.5 453,-1427.5 459,-1427.5 459,-1427.5 492,-1427.5 492,-1427.5 498,-1427.5 504,-1433.5 504,-1439.5 504,-1439.5 504,-1451.5 504,-1451.5 504,-1457.5 498,-1463.5 492,-1463.5"/>
<text text-anchor="middle" x="475.5" y="-1441.8" font-family="helvetica" font-size="14.00">ptsd62</text>
</a>
</g>
</g>
<!-- 23&#45;&#45;1 -->
<g id="edge23" class="edge">
<title>23&#45;&#45;1</title>
<path fill="none" stroke="black" stroke-width="3" d="M469.57,-1427.37C461.17,-1403.13 445.9,-1359.07 437.48,-1334.76"/>
<text text-anchor="middle" x="467.5" y="-1377.3" font-family="helvetica" font-size="14.00"> 1</text>
</g>
<!-- 27 -->
<g id="node28" class="node">
<title>27</title>
<g id="a_node28"><a xlink:href=".//ptsd172.svg" xlink:title="ptsd172">
<path fill="#bdcc7e" stroke="black" stroke-width="3" d="M582,-1334.5C582,-1334.5 541,-1334.5 541,-1334.5 535,-1334.5 529,-1328.5 529,-1322.5 529,-1322.5 529,-1310.5 529,-1310.5 529,-1304.5 535,-1298.5 541,-1298.5 541,-1298.5 582,-1298.5 582,-1298.5 588,-1298.5 594,-1304.5 594,-1310.5 594,-1310.5 594,-1322.5 594,-1322.5 594,-1328.5 588,-1334.5 582,-1334.5"/>
<text text-anchor="middle" x="561.5" y="-1312.8" font-family="helvetica" font-size="14.00">ptsd172</text>
</a>
</g>
</g>
<!-- 23&#45;&#45;27 -->
<g id="edge24" class="edge">
<title>23&#45;&#45;27</title>
<path fill="none" stroke="black" stroke-width="3" d="M487.1,-1427.37C503.51,-1403.13 533.35,-1359.07 549.81,-1334.76"/>
<text text-anchor="middle" x="540.5" y="-1392.3" font-family="helvetica" font-size="14.00"> 2</text>
<text text-anchor="middle" x="540.5" y="-1377.3" font-family="helvetica" font-size="14.00"> 3</text>
<text text-anchor="middle" x="540.5" y="-1362.3" font-family="helvetica" font-size="14.00"> 4</text>
</g>
<!-- 24 -->
<g id="node25" class="node">
<title>24</title>
<path fill="#94bfc6" stroke="black" stroke-width="3" d="M552.5,-1085C552.5,-1085 490.5,-1085 490.5,-1085 484.5,-1085 478.5,-1079 478.5,-1073 478.5,-1073 478.5,-1044 478.5,-1044 478.5,-1038 484.5,-1032 490.5,-1032 490.5,-1032 552.5,-1032 552.5,-1032 558.5,-1032 564.5,-1038 564.5,-1044 564.5,-1044 564.5,-1073 564.5,-1073 564.5,-1079 558.5,-1085 552.5,-1085"/>
<text text-anchor="middle" x="521.5" y="-1069.8" font-family="helvetica" font-size="14.00">2</text>
<text text-anchor="middle" x="521.5" y="-1054.8" font-family="helvetica" font-size="14.00">Prob: 0.333</text>
<text text-anchor="middle" x="521.5" y="-1039.8" font-family="helvetica" font-size="14.00">Frac: 0.01</text>
</g>
<!-- 25 -->
<g id="node26" class="node">
<title>25</title>
<g id="a_node26"><a xlink:href=".//ptsd67.svg" xlink:title="ptsd67">
<path fill="#d5cc68" stroke="black" stroke-width="3" d="M578,-1205.5C578,-1205.5 545,-1205.5 545,-1205.5 539,-1205.5 533,-1199.5 533,-1193.5 533,-1193.5 533,-1181.5 533,-1181.5 533,-1175.5 539,-1169.5 545,-1169.5 545,-1169.5 578,-1169.5 578,-1169.5 584,-1169.5 590,-1175.5 590,-1181.5 590,-1181.5 590,-1193.5 590,-1193.5 590,-1199.5 584,-1205.5 578,-1205.5"/>
<text text-anchor="middle" x="561.5" y="-1183.8" font-family="helvetica" font-size="14.00">ptsd67</text>
</a>
</g>
</g>
<!-- 25&#45;&#45;24 -->
<g id="edge25" class="edge">
<title>25&#45;&#45;24</title>
<path fill="none" stroke="black" stroke-width="3" d="M556.11,-1169.37C549.28,-1147.71 537.47,-1110.2 529.57,-1085.12"/>
<text text-anchor="middle" x="557.5" y="-1126.8" font-family="helvetica" font-size="14.00"> 2</text>
<text text-anchor="middle" x="557.5" y="-1111.8" font-family="helvetica" font-size="14.00"> 3</text>
</g>
<!-- 26 -->
<g id="node27" class="node">
<title>26</title>
<path fill="#ddcd5c" stroke="black" stroke-width="3" d="M656.5,-1085C656.5,-1085 594.5,-1085 594.5,-1085 588.5,-1085 582.5,-1079 582.5,-1073 582.5,-1073 582.5,-1044 582.5,-1044 582.5,-1038 588.5,-1032 594.5,-1032 594.5,-1032 656.5,-1032 656.5,-1032 662.5,-1032 668.5,-1038 668.5,-1044 668.5,-1044 668.5,-1073 668.5,-1073 668.5,-1079 662.5,-1085 656.5,-1085"/>
<text text-anchor="middle" x="625.5" y="-1069.8" font-family="helvetica" font-size="14.00">1</text>
<text text-anchor="middle" x="625.5" y="-1054.8" font-family="helvetica" font-size="14.00">Prob: 0.783</text>
<text text-anchor="middle" x="625.5" y="-1039.8" font-family="helvetica" font-size="14.00">Frac: 0.076</text>
</g>
<!-- 25&#45;&#45;26 -->
<g id="edge26" class="edge">
<title>25&#45;&#45;26</title>
<path fill="none" stroke="black" stroke-width="3" d="M570.13,-1169.37C581.05,-1147.71 599.95,-1110.2 612.59,-1085.12"/>
<text text-anchor="middle" x="614.5" y="-1126.8" font-family="helvetica" font-size="14.00"> 1</text>
<text text-anchor="middle" x="614.5" y="-1111.8" font-family="helvetica" font-size="14.00"> 4</text>
</g>
<!-- 27&#45;&#45;25 -->
<g id="edge27" class="edge">
<title>27&#45;&#45;25</title>
<path fill="none" stroke="black" stroke-width="3" d="M561.5,-1298.37C561.5,-1274.13 561.5,-1230.07 561.5,-1205.76"/>
<text text-anchor="middle" x="567.5" y="-1248.3" font-family="helvetica" font-size="14.00"> 1</text>
</g>
<!-- 41 -->
<g id="node42" class="node">
<title>41</title>
<g id="a_node42"><a xlink:href=".//ptsd7.svg" xlink:title="ptsd7">
<path fill="#b3cd88" stroke="black" stroke-width="3" d="M730.5,-1205.5C730.5,-1205.5 700.5,-1205.5 700.5,-1205.5 694.5,-1205.5 688.5,-1199.5 688.5,-1193.5 688.5,-1193.5 688.5,-1181.5 688.5,-1181.5 688.5,-1175.5 694.5,-1169.5 700.5,-1169.5 700.5,-1169.5 730.5,-1169.5 730.5,-1169.5 736.5,-1169.5 742.5,-1175.5 742.5,-1181.5 742.5,-1181.5 742.5,-1193.5 742.5,-1193.5 742.5,-1199.5 736.5,-1205.5 730.5,-1205.5"/>
<text text-anchor="middle" x="715.5" y="-1183.8" font-family="helvetica" font-size="14.00">ptsd7</text>
</a>
</g>
</g>
<!-- 27&#45;&#45;41 -->
<g id="edge28" class="edge">
<title>27&#45;&#45;41</title>
<path fill="none" stroke="black" stroke-width="3" d="M582.27,-1298.37C611.66,-1274.13 665.09,-1230.07 694.57,-1205.76"/>
<text text-anchor="middle" x="680.5" y="-1270.8" font-family="helvetica" font-size="14.00"> 2</text>
<text text-anchor="middle" x="680.5" y="-1255.8" font-family="helvetica" font-size="14.00"> 3</text>
<text text-anchor="middle" x="680.5" y="-1240.8" font-family="helvetica" font-size="14.00"> 4</text>
<text text-anchor="middle" x="680.5" y="-1225.8" font-family="helvetica" font-size="14.00"> 5</text>
</g>
<!-- 28 -->
<g id="node29" class="node">
<title>28</title>
<path fill="#6aff55" stroke="black" stroke-width="3" d="M619,-827C619,-827 566,-827 566,-827 560,-827 554,-821 554,-815 554,-815 554,-786 554,-786 554,-780 560,-774 566,-774 566,-774 619,-774 619,-774 625,-774 631,-780 631,-786 631,-786 631,-815 631,-815 631,-821 625,-827 619,-827"/>
<text text-anchor="middle" x="592.5" y="-811.8" font-family="helvetica" font-size="14.00">2</text>
<text text-anchor="middle" x="592.5" y="-796.8" font-family="helvetica" font-size="14.00">Prob: 1.0</text>
<text text-anchor="middle" x="592.5" y="-781.8" font-family="helvetica" font-size="14.00">Frac: 0.01</text>
</g>
<!-- 29 -->
<g id="node30" class="node">
<title>29</title>
<g id="a_node30"><a xlink:href=".//ptsd138.svg" xlink:title="ptsd138">
<path fill="#dfce55" stroke="black" stroke-width="3" d="M698,-947.5C698,-947.5 657,-947.5 657,-947.5 651,-947.5 645,-941.5 645,-935.5 645,-935.5 645,-923.5 645,-923.5 645,-917.5 651,-911.5 657,-911.5 657,-911.5 698,-911.5 698,-911.5 704,-911.5 710,-917.5 710,-923.5 710,-923.5 710,-935.5 710,-935.5 710,-941.5 704,-947.5 698,-947.5"/>
<text text-anchor="middle" x="677.5" y="-925.8" font-family="helvetica" font-size="14.00">ptsd138</text>
</a>
</g>
</g>
<!-- 29&#45;&#45;28 -->
<g id="edge29" class="edge">
<title>29&#45;&#45;28</title>
<path fill="none" stroke="black" stroke-width="3" d="M666.04,-911.37C651.54,-889.71 626.44,-852.2 609.65,-827.12"/>
<text text-anchor="middle" x="656.5" y="-861.3" font-family="helvetica" font-size="14.00"> 2</text>
</g>
<!-- 33 -->
<g id="node34" class="node">
<title>33</title>
<g id="a_node34"><a xlink:href=".//ptsd94.svg" xlink:title="ptsd94">
<path fill="#f5c455" stroke="black" stroke-width="3" d="M694,-818.5C694,-818.5 661,-818.5 661,-818.5 655,-818.5 649,-812.5 649,-806.5 649,-806.5 649,-794.5 649,-794.5 649,-788.5 655,-782.5 661,-782.5 661,-782.5 694,-782.5 694,-782.5 700,-782.5 706,-788.5 706,-794.5 706,-794.5 706,-806.5 706,-806.5 706,-812.5 700,-818.5 694,-818.5"/>
<text text-anchor="middle" x="677.5" y="-796.8" font-family="helvetica" font-size="14.00">ptsd94</text>
</a>
</g>
</g>
<!-- 29&#45;&#45;33 -->
<g id="edge30" class="edge">
<title>29&#45;&#45;33</title>
<path fill="none" stroke="black" stroke-width="3" d="M677.5,-911.37C677.5,-887.13 677.5,-843.07 677.5,-818.76"/>
<text text-anchor="middle" x="683.5" y="-876.3" font-family="helvetica" font-size="14.00"> 1</text>
<text text-anchor="middle" x="683.5" y="-861.3" font-family="helvetica" font-size="14.00"> 3</text>
<text text-anchor="middle" x="683.5" y="-846.3" font-family="helvetica" font-size="14.00"> 4</text>
</g>
<!-- 30 -->
<g id="node31" class="node">
<title>30</title>
<path fill="#ffc155" stroke="black" stroke-width="3" d="M563,-569C563,-569 502,-569 502,-569 496,-569 490,-563 490,-557 490,-557 490,-528 490,-528 490,-522 496,-516 502,-516 502,-516 563,-516 563,-516 569,-516 575,-522 575,-528 575,-528 575,-557 575,-557 575,-563 569,-569 563,-569"/>
<text text-anchor="middle" x="532.5" y="-553.8" font-family="helvetica" font-size="14.00">1</text>
<text text-anchor="middle" x="532.5" y="-538.8" font-family="helvetica" font-size="14.00">Prob: 1.0</text>
<text text-anchor="middle" x="532.5" y="-523.8" font-family="helvetica" font-size="14.00">Frac: 0.013</text>
</g>
<!-- 31 -->
<g id="node32" class="node">
<title>31</title>
<g id="a_node32"><a xlink:href=".//ptsd109.svg" xlink:title="ptsd109">
<path fill="#e6cb55" stroke="black" stroke-width="3" d="M605,-689.5C605,-689.5 564,-689.5 564,-689.5 558,-689.5 552,-683.5 552,-677.5 552,-677.5 552,-665.5 552,-665.5 552,-659.5 558,-653.5 564,-653.5 564,-653.5 605,-653.5 605,-653.5 611,-653.5 617,-659.5 617,-665.5 617,-665.5 617,-677.5 617,-677.5 617,-683.5 611,-689.5 605,-689.5"/>
<text text-anchor="middle" x="584.5" y="-667.8" font-family="helvetica" font-size="14.00">ptsd109</text>
</a>
</g>
</g>
<!-- 31&#45;&#45;30 -->
<g id="edge31" class="edge">
<title>31&#45;&#45;30</title>
<path fill="none" stroke="black" stroke-width="3" d="M577.49,-653.37C568.62,-631.71 553.26,-594.2 542.99,-569.12"/>
<text text-anchor="middle" x="569.5" y="-603.3" font-family="helvetica" font-size="14.00"> 3</text>
</g>
<!-- 32 -->
<g id="node33" class="node">
<title>32</title>
<path fill="#b4e055" stroke="black" stroke-width="3" d="M666,-569C666,-569 605,-569 605,-569 599,-569 593,-563 593,-557 593,-557 593,-528 593,-528 593,-522 599,-516 605,-516 605,-516 666,-516 666,-516 672,-516 678,-522 678,-528 678,-528 678,-557 678,-557 678,-563 672,-569 666,-569"/>
<text text-anchor="middle" x="635.5" y="-553.8" font-family="helvetica" font-size="14.00">1</text>
<text text-anchor="middle" x="635.5" y="-538.8" font-family="helvetica" font-size="14.00">Prob: 0.5</text>
<text text-anchor="middle" x="635.5" y="-523.8" font-family="helvetica" font-size="14.00">Frac: 0.007</text>
</g>
<!-- 31&#45;&#45;32 -->
<g id="edge32" class="edge">
<title>31&#45;&#45;32</title>
<path fill="none" stroke="black" stroke-width="3" d="M591.38,-653.37C600.08,-631.71 615.14,-594.2 625.21,-569.12"/>
<text text-anchor="middle" x="621.5" y="-610.8" font-family="helvetica" font-size="14.00"> 2</text>
<text text-anchor="middle" x="621.5" y="-595.8" font-family="helvetica" font-size="14.00"> 4</text>
</g>
<!-- 33&#45;&#45;31 -->
<g id="edge33" class="edge">
<title>33&#45;&#45;31</title>
<path fill="none" stroke="black" stroke-width="3" d="M664.96,-782.37C647.21,-758.13 614.94,-714.07 597.14,-689.76"/>
<text text-anchor="middle" x="653.5" y="-739.8" font-family="helvetica" font-size="14.00"> 2</text>
<text text-anchor="middle" x="653.5" y="-724.8" font-family="helvetica" font-size="14.00"> 3</text>
</g>
<!-- 34 -->
<g id="node35" class="node">
<title>34</title>
<path fill="#ffc155" stroke="black" stroke-width="3" d="M708,-698C708,-698 647,-698 647,-698 641,-698 635,-692 635,-686 635,-686 635,-657 635,-657 635,-651 641,-645 647,-645 647,-645 708,-645 708,-645 714,-645 720,-651 720,-657 720,-657 720,-686 720,-686 720,-692 714,-698 708,-698"/>
<text text-anchor="middle" x="677.5" y="-682.8" font-family="helvetica" font-size="14.00">1</text>
<text text-anchor="middle" x="677.5" y="-667.8" font-family="helvetica" font-size="14.00">Prob: 1.0</text>
<text text-anchor="middle" x="677.5" y="-652.8" font-family="helvetica" font-size="14.00">Frac: 0.033</text>
</g>
<!-- 33&#45;&#45;34 -->
<g id="edge34" class="edge">
<title>33&#45;&#45;34</title>
<path fill="none" stroke="black" stroke-width="3" d="M677.5,-782.37C677.5,-760.71 677.5,-723.2 677.5,-698.12"/>
<text text-anchor="middle" x="683.5" y="-739.8" font-family="helvetica" font-size="14.00"> 1</text>
<text text-anchor="middle" x="683.5" y="-724.8" font-family="helvetica" font-size="14.00"> 4</text>
</g>
<!-- 35 -->
<g id="node36" class="node">
<title>35</title>
<g id="a_node36"><a xlink:href=".//ptsd22.svg" xlink:title="ptsd22">
<path fill="#ccd160" stroke="black" stroke-width="3" d="M732,-1076.5C732,-1076.5 699,-1076.5 699,-1076.5 693,-1076.5 687,-1070.5 687,-1064.5 687,-1064.5 687,-1052.5 687,-1052.5 687,-1046.5 693,-1040.5 699,-1040.5 699,-1040.5 732,-1040.5 732,-1040.5 738,-1040.5 744,-1046.5 744,-1052.5 744,-1052.5 744,-1064.5 744,-1064.5 744,-1070.5 738,-1076.5 732,-1076.5"/>
<text text-anchor="middle" x="715.5" y="-1054.8" font-family="helvetica" font-size="14.00">ptsd22</text>
</a>
</g>
</g>
<!-- 35&#45;&#45;29 -->
<g id="edge35" class="edge">
<title>35&#45;&#45;29</title>
<path fill="none" stroke="black" stroke-width="3" d="M710.38,-1040.37C703.12,-1016.13 689.94,-972.07 682.67,-947.76"/>
<text text-anchor="middle" x="709.5" y="-997.8" font-family="helvetica" font-size="14.00"> 1</text>
<text text-anchor="middle" x="709.5" y="-982.8" font-family="helvetica" font-size="14.00"> 4</text>
</g>
<!-- 39 -->
<g id="node40" class="node">
<title>39</title>
<g id="a_node40"><a xlink:href=".//ptsd136.svg" xlink:title="ptsd136">
<path fill="#abd773" stroke="black" stroke-width="3" d="M801,-947.5C801,-947.5 760,-947.5 760,-947.5 754,-947.5 748,-941.5 748,-935.5 748,-935.5 748,-923.5 748,-923.5 748,-917.5 754,-911.5 760,-911.5 760,-911.5 801,-911.5 801,-911.5 807,-911.5 813,-917.5 813,-923.5 813,-923.5 813,-935.5 813,-935.5 813,-941.5 807,-947.5 801,-947.5"/>
<text text-anchor="middle" x="780.5" y="-925.8" font-family="helvetica" font-size="14.00">ptsd136</text>
</a>
</g>
</g>
<!-- 35&#45;&#45;39 -->
<g id="edge36" class="edge">
<title>35&#45;&#45;39</title>
<path fill="none" stroke="black" stroke-width="3" d="M724.27,-1040.37C736.67,-1016.13 759.22,-972.07 771.67,-947.76"/>
<text text-anchor="middle" x="765.5" y="-1005.3" font-family="helvetica" font-size="14.00"> 2</text>
<text text-anchor="middle" x="765.5" y="-990.3" font-family="helvetica" font-size="14.00"> 3</text>
<text text-anchor="middle" x="765.5" y="-975.3" font-family="helvetica" font-size="14.00"> 5</text>
</g>
<!-- 36 -->
<g id="node37" class="node">
<title>36</title>
<path fill="#e1cd55" stroke="black" stroke-width="3" d="M811,-698C811,-698 750,-698 750,-698 744,-698 738,-692 738,-686 738,-686 738,-657 738,-657 738,-651 744,-645 750,-645 750,-645 811,-645 811,-645 817,-645 823,-651 823,-657 823,-657 823,-686 823,-686 823,-692 817,-698 811,-698"/>
<text text-anchor="middle" x="780.5" y="-682.8" font-family="helvetica" font-size="14.00">1</text>
<text text-anchor="middle" x="780.5" y="-667.8" font-family="helvetica" font-size="14.00">Prob: 0.8</text>
<text text-anchor="middle" x="780.5" y="-652.8" font-family="helvetica" font-size="14.00">Frac: 0.016</text>
</g>
<!-- 37 -->
<g id="node38" class="node">
<title>37</title>
<g id="a_node38"><a xlink:href=".//ptsd144.svg" xlink:title="ptsd144">
<path fill="#ace355" stroke="black" stroke-width="3" d="M801,-818.5C801,-818.5 760,-818.5 760,-818.5 754,-818.5 748,-812.5 748,-806.5 748,-806.5 748,-794.5 748,-794.5 748,-788.5 754,-782.5 760,-782.5 760,-782.5 801,-782.5 801,-782.5 807,-782.5 813,-788.5 813,-794.5 813,-794.5 813,-806.5 813,-806.5 813,-812.5 807,-818.5 801,-818.5"/>
<text text-anchor="middle" x="780.5" y="-796.8" font-family="helvetica" font-size="14.00">ptsd144</text>
</a>
</g>
</g>
<!-- 37&#45;&#45;36 -->
<g id="edge37" class="edge">
<title>37&#45;&#45;36</title>
<path fill="none" stroke="black" stroke-width="3" d="M780.5,-782.37C780.5,-760.71 780.5,-723.2 780.5,-698.12"/>
<text text-anchor="middle" x="786.5" y="-739.8" font-family="helvetica" font-size="14.00"> 1</text>
<text text-anchor="middle" x="786.5" y="-724.8" font-family="helvetica" font-size="14.00"> 3</text>
</g>
<!-- 38 -->
<g id="node39" class="node">
<title>38</title>
<path fill="#6aff55" stroke="black" stroke-width="3" d="M914,-698C914,-698 853,-698 853,-698 847,-698 841,-692 841,-686 841,-686 841,-657 841,-657 841,-651 847,-645 853,-645 853,-645 914,-645 914,-645 920,-645 926,-651 926,-657 926,-657 926,-686 926,-686 926,-692 920,-698 914,-698"/>
<text text-anchor="middle" x="883.5" y="-682.8" font-family="helvetica" font-size="14.00">2</text>
<text text-anchor="middle" x="883.5" y="-667.8" font-family="helvetica" font-size="14.00">Prob: 1.0</text>
<text text-anchor="middle" x="883.5" y="-652.8" font-family="helvetica" font-size="14.00">Frac: 0.013</text>
</g>
<!-- 37&#45;&#45;38 -->
<g id="edge38" class="edge">
<title>37&#45;&#45;38</title>
<path fill="none" stroke="black" stroke-width="3" d="M794.39,-782.37C811.96,-760.71 842.38,-723.2 862.72,-698.12"/>
<text text-anchor="middle" x="856.5" y="-739.8" font-family="helvetica" font-size="14.00"> 2</text>
<text text-anchor="middle" x="856.5" y="-724.8" font-family="helvetica" font-size="14.00"> 4</text>
</g>
<!-- 39&#45;&#45;37 -->
<g id="edge39" class="edge">
<title>39&#45;&#45;37</title>
<path fill="none" stroke="black" stroke-width="3" d="M780.5,-911.37C780.5,-887.13 780.5,-843.07 780.5,-818.76"/>
<text text-anchor="middle" x="786.5" y="-868.8" font-family="helvetica" font-size="14.00"> 2</text>
<text text-anchor="middle" x="786.5" y="-853.8" font-family="helvetica" font-size="14.00"> 3</text>
</g>
<!-- 40 -->
<g id="node41" class="node">
<title>40</title>
<path fill="#aaa0ff" stroke="black" stroke-width="3" d="M904,-827C904,-827 843,-827 843,-827 837,-827 831,-821 831,-815 831,-815 831,-786 831,-786 831,-780 837,-774 843,-774 843,-774 904,-774 904,-774 910,-774 916,-780 916,-786 916,-786 916,-815 916,-815 916,-821 910,-827 904,-827"/>
<text text-anchor="middle" x="873.5" y="-811.8" font-family="helvetica" font-size="14.00">3</text>
<text text-anchor="middle" x="873.5" y="-796.8" font-family="helvetica" font-size="14.00">Prob: 0.5</text>
<text text-anchor="middle" x="873.5" y="-781.8" font-family="helvetica" font-size="14.00">Frac: 0.007</text>
</g>
<!-- 39&#45;&#45;40 -->
<g id="edge40" class="edge">
<title>39&#45;&#45;40</title>
<path fill="none" stroke="black" stroke-width="3" d="M793.04,-911.37C808.91,-889.71 836.37,-852.2 854.74,-827.12"/>
<text text-anchor="middle" x="849.5" y="-868.8" font-family="helvetica" font-size="14.00"> 1</text>
<text text-anchor="middle" x="849.5" y="-853.8" font-family="helvetica" font-size="14.00"> 4</text>
</g>
<!-- 41&#45;&#45;35 -->
<g id="edge41" class="edge">
<title>41&#45;&#45;35</title>
<path fill="none" stroke="black" stroke-width="3" d="M715.5,-1169.37C715.5,-1145.13 715.5,-1101.07 715.5,-1076.76"/>
<text text-anchor="middle" x="721.5" y="-1126.8" font-family="helvetica" font-size="14.00"> 1</text>
<text text-anchor="middle" x="721.5" y="-1111.8" font-family="helvetica" font-size="14.00"> 2</text>
</g>
<!-- 42 -->
<g id="node43" class="node">
<title>42</title>
<path fill="#9ac9af" stroke="black" stroke-width="3" d="M836.5,-1085C836.5,-1085 774.5,-1085 774.5,-1085 768.5,-1085 762.5,-1079 762.5,-1073 762.5,-1073 762.5,-1044 762.5,-1044 762.5,-1038 768.5,-1032 774.5,-1032 774.5,-1032 836.5,-1032 836.5,-1032 842.5,-1032 848.5,-1038 848.5,-1044 848.5,-1044 848.5,-1073 848.5,-1073 848.5,-1079 842.5,-1085 836.5,-1085"/>
<text text-anchor="middle" x="805.5" y="-1069.8" font-family="helvetica" font-size="14.00">2</text>
<text text-anchor="middle" x="805.5" y="-1054.8" font-family="helvetica" font-size="14.00">Prob: 0.333</text>
<text text-anchor="middle" x="805.5" y="-1039.8" font-family="helvetica" font-size="14.00">Frac: 0.099</text>
</g>
<!-- 41&#45;&#45;42 -->
<g id="edge42" class="edge">
<title>41&#45;&#45;42</title>
<path fill="none" stroke="black" stroke-width="3" d="M727.64,-1169.37C742.99,-1147.71 769.57,-1110.2 787.34,-1085.12"/>
<text text-anchor="middle" x="787.5" y="-1134.3" font-family="helvetica" font-size="14.00"> 3</text>
<text text-anchor="middle" x="787.5" y="-1119.3" font-family="helvetica" font-size="14.00"> 4</text>
<text text-anchor="middle" x="787.5" y="-1104.3" font-family="helvetica" font-size="14.00"> 5</text>
</g>
</g>
</svg>
