<?xml version="1.0" encoding="UTF-8" standalone="no"?>
<!DOCTYPE svg PUBLIC "-//W3C//DTD SVG 1.1//EN"
 "http://www.w3.org/Graphics/SVG/1.1/DTD/svg11.dtd">
<!-- Generated by graphviz version 2.44.0 (0)
 -->
<!-- Title: Tree Pages: 1 -->
<svg width="812pt" height="1011pt"
 viewBox="0.00 0.00 974.00 1213.50" xmlns="http://www.w3.org/2000/svg" xmlns:xlink="http://www.w3.org/1999/xlink">
<g id="graph0" class="graph" transform="scale(0.83 0.83) rotate(0) translate(4 1209.5)">
<title>Tree</title>
<!-- 0 -->
<g id="node1" class="node">
<title>0</title>
<path fill="#ffc155" stroke="black" stroke-width="3" d="M73,-698C73,-698 12,-698 12,-698 6,-698 0,-692 0,-686 0,-686 0,-657 0,-657 0,-651 6,-645 12,-645 12,-645 73,-645 73,-645 79,-645 85,-651 85,-657 85,-657 85,-686 85,-686 85,-692 79,-698 73,-698"/>
<text text-anchor="middle" x="42.5" y="-682.8" font-family="helvetica" font-size="14.00">1</text>
<text text-anchor="middle" x="42.5" y="-667.8" font-family="helvetica" font-size="14.00">Prob: 1.0</text>
<text text-anchor="middle" x="42.5" y="-652.8" font-family="helvetica" font-size="14.00">Frac: 0.076</text>
</g>
<!-- 1 -->
<g id="node2" class="node">
<title>1</title>
<g id="a_node2"><a xlink:href=".//ptsd33.svg" xlink:title="ptsd33">
<path fill="#fcc355" stroke="black" stroke-width="3" d="M162,-818.5C162,-818.5 129,-818.5 129,-818.5 123,-818.5 117,-812.5 117,-806.5 117,-806.5 117,-794.5 117,-794.5 117,-788.5 123,-782.5 129,-782.5 129,-782.5 162,-782.5 162,-782.5 168,-782.5 174,-788.5 174,-794.5 174,-794.5 174,-806.5 174,-806.5 174,-812.5 168,-818.5 162,-818.5"/>
<text text-anchor="middle" x="145.5" y="-796.8" font-family="helvetica" font-size="14.00">ptsd33</text>
</a>
</g>
</g>
<!-- 1&#45;&#45;0 -->
<g id="edge1" class="edge">
<title>1&#45;&#45;0</title>
<path fill="none" stroke="black" stroke-width="3" d="M131.61,-782.37C114.04,-760.71 83.62,-723.2 63.28,-698.12"/>
<text text-anchor="middle" x="124.5" y="-732.3" font-family="helvetica" font-size="14.00"> 1</text>
</g>
<!-- 2 -->
<g id="node3" class="node">
<title>2</title>
<path fill="#dbe055" stroke="black" stroke-width="3" d="M176,-698C176,-698 115,-698 115,-698 109,-698 103,-692 103,-686 103,-686 103,-657 103,-657 103,-651 109,-645 115,-645 115,-645 176,-645 176,-645 182,-645 188,-651 188,-657 188,-657 188,-686 188,-686 188,-692 182,-698 176,-698"/>
<text text-anchor="middle" x="145.5" y="-682.8" font-family="helvetica" font-size="14.00">1</text>
<text text-anchor="middle" x="145.5" y="-667.8" font-family="helvetica" font-size="14.00">Prob: 0.5</text>
<text text-anchor="middle" x="145.5" y="-652.8" font-family="helvetica" font-size="14.00">Frac: 0.007</text>
</g>
<!-- 1&#45;&#45;2 -->
<g id="edge2" class="edge">
<title>1&#45;&#45;2</title>
<path fill="none" stroke="black" stroke-width="3" d="M145.5,-782.37C145.5,-760.71 145.5,-723.2 145.5,-698.12"/>
<text text-anchor="middle" x="151.5" y="-739.8" font-family="helvetica" font-size="14.00"> 2</text>
<text text-anchor="middle" x="151.5" y="-724.8" font-family="helvetica" font-size="14.00"> 5</text>
</g>
<!-- 3 -->
<g id="node4" class="node">
<title>3</title>
<g id="a_node4"><a xlink:href=".//ptsd118.svg" xlink:title="ptsd118">
<path fill="#fac555" stroke="black" stroke-width="3" d="M259,-947.5C259,-947.5 218,-947.5 218,-947.5 212,-947.5 206,-941.5 206,-935.5 206,-935.5 206,-923.5 206,-923.5 206,-917.5 212,-911.5 218,-911.5 218,-911.5 259,-911.5 259,-911.5 265,-911.5 271,-917.5 271,-923.5 271,-923.5 271,-935.5 271,-935.5 271,-941.5 265,-947.5 259,-947.5"/>
<text text-anchor="middle" x="238.5" y="-925.8" font-family="helvetica" font-size="14.00">ptsd118</text>
</a>
</g>
</g>
<!-- 3&#45;&#45;1 -->
<g id="edge3" class="edge">
<title>3&#45;&#45;1</title>
<path fill="none" stroke="black" stroke-width="3" d="M225.96,-911.37C208.21,-887.13 175.94,-843.07 158.14,-818.76"/>
<text text-anchor="middle" x="214.5" y="-861.3" font-family="helvetica" font-size="14.00"> 1</text>
</g>
<!-- 4 -->
<g id="node5" class="node">
<title>4</title>
<path fill="#edd055" stroke="black" stroke-width="3" d="M269,-827C269,-827 208,-827 208,-827 202,-827 196,-821 196,-815 196,-815 196,-786 196,-786 196,-780 202,-774 208,-774 208,-774 269,-774 269,-774 275,-774 281,-780 281,-786 281,-786 281,-815 281,-815 281,-821 275,-827 269,-827"/>
<text text-anchor="middle" x="238.5" y="-811.8" font-family="helvetica" font-size="14.00">1</text>
<text text-anchor="middle" x="238.5" y="-796.8" font-family="helvetica" font-size="14.00">Prob: 0.75</text>
<text text-anchor="middle" x="238.5" y="-781.8" font-family="helvetica" font-size="14.00">Frac: 0.013</text>
</g>
<!-- 3&#45;&#45;4 -->
<g id="edge4" class="edge">
<title>3&#45;&#45;4</title>
<path fill="none" stroke="black" stroke-width="3" d="M238.5,-911.37C238.5,-889.71 238.5,-852.2 238.5,-827.12"/>
<text text-anchor="middle" x="244.5" y="-868.8" font-family="helvetica" font-size="14.00"> 2</text>
<text text-anchor="middle" x="244.5" y="-853.8" font-family="helvetica" font-size="14.00"> 3</text>
</g>
<!-- 5 -->
<g id="node6" class="node">
<title>5</title>
<g id="a_node6"><a xlink:href=".//ptsd4.svg" xlink:title="ptsd4">
<path fill="#eccf57" stroke="black" stroke-width="3" d="M401.5,-1076.5C401.5,-1076.5 371.5,-1076.5 371.5,-1076.5 365.5,-1076.5 359.5,-1070.5 359.5,-1064.5 359.5,-1064.5 359.5,-1052.5 359.5,-1052.5 359.5,-1046.5 365.5,-1040.5 371.5,-1040.5 371.5,-1040.5 401.5,-1040.5 401.5,-1040.5 407.5,-1040.5 413.5,-1046.5 413.5,-1052.5 413.5,-1052.5 413.5,-1064.5 413.5,-1064.5 413.5,-1070.5 407.5,-1076.5 401.5,-1076.5"/>
<text text-anchor="middle" x="386.5" y="-1054.8" font-family="helvetica" font-size="14.00">ptsd4</text>
</a>
</g>
</g>
<!-- 5&#45;&#45;3 -->
<g id="edge5" class="edge">
<title>5&#45;&#45;3</title>
<path fill="none" stroke="black" stroke-width="3" d="M366.54,-1040.37C338.29,-1016.13 286.95,-972.07 258.62,-947.76"/>
<text text-anchor="middle" x="353.5" y="-990.3" font-family="helvetica" font-size="14.00"> 1</text>
</g>
<!-- 9 -->
<g id="node10" class="node">
<title>9</title>
<g id="a_node10"><a xlink:href=".//ptsd32.svg" xlink:title="ptsd32">
<path fill="#deda5a" stroke="black" stroke-width="3" d="M403,-947.5C403,-947.5 370,-947.5 370,-947.5 364,-947.5 358,-941.5 358,-935.5 358,-935.5 358,-923.5 358,-923.5 358,-917.5 364,-911.5 370,-911.5 370,-911.5 403,-911.5 403,-911.5 409,-911.5 415,-917.5 415,-923.5 415,-923.5 415,-935.5 415,-935.5 415,-941.5 409,-947.5 403,-947.5"/>
<text text-anchor="middle" x="386.5" y="-925.8" font-family="helvetica" font-size="14.00">ptsd32</text>
</a>
</g>
</g>
<!-- 5&#45;&#45;9 -->
<g id="edge6" class="edge">
<title>5&#45;&#45;9</title>
<path fill="none" stroke="black" stroke-width="3" d="M386.5,-1040.37C386.5,-1016.13 386.5,-972.07 386.5,-947.76"/>
<text text-anchor="middle" x="392.5" y="-1005.3" font-family="helvetica" font-size="14.00"> 2</text>
<text text-anchor="middle" x="392.5" y="-990.3" font-family="helvetica" font-size="14.00"> 3</text>
<text text-anchor="middle" x="392.5" y="-975.3" font-family="helvetica" font-size="14.00"> 4</text>
</g>
<!-- 6 -->
<g id="node7" class="node">
<title>6</title>
<path fill="#ffc155" stroke="black" stroke-width="3" d="M279,-698C279,-698 218,-698 218,-698 212,-698 206,-692 206,-686 206,-686 206,-657 206,-657 206,-651 212,-645 218,-645 218,-645 279,-645 279,-645 285,-645 291,-651 291,-657 291,-657 291,-686 291,-686 291,-692 285,-698 279,-698"/>
<text text-anchor="middle" x="248.5" y="-682.8" font-family="helvetica" font-size="14.00">1</text>
<text text-anchor="middle" x="248.5" y="-667.8" font-family="helvetica" font-size="14.00">Prob: 1.0</text>
<text text-anchor="middle" x="248.5" y="-652.8" font-family="helvetica" font-size="14.00">Frac: 0.043</text>
</g>
<!-- 7 -->
<g id="node8" class="node">
<title>7</title>
<g id="a_node8"><a xlink:href=".//ptsd200.svg" xlink:title="ptsd200">
<path fill="#f6c855" stroke="black" stroke-width="3" d="M360,-818.5C360,-818.5 319,-818.5 319,-818.5 313,-818.5 307,-812.5 307,-806.5 307,-806.5 307,-794.5 307,-794.5 307,-788.5 313,-782.5 319,-782.5 319,-782.5 360,-782.5 360,-782.5 366,-782.5 372,-788.5 372,-794.5 372,-794.5 372,-806.5 372,-806.5 372,-812.5 366,-818.5 360,-818.5"/>
<text text-anchor="middle" x="339.5" y="-796.8" font-family="helvetica" font-size="14.00">ptsd200</text>
</a>
</g>
</g>
<!-- 7&#45;&#45;6 -->
<g id="edge7" class="edge">
<title>7&#45;&#45;6</title>
<path fill="none" stroke="black" stroke-width="3" d="M327.23,-782.37C311.7,-760.71 284.83,-723.2 266.86,-698.12"/>
<text text-anchor="middle" x="321.5" y="-732.3" font-family="helvetica" font-size="14.00"> 1</text>
</g>
<!-- 8 -->
<g id="node9" class="node">
<title>8</title>
<path fill="#dbe055" stroke="black" stroke-width="3" d="M382,-698C382,-698 321,-698 321,-698 315,-698 309,-692 309,-686 309,-686 309,-657 309,-657 309,-651 315,-645 321,-645 321,-645 382,-645 382,-645 388,-645 394,-651 394,-657 394,-657 394,-686 394,-686 394,-692 388,-698 382,-698"/>
<text text-anchor="middle" x="351.5" y="-682.8" font-family="helvetica" font-size="14.00">1</text>
<text text-anchor="middle" x="351.5" y="-667.8" font-family="helvetica" font-size="14.00">Prob: 0.5</text>
<text text-anchor="middle" x="351.5" y="-652.8" font-family="helvetica" font-size="14.00">Frac: 0.013</text>
</g>
<!-- 7&#45;&#45;8 -->
<g id="edge8" class="edge">
<title>7&#45;&#45;8</title>
<path fill="none" stroke="black" stroke-width="3" d="M341.12,-782.37C343.17,-760.71 346.71,-723.2 349.08,-698.12"/>
<text text-anchor="middle" x="354.5" y="-739.8" font-family="helvetica" font-size="14.00"> 2</text>
<text text-anchor="middle" x="354.5" y="-724.8" font-family="helvetica" font-size="14.00"> 3</text>
</g>
<!-- 9&#45;&#45;7 -->
<g id="edge9" class="edge">
<title>9&#45;&#45;7</title>
<path fill="none" stroke="black" stroke-width="3" d="M380.16,-911.37C371.19,-887.13 354.89,-843.07 345.89,-818.76"/>
<text text-anchor="middle" x="377.5" y="-861.3" font-family="helvetica" font-size="14.00"> 1</text>
</g>
<!-- 10 -->
<g id="node11" class="node">
<title>10</title>
<path fill="#bbf463" stroke="black" stroke-width="3" d="M463,-827C463,-827 402,-827 402,-827 396,-827 390,-821 390,-815 390,-815 390,-786 390,-786 390,-780 396,-774 402,-774 402,-774 463,-774 463,-774 469,-774 475,-780 475,-786 475,-786 475,-815 475,-815 475,-821 469,-827 463,-827"/>
<text text-anchor="middle" x="432.5" y="-811.8" font-family="helvetica" font-size="14.00">2</text>
<text text-anchor="middle" x="432.5" y="-796.8" font-family="helvetica" font-size="14.00">Prob: 0.75</text>
<text text-anchor="middle" x="432.5" y="-781.8" font-family="helvetica" font-size="14.00">Frac: 0.039</text>
</g>
<!-- 9&#45;&#45;10 -->
<g id="edge10" class="edge">
<title>9&#45;&#45;10</title>
<path fill="none" stroke="black" stroke-width="3" d="M392.7,-911.37C400.55,-889.71 414.13,-852.2 423.22,-827.12"/>
<text text-anchor="middle" x="424.5" y="-868.8" font-family="helvetica" font-size="14.00"> 2</text>
<text text-anchor="middle" x="424.5" y="-853.8" font-family="helvetica" font-size="14.00"> 3</text>
</g>
<!-- 11 -->
<g id="node12" class="node">
<title>11</title>
<g id="a_node12"><a xlink:href=".//ptsd8.svg" xlink:title="ptsd8">
<path fill="#a2c8a8" stroke="black" stroke-width="3" d="M447.5,-1205.5C447.5,-1205.5 417.5,-1205.5 417.5,-1205.5 411.5,-1205.5 405.5,-1199.5 405.5,-1193.5 405.5,-1193.5 405.5,-1181.5 405.5,-1181.5 405.5,-1175.5 411.5,-1169.5 417.5,-1169.5 417.5,-1169.5 447.5,-1169.5 447.5,-1169.5 453.5,-1169.5 459.5,-1175.5 459.5,-1181.5 459.5,-1181.5 459.5,-1193.5 459.5,-1193.5 459.5,-1199.5 453.5,-1205.5 447.5,-1205.5"/>
<text text-anchor="middle" x="432.5" y="-1183.8" font-family="helvetica" font-size="14.00">ptsd8</text>
</a>
</g>
</g>
<!-- 11&#45;&#45;5 -->
<g id="edge11" class="edge">
<title>11&#45;&#45;5</title>
<path fill="none" stroke="black" stroke-width="3" d="M426.3,-1169.37C417.52,-1145.13 401.56,-1101.07 392.75,-1076.76"/>
<text text-anchor="middle" x="426.5" y="-1119.3" font-family="helvetica" font-size="14.00"> 1</text>
</g>
<!-- 41 -->
<g id="node42" class="node">
<title>41</title>
<g id="a_node42"><a xlink:href=".//ptsd41.svg" xlink:title="ptsd41">
<path fill="#91c6bb" stroke="black" stroke-width="3" d="M611,-1076.5C611,-1076.5 578,-1076.5 578,-1076.5 572,-1076.5 566,-1070.5 566,-1064.5 566,-1064.5 566,-1052.5 566,-1052.5 566,-1046.5 572,-1040.5 578,-1040.5 578,-1040.5 611,-1040.5 611,-1040.5 617,-1040.5 623,-1046.5 623,-1052.5 623,-1052.5 623,-1064.5 623,-1064.5 623,-1070.5 617,-1076.5 611,-1076.5"/>
<text text-anchor="middle" x="594.5" y="-1054.8" font-family="helvetica" font-size="14.00">ptsd41</text>
</a>
</g>
</g>
<!-- 11&#45;&#45;41 -->
<g id="edge12" class="edge">
<title>11&#45;&#45;41</title>
<path fill="none" stroke="black" stroke-width="3" d="M454.35,-1169.37C485.35,-1145.07 541.78,-1100.83 572.74,-1076.56"/>
<text text-anchor="middle" x="557.5" y="-1141.8" font-family="helvetica" font-size="14.00"> 2</text>
<text text-anchor="middle" x="557.5" y="-1126.8" font-family="helvetica" font-size="14.00"> 3</text>
<text text-anchor="middle" x="557.5" y="-1111.8" font-family="helvetica" font-size="14.00"> 4</text>
<text text-anchor="middle" x="557.5" y="-1096.8" font-family="helvetica" font-size="14.00"> 5</text>
</g>
<!-- 12 -->
<g id="node13" class="node">
<title>12</title>
<path fill="#a3ef8a" stroke="black" stroke-width="3" d="M293.5,-311C293.5,-311 231.5,-311 231.5,-311 225.5,-311 219.5,-305 219.5,-299 219.5,-299 219.5,-270 219.5,-270 219.5,-264 225.5,-258 231.5,-258 231.5,-258 293.5,-258 293.5,-258 299.5,-258 305.5,-264 305.5,-270 305.5,-270 305.5,-299 305.5,-299 305.5,-305 299.5,-311 293.5,-311"/>
<text text-anchor="middle" x="262.5" y="-295.8" font-family="helvetica" font-size="14.00">2</text>
<text text-anchor="middle" x="262.5" y="-280.8" font-family="helvetica" font-size="14.00">Prob: 0.539</text>
<text text-anchor="middle" x="262.5" y="-265.8" font-family="helvetica" font-size="14.00">Frac: 0.25</text>
</g>
<!-- 13 -->
<g id="node14" class="node">
<title>13</title>
<g id="a_node14"><a xlink:href=".//ptsd47.svg" xlink:title="ptsd47">
<path fill="#9dea98" stroke="black" stroke-width="3" d="M312,-431.5C312,-431.5 279,-431.5 279,-431.5 273,-431.5 267,-425.5 267,-419.5 267,-419.5 267,-407.5 267,-407.5 267,-401.5 273,-395.5 279,-395.5 279,-395.5 312,-395.5 312,-395.5 318,-395.5 324,-401.5 324,-407.5 324,-407.5 324,-419.5 324,-419.5 324,-425.5 318,-431.5 312,-431.5"/>
<text text-anchor="middle" x="295.5" y="-409.8" font-family="helvetica" font-size="14.00">ptsd47</text>
</a>
</g>
</g>
<!-- 13&#45;&#45;12 -->
<g id="edge13" class="edge">
<title>13&#45;&#45;12</title>
<path fill="none" stroke="black" stroke-width="3" d="M291.05,-395.37C285.42,-373.71 275.68,-336.2 269.16,-311.12"/>
<text text-anchor="middle" x="291.5" y="-345.3" font-family="helvetica" font-size="14.00"> 1</text>
</g>
<!-- 15 -->
<g id="node16" class="node">
<title>15</title>
<g id="a_node16"><a xlink:href=".//ptsd27.svg" xlink:title="ptsd27">
<path fill="#96e4aa" stroke="black" stroke-width="3" d="M369,-302.5C369,-302.5 336,-302.5 336,-302.5 330,-302.5 324,-296.5 324,-290.5 324,-290.5 324,-278.5 324,-278.5 324,-272.5 330,-266.5 336,-266.5 336,-266.5 369,-266.5 369,-266.5 375,-266.5 381,-272.5 381,-278.5 381,-278.5 381,-290.5 381,-290.5 381,-296.5 375,-302.5 369,-302.5"/>
<text text-anchor="middle" x="352.5" y="-280.8" font-family="helvetica" font-size="14.00">ptsd27</text>
</a>
</g>
</g>
<!-- 13&#45;&#45;15 -->
<g id="edge14" class="edge">
<title>13&#45;&#45;15</title>
<path fill="none" stroke="black" stroke-width="3" d="M303.19,-395.37C314.07,-371.13 333.84,-327.07 344.75,-302.76"/>
<text text-anchor="middle" x="340.5" y="-360.3" font-family="helvetica" font-size="14.00"> 2</text>
<text text-anchor="middle" x="340.5" y="-345.3" font-family="helvetica" font-size="14.00"> 3</text>
<text text-anchor="middle" x="340.5" y="-330.3" font-family="helvetica" font-size="14.00"> 4</text>
</g>
<!-- 14 -->
<g id="node15" class="node">
<title>14</title>
<path fill="#81d4e9" stroke="black" stroke-width="3" d="M351.5,-182C351.5,-182 289.5,-182 289.5,-182 283.5,-182 277.5,-176 277.5,-170 277.5,-170 277.5,-141 277.5,-141 277.5,-135 283.5,-129 289.5,-129 289.5,-129 351.5,-129 351.5,-129 357.5,-129 363.5,-135 363.5,-141 363.5,-141 363.5,-170 363.5,-170 363.5,-176 357.5,-182 351.5,-182"/>
<text text-anchor="middle" x="320.5" y="-166.8" font-family="helvetica" font-size="14.00">3</text>
<text text-anchor="middle" x="320.5" y="-151.8" font-family="helvetica" font-size="14.00">Prob: 0.625</text>
<text text-anchor="middle" x="320.5" y="-136.8" font-family="helvetica" font-size="14.00">Frac: 0.053</text>
</g>
<!-- 15&#45;&#45;14 -->
<g id="edge15" class="edge">
<title>15&#45;&#45;14</title>
<path fill="none" stroke="black" stroke-width="3" d="M348.18,-266.37C342.73,-244.71 333.28,-207.2 326.96,-182.12"/>
<text text-anchor="middle" x="348.5" y="-216.3" font-family="helvetica" font-size="14.00"> 3</text>
</g>
<!-- 17 -->
<g id="node18" class="node">
<title>17</title>
<g id="a_node18"><a xlink:href=".//ptsd208.svg" xlink:title="ptsd208">
<path fill="#9eea91" stroke="black" stroke-width="3" d="M435,-173.5C435,-173.5 394,-173.5 394,-173.5 388,-173.5 382,-167.5 382,-161.5 382,-161.5 382,-149.5 382,-149.5 382,-143.5 388,-137.5 394,-137.5 394,-137.5 435,-137.5 435,-137.5 441,-137.5 447,-143.5 447,-149.5 447,-149.5 447,-161.5 447,-161.5 447,-167.5 441,-173.5 435,-173.5"/>
<text text-anchor="middle" x="414.5" y="-151.8" font-family="helvetica" font-size="14.00">ptsd208</text>
</a>
</g>
</g>
<!-- 15&#45;&#45;17 -->
<g id="edge16" class="edge">
<title>15&#45;&#45;17</title>
<path fill="none" stroke="black" stroke-width="3" d="M360.86,-266.37C372.69,-242.13 394.2,-198.07 406.07,-173.76"/>
<text text-anchor="middle" x="400.5" y="-231.3" font-family="helvetica" font-size="14.00"> 1</text>
<text text-anchor="middle" x="400.5" y="-216.3" font-family="helvetica" font-size="14.00"> 2</text>
<text text-anchor="middle" x="400.5" y="-201.3" font-family="helvetica" font-size="14.00"> 4</text>
</g>
<!-- 16 -->
<g id="node17" class="node">
<title>16</title>
<path fill="#9eec8a" stroke="black" stroke-width="3" d="M393.5,-53C393.5,-53 331.5,-53 331.5,-53 325.5,-53 319.5,-47 319.5,-41 319.5,-41 319.5,-12 319.5,-12 319.5,-6 325.5,0 331.5,0 331.5,0 393.5,0 393.5,0 399.5,0 405.5,-6 405.5,-12 405.5,-12 405.5,-41 405.5,-41 405.5,-47 399.5,-53 393.5,-53"/>
<text text-anchor="middle" x="362.5" y="-37.8" font-family="helvetica" font-size="14.00">2</text>
<text text-anchor="middle" x="362.5" y="-22.8" font-family="helvetica" font-size="14.00">Prob: 0.605</text>
<text text-anchor="middle" x="362.5" y="-7.8" font-family="helvetica" font-size="14.00">Frac: 0.125</text>
</g>
<!-- 17&#45;&#45;16 -->
<g id="edge17" class="edge">
<title>17&#45;&#45;16</title>
<path fill="none" stroke="black" stroke-width="3" d="M407.49,-137.37C398.62,-115.71 383.26,-78.2 372.99,-53.12"/>
<text text-anchor="middle" x="404.5" y="-102.3" font-family="helvetica" font-size="14.00"> 1</text>
<text text-anchor="middle" x="404.5" y="-87.3" font-family="helvetica" font-size="14.00"> 2</text>
<text text-anchor="middle" x="404.5" y="-72.3" font-family="helvetica" font-size="14.00"> 4</text>
</g>
<!-- 18 -->
<g id="node19" class="node">
<title>18</title>
<path fill="#98d4d4" stroke="black" stroke-width="3" d="M497,-53C497,-53 436,-53 436,-53 430,-53 424,-47 424,-41 424,-41 424,-12 424,-12 424,-6 430,0 436,0 436,0 497,0 497,0 503,0 509,-6 509,-12 509,-12 509,-41 509,-41 509,-47 503,-53 497,-53"/>
<text text-anchor="middle" x="466.5" y="-37.8" font-family="helvetica" font-size="14.00">3</text>
<text text-anchor="middle" x="466.5" y="-22.8" font-family="helvetica" font-size="14.00">Prob: 0.5</text>
<text text-anchor="middle" x="466.5" y="-7.8" font-family="helvetica" font-size="14.00">Frac: 0.013</text>
</g>
<!-- 17&#45;&#45;18 -->
<g id="edge18" class="edge">
<title>17&#45;&#45;18</title>
<path fill="none" stroke="black" stroke-width="3" d="M421.51,-137.37C430.38,-115.71 445.74,-78.2 456.01,-53.12"/>
<text text-anchor="middle" x="456.5" y="-94.8" font-family="helvetica" font-size="14.00"> 3</text>
<text text-anchor="middle" x="456.5" y="-79.8" font-family="helvetica" font-size="14.00"> 5</text>
</g>
<!-- 19 -->
<g id="node20" class="node">
<title>19</title>
<g id="a_node20"><a xlink:href=".//ptsd47.svg" xlink:title="ptsd47">
<path fill="#9ee899" stroke="black" stroke-width="3" d="M402,-560.5C402,-560.5 369,-560.5 369,-560.5 363,-560.5 357,-554.5 357,-548.5 357,-548.5 357,-536.5 357,-536.5 357,-530.5 363,-524.5 369,-524.5 369,-524.5 402,-524.5 402,-524.5 408,-524.5 414,-530.5 414,-536.5 414,-536.5 414,-548.5 414,-548.5 414,-554.5 408,-560.5 402,-560.5"/>
<text text-anchor="middle" x="385.5" y="-538.8" font-family="helvetica" font-size="14.00">ptsd47</text>
</a>
</g>
</g>
<!-- 19&#45;&#45;13 -->
<g id="edge19" class="edge">
<title>19&#45;&#45;13</title>
<path fill="none" stroke="black" stroke-width="3" d="M373.36,-524.37C356.19,-500.13 324.96,-456.07 307.73,-431.76"/>
<text text-anchor="middle" x="367.5" y="-496.8" font-family="helvetica" font-size="14.00"> 1</text>
<text text-anchor="middle" x="367.5" y="-481.8" font-family="helvetica" font-size="14.00"> 2</text>
<text text-anchor="middle" x="367.5" y="-466.8" font-family="helvetica" font-size="14.00"> 3</text>
<text text-anchor="middle" x="367.5" y="-451.8" font-family="helvetica" font-size="14.00"> 4</text>
</g>
<!-- 20 -->
<g id="node21" class="node">
<title>20</title>
<path fill="#b08dc6" stroke="black" stroke-width="3" d="M416.5,-440C416.5,-440 354.5,-440 354.5,-440 348.5,-440 342.5,-434 342.5,-428 342.5,-428 342.5,-399 342.5,-399 342.5,-393 348.5,-387 354.5,-387 354.5,-387 416.5,-387 416.5,-387 422.5,-387 428.5,-393 428.5,-399 428.5,-399 428.5,-428 428.5,-428 428.5,-434 422.5,-440 416.5,-440"/>
<text text-anchor="middle" x="385.5" y="-424.8" font-family="helvetica" font-size="14.00">2</text>
<text text-anchor="middle" x="385.5" y="-409.8" font-family="helvetica" font-size="14.00">Prob: 0.333</text>
<text text-anchor="middle" x="385.5" y="-394.8" font-family="helvetica" font-size="14.00">Frac: 0.01</text>
</g>
<!-- 19&#45;&#45;20 -->
<g id="edge20" class="edge">
<title>19&#45;&#45;20</title>
<path fill="none" stroke="black" stroke-width="3" d="M385.5,-524.37C385.5,-502.71 385.5,-465.2 385.5,-440.12"/>
<text text-anchor="middle" x="391.5" y="-474.3" font-family="helvetica" font-size="14.00"> 5</text>
</g>
<!-- 21 -->
<g id="node22" class="node">
<title>21</title>
<g id="a_node22"><a xlink:href=".//ptsd41.svg" xlink:title="ptsd41">
<path fill="#93e0a9" stroke="black" stroke-width="3" d="M457,-689.5C457,-689.5 424,-689.5 424,-689.5 418,-689.5 412,-683.5 412,-677.5 412,-677.5 412,-665.5 412,-665.5 412,-659.5 418,-653.5 424,-653.5 424,-653.5 457,-653.5 457,-653.5 463,-653.5 469,-659.5 469,-665.5 469,-665.5 469,-677.5 469,-677.5 469,-683.5 463,-689.5 457,-689.5"/>
<text text-anchor="middle" x="440.5" y="-667.8" font-family="helvetica" font-size="14.00">ptsd41</text>
</a>
</g>
</g>
<!-- 21&#45;&#45;19 -->
<g id="edge21" class="edge">
<title>21&#45;&#45;19</title>
<path fill="none" stroke="black" stroke-width="3" d="M433.08,-653.37C422.59,-629.13 403.5,-585.07 392.98,-560.76"/>
<text text-anchor="middle" x="429.5" y="-610.8" font-family="helvetica" font-size="14.00"> 1</text>
<text text-anchor="middle" x="429.5" y="-595.8" font-family="helvetica" font-size="14.00"> 2</text>
</g>
<!-- 23 -->
<g id="node24" class="node">
<title>23</title>
<g id="a_node24"><a xlink:href=".//ptsd39.svg" xlink:title="ptsd39">
<path fill="#6fc4de" stroke="black" stroke-width="3" d="M506,-560.5C506,-560.5 473,-560.5 473,-560.5 467,-560.5 461,-554.5 461,-548.5 461,-548.5 461,-536.5 461,-536.5 461,-530.5 467,-524.5 473,-524.5 473,-524.5 506,-524.5 506,-524.5 512,-524.5 518,-530.5 518,-536.5 518,-536.5 518,-548.5 518,-548.5 518,-554.5 512,-560.5 506,-560.5"/>
<text text-anchor="middle" x="489.5" y="-538.8" font-family="helvetica" font-size="14.00">ptsd39</text>
</a>
</g>
</g>
<!-- 21&#45;&#45;23 -->
<g id="edge22" class="edge">
<title>21&#45;&#45;23</title>
<path fill="none" stroke="black" stroke-width="3" d="M447.11,-653.37C456.46,-629.13 473.46,-585.07 482.84,-560.76"/>
<text text-anchor="middle" x="480.5" y="-610.8" font-family="helvetica" font-size="14.00"> 3</text>
<text text-anchor="middle" x="480.5" y="-595.8" font-family="helvetica" font-size="14.00"> 4</text>
</g>
<!-- 22 -->
<g id="node23" class="node">
<title>22</title>
<path fill="#9fbcc6" stroke="black" stroke-width="3" d="M520.5,-440C520.5,-440 458.5,-440 458.5,-440 452.5,-440 446.5,-434 446.5,-428 446.5,-428 446.5,-399 446.5,-399 446.5,-393 452.5,-387 458.5,-387 458.5,-387 520.5,-387 520.5,-387 526.5,-387 532.5,-393 532.5,-399 532.5,-399 532.5,-428 532.5,-428 532.5,-434 526.5,-440 520.5,-440"/>
<text text-anchor="middle" x="489.5" y="-424.8" font-family="helvetica" font-size="14.00">3</text>
<text text-anchor="middle" x="489.5" y="-409.8" font-family="helvetica" font-size="14.00">Prob: 0.333</text>
<text text-anchor="middle" x="489.5" y="-394.8" font-family="helvetica" font-size="14.00">Frac: 0.02</text>
</g>
<!-- 23&#45;&#45;22 -->
<g id="edge23" class="edge">
<title>23&#45;&#45;22</title>
<path fill="none" stroke="black" stroke-width="3" d="M489.5,-524.37C489.5,-502.71 489.5,-465.2 489.5,-440.12"/>
<text text-anchor="middle" x="495.5" y="-481.8" font-family="helvetica" font-size="14.00"> 1</text>
<text text-anchor="middle" x="495.5" y="-466.8" font-family="helvetica" font-size="14.00"> 2</text>
</g>
<!-- 25 -->
<g id="node26" class="node">
<title>25</title>
<g id="a_node26"><a xlink:href=".//ptsd156.svg" xlink:title="ptsd156">
<path fill="#67c6e2" stroke="black" stroke-width="3" d="M604,-431.5C604,-431.5 563,-431.5 563,-431.5 557,-431.5 551,-425.5 551,-419.5 551,-419.5 551,-407.5 551,-407.5 551,-401.5 557,-395.5 563,-395.5 563,-395.5 604,-395.5 604,-395.5 610,-395.5 616,-401.5 616,-407.5 616,-407.5 616,-419.5 616,-419.5 616,-425.5 610,-431.5 604,-431.5"/>
<text text-anchor="middle" x="583.5" y="-409.8" font-family="helvetica" font-size="14.00">ptsd156</text>
</a>
</g>
</g>
<!-- 23&#45;&#45;25 -->
<g id="edge24" class="edge">
<title>23&#45;&#45;25</title>
<path fill="none" stroke="black" stroke-width="3" d="M502.18,-524.37C520.12,-500.13 552.73,-456.07 570.72,-431.76"/>
<text text-anchor="middle" x="564.5" y="-474.3" font-family="helvetica" font-size="14.00"> 3</text>
</g>
<!-- 24 -->
<g id="node25" class="node">
<title>24</title>
<path fill="#60ecec" stroke="black" stroke-width="3" d="M544.5,-311C544.5,-311 482.5,-311 482.5,-311 476.5,-311 470.5,-305 470.5,-299 470.5,-299 470.5,-270 470.5,-270 470.5,-264 476.5,-258 482.5,-258 482.5,-258 544.5,-258 544.5,-258 550.5,-258 556.5,-264 556.5,-270 556.5,-270 556.5,-299 556.5,-299 556.5,-305 550.5,-311 544.5,-311"/>
<text text-anchor="middle" x="513.5" y="-295.8" font-family="helvetica" font-size="14.00">3</text>
<text text-anchor="middle" x="513.5" y="-280.8" font-family="helvetica" font-size="14.00">Prob: 0.778</text>
<text text-anchor="middle" x="513.5" y="-265.8" font-family="helvetica" font-size="14.00">Frac: 0.059</text>
</g>
<!-- 25&#45;&#45;24 -->
<g id="edge25" class="edge">
<title>25&#45;&#45;24</title>
<path fill="none" stroke="black" stroke-width="3" d="M574.06,-395.37C562.12,-373.71 541.45,-336.2 527.62,-311.12"/>
<text text-anchor="middle" x="567.5" y="-352.8" font-family="helvetica" font-size="14.00"> 2</text>
<text text-anchor="middle" x="567.5" y="-337.8" font-family="helvetica" font-size="14.00"> 3</text>
</g>
<!-- 27 -->
<g id="node28" class="node">
<title>27</title>
<g id="a_node28"><a xlink:href=".//ptsd187.svg" xlink:title="ptsd187">
<path fill="#6da0d9" stroke="black" stroke-width="3" d="M628,-302.5C628,-302.5 587,-302.5 587,-302.5 581,-302.5 575,-296.5 575,-290.5 575,-290.5 575,-278.5 575,-278.5 575,-272.5 581,-266.5 587,-266.5 587,-266.5 628,-266.5 628,-266.5 634,-266.5 640,-272.5 640,-278.5 640,-278.5 640,-290.5 640,-290.5 640,-296.5 634,-302.5 628,-302.5"/>
<text text-anchor="middle" x="607.5" y="-280.8" font-family="helvetica" font-size="14.00">ptsd187</text>
</a>
</g>
</g>
<!-- 25&#45;&#45;27 -->
<g id="edge26" class="edge">
<title>25&#45;&#45;27</title>
<path fill="none" stroke="black" stroke-width="3" d="M586.74,-395.37C591.32,-371.13 599.64,-327.07 604.24,-302.76"/>
<text text-anchor="middle" x="606.5" y="-352.8" font-family="helvetica" font-size="14.00"> 1</text>
<text text-anchor="middle" x="606.5" y="-337.8" font-family="helvetica" font-size="14.00"> 4</text>
</g>
<!-- 26 -->
<g id="node27" class="node">
<title>26</title>
<path fill="#88bfaa" stroke="black" stroke-width="3" d="M575,-182C575,-182 514,-182 514,-182 508,-182 502,-176 502,-170 502,-170 502,-141 502,-141 502,-135 508,-129 514,-129 514,-129 575,-129 575,-129 581,-129 587,-135 587,-141 587,-141 587,-170 587,-170 587,-176 581,-182 575,-182"/>
<text text-anchor="middle" x="544.5" y="-166.8" font-family="helvetica" font-size="14.00">2</text>
<text text-anchor="middle" x="544.5" y="-151.8" font-family="helvetica" font-size="14.00">Prob: 0.5</text>
<text text-anchor="middle" x="544.5" y="-136.8" font-family="helvetica" font-size="14.00">Frac: 0.026</text>
</g>
<!-- 27&#45;&#45;26 -->
<g id="edge27" class="edge">
<title>27&#45;&#45;26</title>
<path fill="none" stroke="black" stroke-width="3" d="M599,-266.37C588.26,-244.71 569.65,-207.2 557.21,-182.12"/>
<text text-anchor="middle" x="593.5" y="-223.8" font-family="helvetica" font-size="14.00"> 1</text>
<text text-anchor="middle" x="593.5" y="-208.8" font-family="helvetica" font-size="14.00"> 2</text>
</g>
<!-- 28 -->
<g id="node29" class="node">
<title>28</title>
<path fill="#5888ff" stroke="black" stroke-width="3" d="M678,-182C678,-182 617,-182 617,-182 611,-182 605,-176 605,-170 605,-170 605,-141 605,-141 605,-135 611,-129 617,-129 617,-129 678,-129 678,-129 684,-129 690,-135 690,-141 690,-141 690,-170 690,-170 690,-176 684,-182 678,-182"/>
<text text-anchor="middle" x="647.5" y="-166.8" font-family="helvetica" font-size="14.00">4</text>
<text text-anchor="middle" x="647.5" y="-151.8" font-family="helvetica" font-size="14.00">Prob: 0.7</text>
<text text-anchor="middle" x="647.5" y="-136.8" font-family="helvetica" font-size="14.00">Frac: 0.033</text>
</g>
<!-- 27&#45;&#45;28 -->
<g id="edge28" class="edge">
<title>27&#45;&#45;28</title>
<path fill="none" stroke="black" stroke-width="3" d="M612.89,-266.37C619.72,-244.71 631.53,-207.2 639.43,-182.12"/>
<text text-anchor="middle" x="641.5" y="-223.8" font-family="helvetica" font-size="14.00"> 3</text>
<text text-anchor="middle" x="641.5" y="-208.8" font-family="helvetica" font-size="14.00"> 4</text>
</g>
<!-- 29 -->
<g id="node30" class="node">
<title>29</title>
<g id="a_node30"><a xlink:href=".//ptsd155.svg" xlink:title="ptsd155">
<path fill="#94deaa" stroke="black" stroke-width="3" d="M550,-818.5C550,-818.5 509,-818.5 509,-818.5 503,-818.5 497,-812.5 497,-806.5 497,-806.5 497,-794.5 497,-794.5 497,-788.5 503,-782.5 509,-782.5 509,-782.5 550,-782.5 550,-782.5 556,-782.5 562,-788.5 562,-794.5 562,-794.5 562,-806.5 562,-806.5 562,-812.5 556,-818.5 550,-818.5"/>
<text text-anchor="middle" x="529.5" y="-796.8" font-family="helvetica" font-size="14.00">ptsd155</text>
</a>
</g>
</g>
<!-- 29&#45;&#45;21 -->
<g id="edge29" class="edge">
<title>29&#45;&#45;21</title>
<path fill="none" stroke="black" stroke-width="3" d="M517.5,-782.37C500.51,-758.13 469.63,-714.07 452.6,-689.76"/>
<text text-anchor="middle" x="512.5" y="-754.8" font-family="helvetica" font-size="14.00"> 1</text>
<text text-anchor="middle" x="512.5" y="-739.8" font-family="helvetica" font-size="14.00"> 2</text>
<text text-anchor="middle" x="512.5" y="-724.8" font-family="helvetica" font-size="14.00"> 3</text>
<text text-anchor="middle" x="512.5" y="-709.8" font-family="helvetica" font-size="14.00"> 4</text>
</g>
<!-- 30 -->
<g id="node31" class="node">
<title>30</title>
<path fill="#ff55ff" stroke="black" stroke-width="3" d="M560,-698C560,-698 499,-698 499,-698 493,-698 487,-692 487,-686 487,-686 487,-657 487,-657 487,-651 493,-645 499,-645 499,-645 560,-645 560,-645 566,-645 572,-651 572,-657 572,-657 572,-686 572,-686 572,-692 566,-698 560,-698"/>
<text text-anchor="middle" x="529.5" y="-682.8" font-family="helvetica" font-size="14.00">5</text>
<text text-anchor="middle" x="529.5" y="-667.8" font-family="helvetica" font-size="14.00">Prob: 1.0</text>
<text text-anchor="middle" x="529.5" y="-652.8" font-family="helvetica" font-size="14.00">Frac: 0.007</text>
</g>
<!-- 29&#45;&#45;30 -->
<g id="edge30" class="edge">
<title>29&#45;&#45;30</title>
<path fill="none" stroke="black" stroke-width="3" d="M529.5,-782.37C529.5,-760.71 529.5,-723.2 529.5,-698.12"/>
<text text-anchor="middle" x="535.5" y="-732.3" font-family="helvetica" font-size="14.00"> 5</text>
</g>
<!-- 31 -->
<g id="node32" class="node">
<title>31</title>
<g id="a_node32"><a xlink:href=".//ptsd39.svg" xlink:title="ptsd39">
<path fill="#8ecab8" stroke="black" stroke-width="3" d="M611,-947.5C611,-947.5 578,-947.5 578,-947.5 572,-947.5 566,-941.5 566,-935.5 566,-935.5 566,-923.5 566,-923.5 566,-917.5 572,-911.5 578,-911.5 578,-911.5 611,-911.5 611,-911.5 617,-911.5 623,-917.5 623,-923.5 623,-923.5 623,-935.5 623,-935.5 623,-941.5 617,-947.5 611,-947.5"/>
<text text-anchor="middle" x="594.5" y="-925.8" font-family="helvetica" font-size="14.00">ptsd39</text>
</a>
</g>
</g>
<!-- 31&#45;&#45;29 -->
<g id="edge31" class="edge">
<title>31&#45;&#45;29</title>
<path fill="none" stroke="black" stroke-width="3" d="M585.73,-911.37C573.33,-887.13 550.78,-843.07 538.33,-818.76"/>
<text text-anchor="middle" x="579.5" y="-876.3" font-family="helvetica" font-size="14.00"> 1</text>
<text text-anchor="middle" x="579.5" y="-861.3" font-family="helvetica" font-size="14.00"> 2</text>
<text text-anchor="middle" x="579.5" y="-846.3" font-family="helvetica" font-size="14.00"> 3</text>
</g>
<!-- 33 -->
<g id="node34" class="node">
<title>33</title>
<g id="a_node34"><a xlink:href=".//ptsd41.svg" xlink:title="ptsd41">
<path fill="#7d88e8" stroke="black" stroke-width="3" d="M650,-818.5C650,-818.5 617,-818.5 617,-818.5 611,-818.5 605,-812.5 605,-806.5 605,-806.5 605,-794.5 605,-794.5 605,-788.5 611,-782.5 617,-782.5 617,-782.5 650,-782.5 650,-782.5 656,-782.5 662,-788.5 662,-794.5 662,-794.5 662,-806.5 662,-806.5 662,-812.5 656,-818.5 650,-818.5"/>
<text text-anchor="middle" x="633.5" y="-796.8" font-family="helvetica" font-size="14.00">ptsd41</text>
</a>
</g>
</g>
<!-- 31&#45;&#45;33 -->
<g id="edge32" class="edge">
<title>31&#45;&#45;33</title>
<path fill="none" stroke="black" stroke-width="3" d="M599.76,-911.37C607.2,-887.13 620.73,-843.07 628.2,-818.76"/>
<text text-anchor="middle" x="627.5" y="-861.3" font-family="helvetica" font-size="14.00"> 4</text>
</g>
<!-- 32 -->
<g id="node33" class="node">
<title>32</title>
<path fill="#ff9d8d" stroke="black" stroke-width="3" d="M664.5,-698C664.5,-698 602.5,-698 602.5,-698 596.5,-698 590.5,-692 590.5,-686 590.5,-686 590.5,-657 590.5,-657 590.5,-651 596.5,-645 602.5,-645 602.5,-645 664.5,-645 664.5,-645 670.5,-645 676.5,-651 676.5,-657 676.5,-657 676.5,-686 676.5,-686 676.5,-692 670.5,-698 664.5,-698"/>
<text text-anchor="middle" x="633.5" y="-682.8" font-family="helvetica" font-size="14.00">1</text>
<text text-anchor="middle" x="633.5" y="-667.8" font-family="helvetica" font-size="14.00">Prob: 0.667</text>
<text text-anchor="middle" x="633.5" y="-652.8" font-family="helvetica" font-size="14.00">Frac: 0.01</text>
</g>
<!-- 33&#45;&#45;32 -->
<g id="edge33" class="edge">
<title>33&#45;&#45;32</title>
<path fill="none" stroke="black" stroke-width="3" d="M633.5,-782.37C633.5,-760.71 633.5,-723.2 633.5,-698.12"/>
<text text-anchor="middle" x="639.5" y="-732.3" font-family="helvetica" font-size="14.00"> 1</text>
</g>
<!-- 39 -->
<g id="node40" class="node">
<title>39</title>
<g id="a_node40"><a xlink:href=".//ptsd113.svg" xlink:title="ptsd113">
<path fill="#7587ee" stroke="black" stroke-width="3" d="M748,-689.5C748,-689.5 707,-689.5 707,-689.5 701,-689.5 695,-683.5 695,-677.5 695,-677.5 695,-665.5 695,-665.5 695,-659.5 701,-653.5 707,-653.5 707,-653.5 748,-653.5 748,-653.5 754,-653.5 760,-659.5 760,-665.5 760,-665.5 760,-677.5 760,-677.5 760,-683.5 754,-689.5 748,-689.5"/>
<text text-anchor="middle" x="727.5" y="-667.8" font-family="helvetica" font-size="14.00">ptsd113</text>
</a>
</g>
</g>
<!-- 33&#45;&#45;39 -->
<g id="edge34" class="edge">
<title>33&#45;&#45;39</title>
<path fill="none" stroke="black" stroke-width="3" d="M646.18,-782.37C664.12,-758.13 696.73,-714.07 714.72,-689.76"/>
<text text-anchor="middle" x="708.5" y="-747.3" font-family="helvetica" font-size="14.00"> 2</text>
<text text-anchor="middle" x="708.5" y="-732.3" font-family="helvetica" font-size="14.00"> 3</text>
<text text-anchor="middle" x="708.5" y="-717.3" font-family="helvetica" font-size="14.00"> 4</text>
</g>
<!-- 34 -->
<g id="node35" class="node">
<title>34</title>
<path fill="#8f8dff" stroke="black" stroke-width="3" d="M714.5,-440C714.5,-440 652.5,-440 652.5,-440 646.5,-440 640.5,-434 640.5,-428 640.5,-428 640.5,-399 640.5,-399 640.5,-393 646.5,-387 652.5,-387 652.5,-387 714.5,-387 714.5,-387 720.5,-387 726.5,-393 726.5,-399 726.5,-399 726.5,-428 726.5,-428 726.5,-434 720.5,-440 714.5,-440"/>
<text text-anchor="middle" x="683.5" y="-424.8" font-family="helvetica" font-size="14.00">3</text>
<text text-anchor="middle" x="683.5" y="-409.8" font-family="helvetica" font-size="14.00">Prob: 0.333</text>
<text text-anchor="middle" x="683.5" y="-394.8" font-family="helvetica" font-size="14.00">Frac: 0.01</text>
</g>
<!-- 35 -->
<g id="node36" class="node">
<title>35</title>
<g id="a_node36"><a xlink:href=".//ptsd65.svg" xlink:title="ptsd65">
<path fill="#656df6" stroke="black" stroke-width="3" d="M717,-560.5C717,-560.5 684,-560.5 684,-560.5 678,-560.5 672,-554.5 672,-548.5 672,-548.5 672,-536.5 672,-536.5 672,-530.5 678,-524.5 684,-524.5 684,-524.5 717,-524.5 717,-524.5 723,-524.5 729,-530.5 729,-536.5 729,-536.5 729,-548.5 729,-548.5 729,-554.5 723,-560.5 717,-560.5"/>
<text text-anchor="middle" x="700.5" y="-538.8" font-family="helvetica" font-size="14.00">ptsd65</text>
</a>
</g>
</g>
<!-- 35&#45;&#45;34 -->
<g id="edge35" class="edge">
<title>35&#45;&#45;34</title>
<path fill="none" stroke="black" stroke-width="3" d="M698.21,-524.37C695.31,-502.71 690.29,-465.2 686.93,-440.12"/>
<text text-anchor="middle" x="702.5" y="-481.8" font-family="helvetica" font-size="14.00"> 1</text>
<text text-anchor="middle" x="702.5" y="-466.8" font-family="helvetica" font-size="14.00"> 2</text>
</g>
<!-- 37 -->
<g id="node38" class="node">
<title>37</title>
<g id="a_node38"><a xlink:href=".//ptsd97.svg" xlink:title="ptsd97">
<path fill="#5e67f5" stroke="black" stroke-width="3" d="M790,-431.5C790,-431.5 757,-431.5 757,-431.5 751,-431.5 745,-425.5 745,-419.5 745,-419.5 745,-407.5 745,-407.5 745,-401.5 751,-395.5 757,-395.5 757,-395.5 790,-395.5 790,-395.5 796,-395.5 802,-401.5 802,-407.5 802,-407.5 802,-419.5 802,-419.5 802,-425.5 796,-431.5 790,-431.5"/>
<text text-anchor="middle" x="773.5" y="-409.8" font-family="helvetica" font-size="14.00">ptsd97</text>
</a>
</g>
</g>
<!-- 35&#45;&#45;37 -->
<g id="edge36" class="edge">
<title>35&#45;&#45;37</title>
<path fill="none" stroke="black" stroke-width="3" d="M710.35,-524.37C724.28,-500.13 749.6,-456.07 763.58,-431.76"/>
<text text-anchor="middle" x="760.5" y="-481.8" font-family="helvetica" font-size="14.00"> 3</text>
<text text-anchor="middle" x="760.5" y="-466.8" font-family="helvetica" font-size="14.00"> 4</text>
</g>
<!-- 36 -->
<g id="node37" class="node">
<title>36</title>
<path fill="#70aad4" stroke="black" stroke-width="3" d="M767,-311C767,-311 706,-311 706,-311 700,-311 694,-305 694,-299 694,-299 694,-270 694,-270 694,-264 700,-258 706,-258 706,-258 767,-258 767,-258 773,-258 779,-264 779,-270 779,-270 779,-299 779,-299 779,-305 773,-311 767,-311"/>
<text text-anchor="middle" x="736.5" y="-295.8" font-family="helvetica" font-size="14.00">4</text>
<text text-anchor="middle" x="736.5" y="-280.8" font-family="helvetica" font-size="14.00">Prob: 0.5</text>
<text text-anchor="middle" x="736.5" y="-265.8" font-family="helvetica" font-size="14.00">Frac: 0.013</text>
</g>
<!-- 37&#45;&#45;36 -->
<g id="edge37" class="edge">
<title>37&#45;&#45;36</title>
<path fill="none" stroke="black" stroke-width="3" d="M768.51,-395.37C762.2,-373.71 751.27,-336.2 743.97,-311.12"/>
<text text-anchor="middle" x="768.5" y="-352.8" font-family="helvetica" font-size="14.00"> 2</text>
<text text-anchor="middle" x="768.5" y="-337.8" font-family="helvetica" font-size="14.00"> 3</text>
</g>
<!-- 38 -->
<g id="node39" class="node">
<title>38</title>
<path fill="#5a55ff" stroke="black" stroke-width="3" d="M870,-311C870,-311 809,-311 809,-311 803,-311 797,-305 797,-299 797,-299 797,-270 797,-270 797,-264 803,-258 809,-258 809,-258 870,-258 870,-258 876,-258 882,-264 882,-270 882,-270 882,-299 882,-299 882,-305 876,-311 870,-311"/>
<text text-anchor="middle" x="839.5" y="-295.8" font-family="helvetica" font-size="14.00">4</text>
<text text-anchor="middle" x="839.5" y="-280.8" font-family="helvetica" font-size="14.00">Prob: 1.0</text>
<text text-anchor="middle" x="839.5" y="-265.8" font-family="helvetica" font-size="14.00">Frac: 0.046</text>
</g>
<!-- 37&#45;&#45;38 -->
<g id="edge38" class="edge">
<title>37&#45;&#45;38</title>
<path fill="none" stroke="black" stroke-width="3" d="M782.4,-395.37C793.66,-373.71 813.15,-336.2 826.18,-311.12"/>
<text text-anchor="middle" x="824.5" y="-360.3" font-family="helvetica" font-size="14.00"> 1</text>
<text text-anchor="middle" x="824.5" y="-345.3" font-family="helvetica" font-size="14.00"> 4</text>
<text text-anchor="middle" x="824.5" y="-330.3" font-family="helvetica" font-size="14.00"> 5</text>
</g>
<!-- 39&#45;&#45;35 -->
<g id="edge39" class="edge">
<title>39&#45;&#45;35</title>
<path fill="none" stroke="black" stroke-width="3" d="M723.86,-653.37C718.71,-629.13 709.34,-585.07 704.17,-560.76"/>
<text text-anchor="middle" x="725.5" y="-610.8" font-family="helvetica" font-size="14.00"> 2</text>
<text text-anchor="middle" x="725.5" y="-595.8" font-family="helvetica" font-size="14.00"> 4</text>
</g>
<!-- 40 -->
<g id="node41" class="node">
<title>40</title>
<path fill="#8099e8" stroke="black" stroke-width="3" d="M821.5,-569C821.5,-569 759.5,-569 759.5,-569 753.5,-569 747.5,-563 747.5,-557 747.5,-557 747.5,-528 747.5,-528 747.5,-522 753.5,-516 759.5,-516 759.5,-516 821.5,-516 821.5,-516 827.5,-516 833.5,-522 833.5,-528 833.5,-528 833.5,-557 833.5,-557 833.5,-563 827.5,-569 821.5,-569"/>
<text text-anchor="middle" x="790.5" y="-553.8" font-family="helvetica" font-size="14.00">4</text>
<text text-anchor="middle" x="790.5" y="-538.8" font-family="helvetica" font-size="14.00">Prob: 0.433</text>
<text text-anchor="middle" x="790.5" y="-523.8" font-family="helvetica" font-size="14.00">Frac: 0.099</text>
</g>
<!-- 39&#45;&#45;40 -->
<g id="edge40" class="edge">
<title>39&#45;&#45;40</title>
<path fill="none" stroke="black" stroke-width="3" d="M736,-653.37C746.74,-631.71 765.35,-594.2 777.79,-569.12"/>
<text text-anchor="middle" x="776.5" y="-618.3" font-family="helvetica" font-size="14.00"> 1</text>
<text text-anchor="middle" x="776.5" y="-603.3" font-family="helvetica" font-size="14.00"> 3</text>
<text text-anchor="middle" x="776.5" y="-588.3" font-family="helvetica" font-size="14.00"> 5</text>
</g>
<!-- 41&#45;&#45;31 -->
<g id="edge41" class="edge">
<title>41&#45;&#45;31</title>
<path fill="none" stroke="black" stroke-width="3" d="M594.5,-1040.37C594.5,-1016.13 594.5,-972.07 594.5,-947.76"/>
<text text-anchor="middle" x="600.5" y="-1012.8" font-family="helvetica" font-size="14.00"> 1</text>
<text text-anchor="middle" x="600.5" y="-997.8" font-family="helvetica" font-size="14.00"> 2</text>
<text text-anchor="middle" x="600.5" y="-982.8" font-family="helvetica" font-size="14.00"> 3</text>
<text text-anchor="middle" x="600.5" y="-967.8" font-family="helvetica" font-size="14.00"> 4</text>
</g>
<!-- 45 -->
<g id="node46" class="node">
<title>45</title>
<g id="a_node46"><a xlink:href=".//ptsd115.svg" xlink:title="ptsd115">
<path fill="#c264ff" stroke="black" stroke-width="3" d="M841,-947.5C841,-947.5 800,-947.5 800,-947.5 794,-947.5 788,-941.5 788,-935.5 788,-935.5 788,-923.5 788,-923.5 788,-917.5 794,-911.5 800,-911.5 800,-911.5 841,-911.5 841,-911.5 847,-911.5 853,-917.5 853,-923.5 853,-923.5 853,-935.5 853,-935.5 853,-941.5 847,-947.5 841,-947.5"/>
<text text-anchor="middle" x="820.5" y="-925.8" font-family="helvetica" font-size="14.00">ptsd115</text>
</a>
</g>
</g>
<!-- 41&#45;&#45;45 -->
<g id="edge42" class="edge">
<title>41&#45;&#45;45</title>
<path fill="none" stroke="black" stroke-width="3" d="M623.12,-1041.42C665.88,-1017.39 746.09,-972.31 789.95,-947.67"/>
<text text-anchor="middle" x="766.5" y="-990.3" font-family="helvetica" font-size="14.00"> 5</text>
</g>
<!-- 42 -->
<g id="node43" class="node">
<title>42</title>
<path fill="#5a55ff" stroke="black" stroke-width="3" d="M851,-698C851,-698 790,-698 790,-698 784,-698 778,-692 778,-686 778,-686 778,-657 778,-657 778,-651 784,-645 790,-645 790,-645 851,-645 851,-645 857,-645 863,-651 863,-657 863,-657 863,-686 863,-686 863,-692 857,-698 851,-698"/>
<text text-anchor="middle" x="820.5" y="-682.8" font-family="helvetica" font-size="14.00">4</text>
<text text-anchor="middle" x="820.5" y="-667.8" font-family="helvetica" font-size="14.00">Prob: 1.0</text>
<text text-anchor="middle" x="820.5" y="-652.8" font-family="helvetica" font-size="14.00">Frac: 0.007</text>
</g>
<!-- 43 -->
<g id="node44" class="node">
<title>43</title>
<g id="a_node44"><a xlink:href=".//ptsd97.svg" xlink:title="ptsd97">
<path fill="#da55ff" stroke="black" stroke-width="3" d="M837,-818.5C837,-818.5 804,-818.5 804,-818.5 798,-818.5 792,-812.5 792,-806.5 792,-806.5 792,-794.5 792,-794.5 792,-788.5 798,-782.5 804,-782.5 804,-782.5 837,-782.5 837,-782.5 843,-782.5 849,-788.5 849,-794.5 849,-794.5 849,-806.5 849,-806.5 849,-812.5 843,-818.5 837,-818.5"/>
<text text-anchor="middle" x="820.5" y="-796.8" font-family="helvetica" font-size="14.00">ptsd97</text>
</a>
</g>
</g>
<!-- 43&#45;&#45;42 -->
<g id="edge43" class="edge">
<title>43&#45;&#45;42</title>
<path fill="none" stroke="black" stroke-width="3" d="M820.5,-782.37C820.5,-760.71 820.5,-723.2 820.5,-698.12"/>
<text text-anchor="middle" x="826.5" y="-739.8" font-family="helvetica" font-size="14.00"> 2</text>
<text text-anchor="middle" x="826.5" y="-724.8" font-family="helvetica" font-size="14.00"> 4</text>
</g>
<!-- 44 -->
<g id="node45" class="node">
<title>44</title>
<path fill="#ff55ff" stroke="black" stroke-width="3" d="M954,-698C954,-698 893,-698 893,-698 887,-698 881,-692 881,-686 881,-686 881,-657 881,-657 881,-651 887,-645 893,-645 893,-645 954,-645 954,-645 960,-645 966,-651 966,-657 966,-657 966,-686 966,-686 966,-692 960,-698 954,-698"/>
<text text-anchor="middle" x="923.5" y="-682.8" font-family="helvetica" font-size="14.00">5</text>
<text text-anchor="middle" x="923.5" y="-667.8" font-family="helvetica" font-size="14.00">Prob: 1.0</text>
<text text-anchor="middle" x="923.5" y="-652.8" font-family="helvetica" font-size="14.00">Frac: 0.023</text>
</g>
<!-- 43&#45;&#45;44 -->
<g id="edge44" class="edge">
<title>43&#45;&#45;44</title>
<path fill="none" stroke="black" stroke-width="3" d="M834.39,-782.37C851.96,-760.71 882.38,-723.2 902.72,-698.12"/>
<text text-anchor="middle" x="902.5" y="-732.3" font-family="helvetica" font-size="14.00"> 5</text>
</g>
<!-- 45&#45;&#45;43 -->
<g id="edge45" class="edge">
<title>45&#45;&#45;43</title>
<path fill="none" stroke="black" stroke-width="3" d="M820.5,-911.37C820.5,-887.13 820.5,-843.07 820.5,-818.76"/>
<text text-anchor="middle" x="826.5" y="-861.3" font-family="helvetica" font-size="14.00"> 1</text>
</g>
<!-- 46 -->
<g id="node47" class="node">
<title>46</title>
<path fill="#57aaff" stroke="black" stroke-width="3" d="M940,-827C940,-827 879,-827 879,-827 873,-827 867,-821 867,-815 867,-815 867,-786 867,-786 867,-780 873,-774 879,-774 879,-774 940,-774 940,-774 946,-774 952,-780 952,-786 952,-786 952,-815 952,-815 952,-821 946,-827 940,-827"/>
<text text-anchor="middle" x="909.5" y="-811.8" font-family="helvetica" font-size="14.00">3</text>
<text text-anchor="middle" x="909.5" y="-796.8" font-family="helvetica" font-size="14.00">Prob: 0.5</text>
<text text-anchor="middle" x="909.5" y="-781.8" font-family="helvetica" font-size="14.00">Frac: 0.007</text>
</g>
<!-- 45&#45;&#45;46 -->
<g id="edge46" class="edge">
<title>45&#45;&#45;46</title>
<path fill="none" stroke="black" stroke-width="3" d="M832.5,-911.37C847.69,-889.71 873.97,-852.2 891.54,-827.12"/>
<text text-anchor="middle" x="887.5" y="-868.8" font-family="helvetica" font-size="14.00"> 2</text>
<text text-anchor="middle" x="887.5" y="-853.8" font-family="helvetica" font-size="14.00"> 4</text>
</g>
</g>
</svg>
