<?xml version="1.0" encoding="UTF-8" standalone="no"?>
<!DOCTYPE svg PUBLIC "-//W3C//DTD SVG 1.1//EN"
 "http://www.w3.org/Graphics/SVG/1.1/DTD/svg11.dtd">
<!-- Generated by graphviz version 2.44.0 (0)
 -->
<!-- Title: Tree Pages: 1 -->
<svg width="732pt" height="904pt"
 viewBox="0.00 0.00 878.50 1084.50" xmlns="http://www.w3.org/2000/svg" xmlns:xlink="http://www.w3.org/1999/xlink">
<g id="graph0" class="graph" transform="scale(0.83 0.83) rotate(0) translate(4 1080.5)">
<title>Tree</title>
<!-- 0 -->
<g id="node1" class="node">
<title>0</title>
<path fill="#6aff55" stroke="black" stroke-width="3" d="M73,-698C73,-698 12,-698 12,-698 6,-698 0,-692 0,-686 0,-686 0,-657 0,-657 0,-651 6,-645 12,-645 12,-645 73,-645 73,-645 79,-645 85,-651 85,-657 85,-657 85,-686 85,-686 85,-692 79,-698 73,-698"/>
<text text-anchor="middle" x="42.5" y="-682.8" font-family="helvetica" font-size="14.00">2</text>
<text text-anchor="middle" x="42.5" y="-667.8" font-family="helvetica" font-size="14.00">Prob: 1.0</text>
<text text-anchor="middle" x="42.5" y="-652.8" font-family="helvetica" font-size="14.00">Frac: 0.013</text>
</g>
<!-- 1 -->
<g id="node2" class="node">
<title>1</title>
<g id="a_node2"><a xlink:href=".//ptsd175.svg" xlink:title="ptsd175">
<path fill="#79f085" stroke="black" stroke-width="3" d="M167,-818.5C167,-818.5 126,-818.5 126,-818.5 120,-818.5 114,-812.5 114,-806.5 114,-806.5 114,-794.5 114,-794.5 114,-788.5 120,-782.5 126,-782.5 126,-782.5 167,-782.5 167,-782.5 173,-782.5 179,-788.5 179,-794.5 179,-794.5 179,-806.5 179,-806.5 179,-812.5 173,-818.5 167,-818.5"/>
<text text-anchor="middle" x="146.5" y="-796.8" font-family="helvetica" font-size="14.00">ptsd175</text>
</a>
</g>
</g>
<!-- 1&#45;&#45;0 -->
<g id="edge1" class="edge">
<title>1&#45;&#45;0</title>
<path fill="none" stroke="black" stroke-width="3" d="M132.47,-782.37C114.73,-760.71 84.02,-723.2 63.48,-698.12"/>
<text text-anchor="middle" x="125.5" y="-732.3" font-family="helvetica" font-size="14.00"> 2</text>
</g>
<!-- 2 -->
<g id="node3" class="node">
<title>2</title>
<path fill="#8dddc6" stroke="black" stroke-width="3" d="M177.5,-698C177.5,-698 115.5,-698 115.5,-698 109.5,-698 103.5,-692 103.5,-686 103.5,-686 103.5,-657 103.5,-657 103.5,-651 109.5,-645 115.5,-645 115.5,-645 177.5,-645 177.5,-645 183.5,-645 189.5,-651 189.5,-657 189.5,-657 189.5,-686 189.5,-686 189.5,-692 183.5,-698 177.5,-698"/>
<text text-anchor="middle" x="146.5" y="-682.8" font-family="helvetica" font-size="14.00">3</text>
<text text-anchor="middle" x="146.5" y="-667.8" font-family="helvetica" font-size="14.00">Prob: 0.667</text>
<text text-anchor="middle" x="146.5" y="-652.8" font-family="helvetica" font-size="14.00">Frac: 0.01</text>
</g>
<!-- 1&#45;&#45;2 -->
<g id="edge2" class="edge">
<title>1&#45;&#45;2</title>
<path fill="none" stroke="black" stroke-width="3" d="M146.5,-782.37C146.5,-760.71 146.5,-723.2 146.5,-698.12"/>
<text text-anchor="middle" x="152.5" y="-739.8" font-family="helvetica" font-size="14.00"> 1</text>
<text text-anchor="middle" x="152.5" y="-724.8" font-family="helvetica" font-size="14.00"> 5</text>
</g>
<!-- 3 -->
<g id="node4" class="node">
<title>3</title>
<g id="a_node4"><a xlink:href=".//ptsd190.svg" xlink:title="ptsd190">
<path fill="#e3ca5d" stroke="black" stroke-width="3" d="M262,-947.5C262,-947.5 221,-947.5 221,-947.5 215,-947.5 209,-941.5 209,-935.5 209,-935.5 209,-923.5 209,-923.5 209,-917.5 215,-911.5 221,-911.5 221,-911.5 262,-911.5 262,-911.5 268,-911.5 274,-917.5 274,-923.5 274,-923.5 274,-935.5 274,-935.5 274,-941.5 268,-947.5 262,-947.5"/>
<text text-anchor="middle" x="241.5" y="-925.8" font-family="helvetica" font-size="14.00">ptsd190</text>
</a>
</g>
</g>
<!-- 3&#45;&#45;1 -->
<g id="edge3" class="edge">
<title>3&#45;&#45;1</title>
<path fill="none" stroke="black" stroke-width="3" d="M228.69,-911.37C210.56,-887.13 177.6,-843.07 159.41,-818.76"/>
<text text-anchor="middle" x="217.5" y="-868.8" font-family="helvetica" font-size="14.00"> 2</text>
<text text-anchor="middle" x="217.5" y="-853.8" font-family="helvetica" font-size="14.00"> 3</text>
</g>
<!-- 4 -->
<g id="node5" class="node">
<title>4</title>
<path fill="#e7c95b" stroke="black" stroke-width="3" d="M272.5,-827C272.5,-827 210.5,-827 210.5,-827 204.5,-827 198.5,-821 198.5,-815 198.5,-815 198.5,-786 198.5,-786 198.5,-780 204.5,-774 210.5,-774 210.5,-774 272.5,-774 272.5,-774 278.5,-774 284.5,-780 284.5,-786 284.5,-786 284.5,-815 284.5,-815 284.5,-821 278.5,-827 272.5,-827"/>
<text text-anchor="middle" x="241.5" y="-811.8" font-family="helvetica" font-size="14.00">1</text>
<text text-anchor="middle" x="241.5" y="-796.8" font-family="helvetica" font-size="14.00">Prob: 0.839</text>
<text text-anchor="middle" x="241.5" y="-781.8" font-family="helvetica" font-size="14.00">Frac: 0.655</text>
</g>
<!-- 3&#45;&#45;4 -->
<g id="edge4" class="edge">
<title>3&#45;&#45;4</title>
<path fill="none" stroke="black" stroke-width="3" d="M241.5,-911.37C241.5,-889.71 241.5,-852.2 241.5,-827.12"/>
<text text-anchor="middle" x="247.5" y="-868.8" font-family="helvetica" font-size="14.00"> 1</text>
<text text-anchor="middle" x="247.5" y="-853.8" font-family="helvetica" font-size="14.00"> 4</text>
</g>
<!-- 5 -->
<g id="node6" class="node">
<title>5</title>
<g id="a_node6"><a xlink:href=".//ptsd161.svg" xlink:title="ptsd161">
<path fill="#c2ce7e" stroke="black" stroke-width="3" d="M308,-1076.5C308,-1076.5 267,-1076.5 267,-1076.5 261,-1076.5 255,-1070.5 255,-1064.5 255,-1064.5 255,-1052.5 255,-1052.5 255,-1046.5 261,-1040.5 267,-1040.5 267,-1040.5 308,-1040.5 308,-1040.5 314,-1040.5 320,-1046.5 320,-1052.5 320,-1052.5 320,-1064.5 320,-1064.5 320,-1070.5 314,-1076.5 308,-1076.5"/>
<text text-anchor="middle" x="287.5" y="-1054.8" font-family="helvetica" font-size="14.00">ptsd161</text>
</a>
</g>
</g>
<!-- 5&#45;&#45;3 -->
<g id="edge5" class="edge">
<title>5&#45;&#45;3</title>
<path fill="none" stroke="black" stroke-width="3" d="M281.3,-1040.37C272.52,-1016.13 256.56,-972.07 247.75,-947.76"/>
<text text-anchor="middle" x="281.5" y="-990.3" font-family="helvetica" font-size="14.00"> 1</text>
</g>
<!-- 33 -->
<g id="node34" class="node">
<title>33</title>
<g id="a_node34"><a xlink:href=".//ptsd193.svg" xlink:title="ptsd193">
<path fill="#7ed6c4" stroke="black" stroke-width="3" d="M357,-947.5C357,-947.5 316,-947.5 316,-947.5 310,-947.5 304,-941.5 304,-935.5 304,-935.5 304,-923.5 304,-923.5 304,-917.5 310,-911.5 316,-911.5 316,-911.5 357,-911.5 357,-911.5 363,-911.5 369,-917.5 369,-923.5 369,-923.5 369,-935.5 369,-935.5 369,-941.5 363,-947.5 357,-947.5"/>
<text text-anchor="middle" x="336.5" y="-925.8" font-family="helvetica" font-size="14.00">ptsd193</text>
</a>
</g>
</g>
<!-- 5&#45;&#45;33 -->
<g id="edge6" class="edge">
<title>5&#45;&#45;33</title>
<path fill="none" stroke="black" stroke-width="3" d="M294.11,-1040.37C303.46,-1016.13 320.46,-972.07 329.84,-947.76"/>
<text text-anchor="middle" x="329.5" y="-1012.8" font-family="helvetica" font-size="14.00"> 2</text>
<text text-anchor="middle" x="329.5" y="-997.8" font-family="helvetica" font-size="14.00"> 3</text>
<text text-anchor="middle" x="329.5" y="-982.8" font-family="helvetica" font-size="14.00"> 4</text>
<text text-anchor="middle" x="329.5" y="-967.8" font-family="helvetica" font-size="14.00"> 5</text>
</g>
<!-- 6 -->
<g id="node7" class="node">
<title>6</title>
<path fill="#ffc155" stroke="black" stroke-width="3" d="M178,-569C178,-569 125,-569 125,-569 119,-569 113,-563 113,-557 113,-557 113,-528 113,-528 113,-522 119,-516 125,-516 125,-516 178,-516 178,-516 184,-516 190,-522 190,-528 190,-528 190,-557 190,-557 190,-563 184,-569 178,-569"/>
<text text-anchor="middle" x="151.5" y="-553.8" font-family="helvetica" font-size="14.00">1</text>
<text text-anchor="middle" x="151.5" y="-538.8" font-family="helvetica" font-size="14.00">Prob: 1.0</text>
<text text-anchor="middle" x="151.5" y="-523.8" font-family="helvetica" font-size="14.00">Frac: 0.01</text>
</g>
<!-- 7 -->
<g id="node8" class="node">
<title>7</title>
<g id="a_node8"><a xlink:href=".//ptsd179.svg" xlink:title="ptsd179">
<path fill="#7ff366" stroke="black" stroke-width="3" d="M261,-689.5C261,-689.5 220,-689.5 220,-689.5 214,-689.5 208,-683.5 208,-677.5 208,-677.5 208,-665.5 208,-665.5 208,-659.5 214,-653.5 220,-653.5 220,-653.5 261,-653.5 261,-653.5 267,-653.5 273,-659.5 273,-665.5 273,-665.5 273,-677.5 273,-677.5 273,-683.5 267,-689.5 261,-689.5"/>
<text text-anchor="middle" x="240.5" y="-667.8" font-family="helvetica" font-size="14.00">ptsd179</text>
</a>
</g>
</g>
<!-- 7&#45;&#45;6 -->
<g id="edge7" class="edge">
<title>7&#45;&#45;6</title>
<path fill="none" stroke="black" stroke-width="3" d="M228.5,-653.37C213.31,-631.71 187.03,-594.2 169.46,-569.12"/>
<text text-anchor="middle" x="223.5" y="-603.3" font-family="helvetica" font-size="14.00"> 1</text>
</g>
<!-- 11 -->
<g id="node12" class="node">
<title>11</title>
<g id="a_node12"><a xlink:href=".//ptsd121.svg" xlink:title="ptsd121">
<path fill="#67fc6a" stroke="black" stroke-width="3" d="M261,-560.5C261,-560.5 220,-560.5 220,-560.5 214,-560.5 208,-554.5 208,-548.5 208,-548.5 208,-536.5 208,-536.5 208,-530.5 214,-524.5 220,-524.5 220,-524.5 261,-524.5 261,-524.5 267,-524.5 273,-530.5 273,-536.5 273,-536.5 273,-548.5 273,-548.5 273,-554.5 267,-560.5 261,-560.5"/>
<text text-anchor="middle" x="240.5" y="-538.8" font-family="helvetica" font-size="14.00">ptsd121</text>
</a>
</g>
</g>
<!-- 7&#45;&#45;11 -->
<g id="edge8" class="edge">
<title>7&#45;&#45;11</title>
<path fill="none" stroke="black" stroke-width="3" d="M240.5,-653.37C240.5,-629.13 240.5,-585.07 240.5,-560.76"/>
<text text-anchor="middle" x="246.5" y="-618.3" font-family="helvetica" font-size="14.00"> 2</text>
<text text-anchor="middle" x="246.5" y="-603.3" font-family="helvetica" font-size="14.00"> 3</text>
<text text-anchor="middle" x="246.5" y="-588.3" font-family="helvetica" font-size="14.00"> 4</text>
</g>
<!-- 8 -->
<g id="node9" class="node">
<title>8</title>
<path fill="#6aff55" stroke="black" stroke-width="3" d="M121,-311C121,-311 60,-311 60,-311 54,-311 48,-305 48,-299 48,-299 48,-270 48,-270 48,-264 54,-258 60,-258 60,-258 121,-258 121,-258 127,-258 133,-264 133,-270 133,-270 133,-299 133,-299 133,-305 127,-311 121,-311"/>
<text text-anchor="middle" x="90.5" y="-295.8" font-family="helvetica" font-size="14.00">2</text>
<text text-anchor="middle" x="90.5" y="-280.8" font-family="helvetica" font-size="14.00">Prob: 1.0</text>
<text text-anchor="middle" x="90.5" y="-265.8" font-family="helvetica" font-size="14.00">Frac: 0.007</text>
</g>
<!-- 9 -->
<g id="node10" class="node">
<title>9</title>
<g id="a_node10"><a xlink:href=".//ptsd206.svg" xlink:title="ptsd206">
<path fill="#63f88d" stroke="black" stroke-width="3" d="M167,-431.5C167,-431.5 126,-431.5 126,-431.5 120,-431.5 114,-425.5 114,-419.5 114,-419.5 114,-407.5 114,-407.5 114,-401.5 120,-395.5 126,-395.5 126,-395.5 167,-395.5 167,-395.5 173,-395.5 179,-401.5 179,-407.5 179,-407.5 179,-419.5 179,-419.5 179,-425.5 173,-431.5 167,-431.5"/>
<text text-anchor="middle" x="146.5" y="-409.8" font-family="helvetica" font-size="14.00">ptsd206</text>
</a>
</g>
</g>
<!-- 9&#45;&#45;8 -->
<g id="edge9" class="edge">
<title>9&#45;&#45;8</title>
<path fill="none" stroke="black" stroke-width="3" d="M138.95,-395.37C129.39,-373.71 112.86,-336.2 101.8,-311.12"/>
<text text-anchor="middle" x="134.5" y="-345.3" font-family="helvetica" font-size="14.00"> 2</text>
</g>
<!-- 10 -->
<g id="node11" class="node">
<title>10</title>
<path fill="#5ff5aa" stroke="black" stroke-width="3" d="M224,-311C224,-311 163,-311 163,-311 157,-311 151,-305 151,-299 151,-299 151,-270 151,-270 151,-264 157,-258 163,-258 163,-258 224,-258 224,-258 230,-258 236,-264 236,-270 236,-270 236,-299 236,-299 236,-305 230,-311 224,-311"/>
<text text-anchor="middle" x="193.5" y="-295.8" font-family="helvetica" font-size="14.00">2</text>
<text text-anchor="middle" x="193.5" y="-280.8" font-family="helvetica" font-size="14.00">Prob: 0.5</text>
<text text-anchor="middle" x="193.5" y="-265.8" font-family="helvetica" font-size="14.00">Frac: 0.013</text>
</g>
<!-- 9&#45;&#45;10 -->
<g id="edge10" class="edge">
<title>9&#45;&#45;10</title>
<path fill="none" stroke="black" stroke-width="3" d="M152.84,-395.37C160.86,-373.71 174.74,-336.2 184.02,-311.12"/>
<text text-anchor="middle" x="184.5" y="-352.8" font-family="helvetica" font-size="14.00"> 1</text>
<text text-anchor="middle" x="184.5" y="-337.8" font-family="helvetica" font-size="14.00"> 3</text>
</g>
<!-- 11&#45;&#45;9 -->
<g id="edge11" class="edge">
<title>11&#45;&#45;9</title>
<path fill="none" stroke="black" stroke-width="3" d="M227.82,-524.37C209.88,-500.13 177.27,-456.07 159.28,-431.76"/>
<text text-anchor="middle" x="221.5" y="-481.8" font-family="helvetica" font-size="14.00"> 1</text>
<text text-anchor="middle" x="221.5" y="-466.8" font-family="helvetica" font-size="14.00"> 3</text>
</g>
<!-- 12 -->
<g id="node13" class="node">
<title>12</title>
<path fill="#6aff55" stroke="black" stroke-width="3" d="M270,-440C270,-440 209,-440 209,-440 203,-440 197,-434 197,-428 197,-428 197,-399 197,-399 197,-393 203,-387 209,-387 209,-387 270,-387 270,-387 276,-387 282,-393 282,-399 282,-399 282,-428 282,-428 282,-434 276,-440 270,-440"/>
<text text-anchor="middle" x="239.5" y="-424.8" font-family="helvetica" font-size="14.00">2</text>
<text text-anchor="middle" x="239.5" y="-409.8" font-family="helvetica" font-size="14.00">Prob: 1.0</text>
<text text-anchor="middle" x="239.5" y="-394.8" font-family="helvetica" font-size="14.00">Frac: 0.033</text>
</g>
<!-- 11&#45;&#45;12 -->
<g id="edge12" class="edge">
<title>11&#45;&#45;12</title>
<path fill="none" stroke="black" stroke-width="3" d="M240.37,-524.37C240.19,-502.71 239.9,-465.2 239.7,-440.12"/>
<text text-anchor="middle" x="246.5" y="-481.8" font-family="helvetica" font-size="14.00"> 2</text>
<text text-anchor="middle" x="246.5" y="-466.8" font-family="helvetica" font-size="14.00"> 4</text>
</g>
<!-- 13 -->
<g id="node14" class="node">
<title>13</title>
<g id="a_node14"><a xlink:href=".//ptsd136.svg" xlink:title="ptsd136">
<path fill="#8cceb7" stroke="black" stroke-width="3" d="M357,-818.5C357,-818.5 316,-818.5 316,-818.5 310,-818.5 304,-812.5 304,-806.5 304,-806.5 304,-794.5 304,-794.5 304,-788.5 310,-782.5 316,-782.5 316,-782.5 357,-782.5 357,-782.5 363,-782.5 369,-788.5 369,-794.5 369,-794.5 369,-806.5 369,-806.5 369,-812.5 363,-818.5 357,-818.5"/>
<text text-anchor="middle" x="336.5" y="-796.8" font-family="helvetica" font-size="14.00">ptsd136</text>
</a>
</g>
</g>
<!-- 13&#45;&#45;7 -->
<g id="edge13" class="edge">
<title>13&#45;&#45;7</title>
<path fill="none" stroke="black" stroke-width="3" d="M323.55,-782.37C305.23,-758.13 271.93,-714.07 253.55,-689.76"/>
<text text-anchor="middle" x="317.5" y="-732.3" font-family="helvetica" font-size="14.00"> 2</text>
</g>
<!-- 21 -->
<g id="node22" class="node">
<title>21</title>
<g id="a_node22"><a xlink:href=".//ptsd197.svg" xlink:title="ptsd197">
<path fill="#91c0d4" stroke="black" stroke-width="3" d="M359,-689.5C359,-689.5 318,-689.5 318,-689.5 312,-689.5 306,-683.5 306,-677.5 306,-677.5 306,-665.5 306,-665.5 306,-659.5 312,-653.5 318,-653.5 318,-653.5 359,-653.5 359,-653.5 365,-653.5 371,-659.5 371,-665.5 371,-665.5 371,-677.5 371,-677.5 371,-683.5 365,-689.5 359,-689.5"/>
<text text-anchor="middle" x="338.5" y="-667.8" font-family="helvetica" font-size="14.00">ptsd197</text>
</a>
</g>
</g>
<!-- 13&#45;&#45;21 -->
<g id="edge14" class="edge">
<title>13&#45;&#45;21</title>
<path fill="none" stroke="black" stroke-width="3" d="M336.77,-782.37C337.15,-758.13 337.85,-714.07 338.23,-689.76"/>
<text text-anchor="middle" x="344.5" y="-754.8" font-family="helvetica" font-size="14.00"> 1</text>
<text text-anchor="middle" x="344.5" y="-739.8" font-family="helvetica" font-size="14.00"> 3</text>
<text text-anchor="middle" x="344.5" y="-724.8" font-family="helvetica" font-size="14.00"> 4</text>
<text text-anchor="middle" x="344.5" y="-709.8" font-family="helvetica" font-size="14.00"> 5</text>
</g>
<!-- 14 -->
<g id="node15" class="node">
<title>14</title>
<path fill="#55ebff" stroke="black" stroke-width="3" d="M373,-440C373,-440 312,-440 312,-440 306,-440 300,-434 300,-428 300,-428 300,-399 300,-399 300,-393 306,-387 312,-387 312,-387 373,-387 373,-387 379,-387 385,-393 385,-399 385,-399 385,-428 385,-428 385,-434 379,-440 373,-440"/>
<text text-anchor="middle" x="342.5" y="-424.8" font-family="helvetica" font-size="14.00">3</text>
<text text-anchor="middle" x="342.5" y="-409.8" font-family="helvetica" font-size="14.00">Prob: 1.0</text>
<text text-anchor="middle" x="342.5" y="-394.8" font-family="helvetica" font-size="14.00">Frac: 0.007</text>
</g>
<!-- 15 -->
<g id="node16" class="node">
<title>15</title>
<g id="a_node16"><a xlink:href=".//ptsd61.svg" xlink:title="ptsd61">
<path fill="#af9bff" stroke="black" stroke-width="3" d="M359,-560.5C359,-560.5 326,-560.5 326,-560.5 320,-560.5 314,-554.5 314,-548.5 314,-548.5 314,-536.5 314,-536.5 314,-530.5 320,-524.5 326,-524.5 326,-524.5 359,-524.5 359,-524.5 365,-524.5 371,-530.5 371,-536.5 371,-536.5 371,-548.5 371,-548.5 371,-554.5 365,-560.5 359,-560.5"/>
<text text-anchor="middle" x="342.5" y="-538.8" font-family="helvetica" font-size="14.00">ptsd61</text>
</a>
</g>
</g>
<!-- 15&#45;&#45;14 -->
<g id="edge15" class="edge">
<title>15&#45;&#45;14</title>
<path fill="none" stroke="black" stroke-width="3" d="M342.5,-524.37C342.5,-502.71 342.5,-465.2 342.5,-440.12"/>
<text text-anchor="middle" x="348.5" y="-481.8" font-family="helvetica" font-size="14.00"> 1</text>
<text text-anchor="middle" x="348.5" y="-466.8" font-family="helvetica" font-size="14.00"> 3</text>
</g>
<!-- 17 -->
<g id="node18" class="node">
<title>17</title>
<g id="a_node18"><a xlink:href=".//ptsd61.svg" xlink:title="ptsd61">
<path fill="#bd8eff" stroke="black" stroke-width="3" d="M448,-431.5C448,-431.5 415,-431.5 415,-431.5 409,-431.5 403,-425.5 403,-419.5 403,-419.5 403,-407.5 403,-407.5 403,-401.5 409,-395.5 415,-395.5 415,-395.5 448,-395.5 448,-395.5 454,-395.5 460,-401.5 460,-407.5 460,-407.5 460,-419.5 460,-419.5 460,-425.5 454,-431.5 448,-431.5"/>
<text text-anchor="middle" x="431.5" y="-409.8" font-family="helvetica" font-size="14.00">ptsd61</text>
</a>
</g>
</g>
<!-- 15&#45;&#45;17 -->
<g id="edge16" class="edge">
<title>15&#45;&#45;17</title>
<path fill="none" stroke="black" stroke-width="3" d="M354.5,-524.37C371.49,-500.13 402.37,-456.07 419.4,-431.76"/>
<text text-anchor="middle" x="414.5" y="-481.8" font-family="helvetica" font-size="14.00"> 4</text>
<text text-anchor="middle" x="414.5" y="-466.8" font-family="helvetica" font-size="14.00"> 5</text>
</g>
<!-- 16 -->
<g id="node17" class="node">
<title>16</title>
<path fill="#55ebff" stroke="black" stroke-width="3" d="M373,-311C373,-311 312,-311 312,-311 306,-311 300,-305 300,-299 300,-299 300,-270 300,-270 300,-264 306,-258 312,-258 312,-258 373,-258 373,-258 379,-258 385,-264 385,-270 385,-270 385,-299 385,-299 385,-305 379,-311 373,-311"/>
<text text-anchor="middle" x="342.5" y="-295.8" font-family="helvetica" font-size="14.00">3</text>
<text text-anchor="middle" x="342.5" y="-280.8" font-family="helvetica" font-size="14.00">Prob: 1.0</text>
<text text-anchor="middle" x="342.5" y="-265.8" font-family="helvetica" font-size="14.00">Frac: 0.013</text>
</g>
<!-- 17&#45;&#45;16 -->
<g id="edge17" class="edge">
<title>17&#45;&#45;16</title>
<path fill="none" stroke="black" stroke-width="3" d="M419.5,-395.37C404.31,-373.71 378.03,-336.2 360.46,-311.12"/>
<text text-anchor="middle" x="409.5" y="-345.3" font-family="helvetica" font-size="14.00"> 4</text>
</g>
<!-- 19 -->
<g id="node20" class="node">
<title>19</title>
<g id="a_node20"><a xlink:href=".//ptsd19.svg" xlink:title="ptsd19">
<path fill="#ec65ff" stroke="black" stroke-width="3" d="M448,-302.5C448,-302.5 415,-302.5 415,-302.5 409,-302.5 403,-296.5 403,-290.5 403,-290.5 403,-278.5 403,-278.5 403,-272.5 409,-266.5 415,-266.5 415,-266.5 448,-266.5 448,-266.5 454,-266.5 460,-272.5 460,-278.5 460,-278.5 460,-290.5 460,-290.5 460,-296.5 454,-302.5 448,-302.5"/>
<text text-anchor="middle" x="431.5" y="-280.8" font-family="helvetica" font-size="14.00">ptsd19</text>
</a>
</g>
</g>
<!-- 17&#45;&#45;19 -->
<g id="edge18" class="edge">
<title>17&#45;&#45;19</title>
<path fill="none" stroke="black" stroke-width="3" d="M431.5,-395.37C431.5,-371.13 431.5,-327.07 431.5,-302.76"/>
<text text-anchor="middle" x="437.5" y="-345.3" font-family="helvetica" font-size="14.00"> 5</text>
</g>
<!-- 18 -->
<g id="node19" class="node">
<title>18</title>
<path fill="#ff55ff" stroke="black" stroke-width="3" d="M359,-182C359,-182 298,-182 298,-182 292,-182 286,-176 286,-170 286,-170 286,-141 286,-141 286,-135 292,-129 298,-129 298,-129 359,-129 359,-129 365,-129 371,-135 371,-141 371,-141 371,-170 371,-170 371,-176 365,-182 359,-182"/>
<text text-anchor="middle" x="328.5" y="-166.8" font-family="helvetica" font-size="14.00">4</text>
<text text-anchor="middle" x="328.5" y="-151.8" font-family="helvetica" font-size="14.00">Prob: 1.0</text>
<text text-anchor="middle" x="328.5" y="-136.8" font-family="helvetica" font-size="14.00">Frac: 0.023</text>
</g>
<!-- 19&#45;&#45;18 -->
<g id="edge19" class="edge">
<title>19&#45;&#45;18</title>
<path fill="none" stroke="black" stroke-width="3" d="M417.61,-266.37C400.04,-244.71 369.62,-207.2 349.28,-182.12"/>
<text text-anchor="middle" x="404.5" y="-216.3" font-family="helvetica" font-size="14.00"> 4</text>
</g>
<!-- 20 -->
<g id="node21" class="node">
<title>20</title>
<path fill="#aaa0ff" stroke="black" stroke-width="3" d="M462,-182C462,-182 401,-182 401,-182 395,-182 389,-176 389,-170 389,-170 389,-141 389,-141 389,-135 395,-129 401,-129 401,-129 462,-129 462,-129 468,-129 474,-135 474,-141 474,-141 474,-170 474,-170 474,-176 468,-182 462,-182"/>
<text text-anchor="middle" x="431.5" y="-166.8" font-family="helvetica" font-size="14.00">3</text>
<text text-anchor="middle" x="431.5" y="-151.8" font-family="helvetica" font-size="14.00">Prob: 0.5</text>
<text text-anchor="middle" x="431.5" y="-136.8" font-family="helvetica" font-size="14.00">Frac: 0.007</text>
</g>
<!-- 19&#45;&#45;20 -->
<g id="edge20" class="edge">
<title>19&#45;&#45;20</title>
<path fill="none" stroke="black" stroke-width="3" d="M431.5,-266.37C431.5,-244.71 431.5,-207.2 431.5,-182.12"/>
<text text-anchor="middle" x="437.5" y="-223.8" font-family="helvetica" font-size="14.00"> 3</text>
<text text-anchor="middle" x="437.5" y="-208.8" font-family="helvetica" font-size="14.00"> 5</text>
</g>
<!-- 21&#45;&#45;15 -->
<g id="edge21" class="edge">
<title>21&#45;&#45;15</title>
<path fill="none" stroke="black" stroke-width="3" d="M339.04,-653.37C339.8,-629.13 341.19,-585.07 341.96,-560.76"/>
<text text-anchor="middle" x="347.5" y="-603.3" font-family="helvetica" font-size="14.00"> 4</text>
</g>
<!-- 23 -->
<g id="node24" class="node">
<title>23</title>
<g id="a_node24"><a xlink:href=".//ptsd152.svg" xlink:title="ptsd152">
<path fill="#85cfc3" stroke="black" stroke-width="3" d="M549,-560.5C549,-560.5 508,-560.5 508,-560.5 502,-560.5 496,-554.5 496,-548.5 496,-548.5 496,-536.5 496,-536.5 496,-530.5 502,-524.5 508,-524.5 508,-524.5 549,-524.5 549,-524.5 555,-524.5 561,-530.5 561,-536.5 561,-536.5 561,-548.5 561,-548.5 561,-554.5 555,-560.5 549,-560.5"/>
<text text-anchor="middle" x="528.5" y="-538.8" font-family="helvetica" font-size="14.00">ptsd152</text>
</a>
</g>
</g>
<!-- 21&#45;&#45;23 -->
<g id="edge22" class="edge">
<title>21&#45;&#45;23</title>
<path fill="none" stroke="black" stroke-width="3" d="M364.12,-653.37C400.49,-629.07 466.67,-584.83 502.98,-560.56"/>
<text text-anchor="middle" x="484.5" y="-625.8" font-family="helvetica" font-size="14.00"> 1</text>
<text text-anchor="middle" x="484.5" y="-610.8" font-family="helvetica" font-size="14.00"> 2</text>
<text text-anchor="middle" x="484.5" y="-595.8" font-family="helvetica" font-size="14.00"> 3</text>
<text text-anchor="middle" x="484.5" y="-580.8" font-family="helvetica" font-size="14.00"> 5</text>
</g>
<!-- 22 -->
<g id="node23" class="node">
<title>22</title>
<path fill="#5cf1c6" stroke="black" stroke-width="3" d="M559.5,-440C559.5,-440 497.5,-440 497.5,-440 491.5,-440 485.5,-434 485.5,-428 485.5,-428 485.5,-399 485.5,-399 485.5,-393 491.5,-387 497.5,-387 497.5,-387 559.5,-387 559.5,-387 565.5,-387 571.5,-393 571.5,-399 571.5,-399 571.5,-428 571.5,-428 571.5,-434 565.5,-440 559.5,-440"/>
<text text-anchor="middle" x="528.5" y="-424.8" font-family="helvetica" font-size="14.00">3</text>
<text text-anchor="middle" x="528.5" y="-409.8" font-family="helvetica" font-size="14.00">Prob: 0.667</text>
<text text-anchor="middle" x="528.5" y="-394.8" font-family="helvetica" font-size="14.00">Frac: 0.01</text>
</g>
<!-- 23&#45;&#45;22 -->
<g id="edge23" class="edge">
<title>23&#45;&#45;22</title>
<path fill="none" stroke="black" stroke-width="3" d="M528.5,-524.37C528.5,-502.71 528.5,-465.2 528.5,-440.12"/>
<text text-anchor="middle" x="534.5" y="-474.3" font-family="helvetica" font-size="14.00"> 3</text>
</g>
<!-- 29 -->
<g id="node30" class="node">
<title>29</title>
<g id="a_node30"><a xlink:href=".//ptsd101.svg" xlink:title="ptsd101">
<path fill="#88ccc3" stroke="black" stroke-width="3" d="M645,-431.5C645,-431.5 604,-431.5 604,-431.5 598,-431.5 592,-425.5 592,-419.5 592,-419.5 592,-407.5 592,-407.5 592,-401.5 598,-395.5 604,-395.5 604,-395.5 645,-395.5 645,-395.5 651,-395.5 657,-401.5 657,-407.5 657,-407.5 657,-419.5 657,-419.5 657,-425.5 651,-431.5 645,-431.5"/>
<text text-anchor="middle" x="624.5" y="-409.8" font-family="helvetica" font-size="14.00">ptsd101</text>
</a>
</g>
</g>
<!-- 23&#45;&#45;29 -->
<g id="edge24" class="edge">
<title>23&#45;&#45;29</title>
<path fill="none" stroke="black" stroke-width="3" d="M541.45,-524.37C559.77,-500.13 593.07,-456.07 611.45,-431.76"/>
<text text-anchor="middle" x="604.5" y="-496.8" font-family="helvetica" font-size="14.00"> 1</text>
<text text-anchor="middle" x="604.5" y="-481.8" font-family="helvetica" font-size="14.00"> 2</text>
<text text-anchor="middle" x="604.5" y="-466.8" font-family="helvetica" font-size="14.00"> 4</text>
<text text-anchor="middle" x="604.5" y="-451.8" font-family="helvetica" font-size="14.00"> 5</text>
</g>
<!-- 24 -->
<g id="node25" class="node">
<title>24</title>
<path fill="#5cf1c6" stroke="black" stroke-width="3" d="M566.5,-182C566.5,-182 504.5,-182 504.5,-182 498.5,-182 492.5,-176 492.5,-170 492.5,-170 492.5,-141 492.5,-141 492.5,-135 498.5,-129 504.5,-129 504.5,-129 566.5,-129 566.5,-129 572.5,-129 578.5,-135 578.5,-141 578.5,-141 578.5,-170 578.5,-170 578.5,-176 572.5,-182 566.5,-182"/>
<text text-anchor="middle" x="535.5" y="-166.8" font-family="helvetica" font-size="14.00">3</text>
<text text-anchor="middle" x="535.5" y="-151.8" font-family="helvetica" font-size="14.00">Prob: 0.667</text>
<text text-anchor="middle" x="535.5" y="-136.8" font-family="helvetica" font-size="14.00">Frac: 0.01</text>
</g>
<!-- 25 -->
<g id="node26" class="node">
<title>25</title>
<g id="a_node26"><a xlink:href=".//ptsd102.svg" xlink:title="ptsd102">
<path fill="#a0ade6" stroke="black" stroke-width="3" d="M645,-302.5C645,-302.5 604,-302.5 604,-302.5 598,-302.5 592,-296.5 592,-290.5 592,-290.5 592,-278.5 592,-278.5 592,-272.5 598,-266.5 604,-266.5 604,-266.5 645,-266.5 645,-266.5 651,-266.5 657,-272.5 657,-278.5 657,-278.5 657,-290.5 657,-290.5 657,-296.5 651,-302.5 645,-302.5"/>
<text text-anchor="middle" x="624.5" y="-280.8" font-family="helvetica" font-size="14.00">ptsd102</text>
</a>
</g>
</g>
<!-- 25&#45;&#45;24 -->
<g id="edge25" class="edge">
<title>25&#45;&#45;24</title>
<path fill="none" stroke="black" stroke-width="3" d="M612.5,-266.37C597.31,-244.71 571.03,-207.2 553.46,-182.12"/>
<text text-anchor="middle" x="601.5" y="-223.8" font-family="helvetica" font-size="14.00"> 1</text>
<text text-anchor="middle" x="601.5" y="-208.8" font-family="helvetica" font-size="14.00"> 2</text>
</g>
<!-- 27 -->
<g id="node28" class="node">
<title>27</title>
<g id="a_node28"><a xlink:href=".//ptsd185.svg" xlink:title="ptsd185">
<path fill="#b39bef" stroke="black" stroke-width="3" d="M650,-173.5C650,-173.5 609,-173.5 609,-173.5 603,-173.5 597,-167.5 597,-161.5 597,-161.5 597,-149.5 597,-149.5 597,-143.5 603,-137.5 609,-137.5 609,-137.5 650,-137.5 650,-137.5 656,-137.5 662,-143.5 662,-149.5 662,-149.5 662,-161.5 662,-161.5 662,-167.5 656,-173.5 650,-173.5"/>
<text text-anchor="middle" x="629.5" y="-151.8" font-family="helvetica" font-size="14.00">ptsd185</text>
</a>
</g>
</g>
<!-- 25&#45;&#45;27 -->
<g id="edge26" class="edge">
<title>25&#45;&#45;27</title>
<path fill="none" stroke="black" stroke-width="3" d="M625.17,-266.37C626.13,-242.13 627.86,-198.07 628.82,-173.76"/>
<text text-anchor="middle" x="633.5" y="-231.3" font-family="helvetica" font-size="14.00"> 3</text>
<text text-anchor="middle" x="633.5" y="-216.3" font-family="helvetica" font-size="14.00"> 4</text>
<text text-anchor="middle" x="633.5" y="-201.3" font-family="helvetica" font-size="14.00"> 5</text>
</g>
<!-- 26 -->
<g id="node27" class="node">
<title>26</title>
<path fill="#59efdd" stroke="black" stroke-width="3" d="M610,-53C610,-53 549,-53 549,-53 543,-53 537,-47 537,-41 537,-41 537,-12 537,-12 537,-6 543,0 549,0 549,0 610,0 610,0 616,0 622,-6 622,-12 622,-12 622,-41 622,-41 622,-47 616,-53 610,-53"/>
<text text-anchor="middle" x="579.5" y="-37.8" font-family="helvetica" font-size="14.00">3</text>
<text text-anchor="middle" x="579.5" y="-22.8" font-family="helvetica" font-size="14.00">Prob: 0.8</text>
<text text-anchor="middle" x="579.5" y="-7.8" font-family="helvetica" font-size="14.00">Frac: 0.016</text>
</g>
<!-- 27&#45;&#45;26 -->
<g id="edge27" class="edge">
<title>27&#45;&#45;26</title>
<path fill="none" stroke="black" stroke-width="3" d="M622.76,-137.37C614.23,-115.71 599.46,-78.2 589.59,-53.12"/>
<text text-anchor="middle" x="614.5" y="-94.8" font-family="helvetica" font-size="14.00"> 2</text>
<text text-anchor="middle" x="614.5" y="-79.8" font-family="helvetica" font-size="14.00"> 3</text>
</g>
<!-- 28 -->
<g id="node29" class="node">
<title>28</title>
<path fill="#ff55ff" stroke="black" stroke-width="3" d="M705,-53C705,-53 652,-53 652,-53 646,-53 640,-47 640,-41 640,-41 640,-12 640,-12 640,-6 646,0 652,0 652,0 705,0 705,0 711,0 717,-6 717,-12 717,-12 717,-41 717,-41 717,-47 711,-53 705,-53"/>
<text text-anchor="middle" x="678.5" y="-37.8" font-family="helvetica" font-size="14.00">4</text>
<text text-anchor="middle" x="678.5" y="-22.8" font-family="helvetica" font-size="14.00">Prob: 1.0</text>
<text text-anchor="middle" x="678.5" y="-7.8" font-family="helvetica" font-size="14.00">Frac: 0.02</text>
</g>
<!-- 27&#45;&#45;28 -->
<g id="edge28" class="edge">
<title>27&#45;&#45;28</title>
<path fill="none" stroke="black" stroke-width="3" d="M636.11,-137.37C644.47,-115.71 658.94,-78.2 668.61,-53.12"/>
<text text-anchor="middle" x="663.5" y="-94.8" font-family="helvetica" font-size="14.00"> 1</text>
<text text-anchor="middle" x="663.5" y="-79.8" font-family="helvetica" font-size="14.00"> 4</text>
</g>
<!-- 29&#45;&#45;25 -->
<g id="edge29" class="edge">
<title>29&#45;&#45;25</title>
<path fill="none" stroke="black" stroke-width="3" d="M624.5,-395.37C624.5,-371.13 624.5,-327.07 624.5,-302.76"/>
<text text-anchor="middle" x="630.5" y="-352.8" font-family="helvetica" font-size="14.00"> 3</text>
<text text-anchor="middle" x="630.5" y="-337.8" font-family="helvetica" font-size="14.00"> 4</text>
</g>
<!-- 31 -->
<g id="node32" class="node">
<title>31</title>
<g id="a_node32"><a xlink:href=".//ptsd173.svg" xlink:title="ptsd173">
<path fill="#77e2aa" stroke="black" stroke-width="3" d="M744,-302.5C744,-302.5 703,-302.5 703,-302.5 697,-302.5 691,-296.5 691,-290.5 691,-290.5 691,-278.5 691,-278.5 691,-272.5 697,-266.5 703,-266.5 703,-266.5 744,-266.5 744,-266.5 750,-266.5 756,-272.5 756,-278.5 756,-278.5 756,-290.5 756,-290.5 756,-296.5 750,-302.5 744,-302.5"/>
<text text-anchor="middle" x="723.5" y="-280.8" font-family="helvetica" font-size="14.00">ptsd173</text>
</a>
</g>
</g>
<!-- 29&#45;&#45;31 -->
<g id="edge30" class="edge">
<title>29&#45;&#45;31</title>
<path fill="none" stroke="black" stroke-width="3" d="M637.85,-395.37C656.75,-371.13 691.09,-327.07 710.04,-302.76"/>
<text text-anchor="middle" x="696.5" y="-360.3" font-family="helvetica" font-size="14.00"> 1</text>
<text text-anchor="middle" x="696.5" y="-345.3" font-family="helvetica" font-size="14.00"> 2</text>
<text text-anchor="middle" x="696.5" y="-330.3" font-family="helvetica" font-size="14.00"> 5</text>
</g>
<!-- 30 -->
<g id="node31" class="node">
<title>30</title>
<path fill="#74e7c6" stroke="black" stroke-width="3" d="M754.5,-182C754.5,-182 692.5,-182 692.5,-182 686.5,-182 680.5,-176 680.5,-170 680.5,-170 680.5,-141 680.5,-141 680.5,-135 686.5,-129 692.5,-129 692.5,-129 754.5,-129 754.5,-129 760.5,-129 766.5,-135 766.5,-141 766.5,-141 766.5,-170 766.5,-170 766.5,-176 760.5,-182 754.5,-182"/>
<text text-anchor="middle" x="723.5" y="-166.8" font-family="helvetica" font-size="14.00">3</text>
<text text-anchor="middle" x="723.5" y="-151.8" font-family="helvetica" font-size="14.00">Prob: 0.667</text>
<text text-anchor="middle" x="723.5" y="-136.8" font-family="helvetica" font-size="14.00">Frac: 0.02</text>
</g>
<!-- 31&#45;&#45;30 -->
<g id="edge31" class="edge">
<title>31&#45;&#45;30</title>
<path fill="none" stroke="black" stroke-width="3" d="M723.5,-266.37C723.5,-244.71 723.5,-207.2 723.5,-182.12"/>
<text text-anchor="middle" x="729.5" y="-223.8" font-family="helvetica" font-size="14.00"> 3</text>
<text text-anchor="middle" x="729.5" y="-208.8" font-family="helvetica" font-size="14.00"> 4</text>
</g>
<!-- 32 -->
<g id="node33" class="node">
<title>32</title>
<path fill="#79e19d" stroke="black" stroke-width="3" d="M858.5,-182C858.5,-182 796.5,-182 796.5,-182 790.5,-182 784.5,-176 784.5,-170 784.5,-170 784.5,-141 784.5,-141 784.5,-135 790.5,-129 796.5,-129 796.5,-129 858.5,-129 858.5,-129 864.5,-129 870.5,-135 870.5,-141 870.5,-141 870.5,-170 870.5,-170 870.5,-176 864.5,-182 858.5,-182"/>
<text text-anchor="middle" x="827.5" y="-166.8" font-family="helvetica" font-size="14.00">2</text>
<text text-anchor="middle" x="827.5" y="-151.8" font-family="helvetica" font-size="14.00">Prob: 0.571</text>
<text text-anchor="middle" x="827.5" y="-136.8" font-family="helvetica" font-size="14.00">Frac: 0.046</text>
</g>
<!-- 31&#45;&#45;32 -->
<g id="edge32" class="edge">
<title>31&#45;&#45;32</title>
<path fill="none" stroke="black" stroke-width="3" d="M737.53,-266.37C755.27,-244.71 785.98,-207.2 806.52,-182.12"/>
<text text-anchor="middle" x="799.5" y="-231.3" font-family="helvetica" font-size="14.00"> 1</text>
<text text-anchor="middle" x="799.5" y="-216.3" font-family="helvetica" font-size="14.00"> 2</text>
<text text-anchor="middle" x="799.5" y="-201.3" font-family="helvetica" font-size="14.00"> 5</text>
</g>
<!-- 33&#45;&#45;13 -->
<g id="edge33" class="edge">
<title>33&#45;&#45;13</title>
<path fill="none" stroke="black" stroke-width="3" d="M336.5,-911.37C336.5,-887.13 336.5,-843.07 336.5,-818.76"/>
<text text-anchor="middle" x="342.5" y="-876.3" font-family="helvetica" font-size="14.00"> 1</text>
<text text-anchor="middle" x="342.5" y="-861.3" font-family="helvetica" font-size="14.00"> 2</text>
<text text-anchor="middle" x="342.5" y="-846.3" font-family="helvetica" font-size="14.00"> 4</text>
</g>
<!-- 35 -->
<g id="node36" class="node">
<title>35</title>
<g id="a_node36"><a xlink:href=".//ptsd85.svg" xlink:title="ptsd85">
<path fill="#58ede5" stroke="black" stroke-width="3" d="M449,-818.5C449,-818.5 416,-818.5 416,-818.5 410,-818.5 404,-812.5 404,-806.5 404,-806.5 404,-794.5 404,-794.5 404,-788.5 410,-782.5 416,-782.5 416,-782.5 449,-782.5 449,-782.5 455,-782.5 461,-788.5 461,-794.5 461,-794.5 461,-806.5 461,-806.5 461,-812.5 455,-818.5 449,-818.5"/>
<text text-anchor="middle" x="432.5" y="-796.8" font-family="helvetica" font-size="14.00">ptsd85</text>
</a>
</g>
</g>
<!-- 33&#45;&#45;35 -->
<g id="edge34" class="edge">
<title>33&#45;&#45;35</title>
<path fill="none" stroke="black" stroke-width="3" d="M349.45,-911.37C367.77,-887.13 401.07,-843.07 419.45,-818.76"/>
<text text-anchor="middle" x="407.5" y="-868.8" font-family="helvetica" font-size="14.00"> 3</text>
<text text-anchor="middle" x="407.5" y="-853.8" font-family="helvetica" font-size="14.00"> 5</text>
</g>
<!-- 34 -->
<g id="node35" class="node">
<title>34</title>
<path fill="#5bf1ca" stroke="black" stroke-width="3" d="M463.5,-698C463.5,-698 401.5,-698 401.5,-698 395.5,-698 389.5,-692 389.5,-686 389.5,-686 389.5,-657 389.5,-657 389.5,-651 395.5,-645 401.5,-645 401.5,-645 463.5,-645 463.5,-645 469.5,-645 475.5,-651 475.5,-657 475.5,-657 475.5,-686 475.5,-686 475.5,-692 469.5,-698 463.5,-698"/>
<text text-anchor="middle" x="432.5" y="-682.8" font-family="helvetica" font-size="14.00">3</text>
<text text-anchor="middle" x="432.5" y="-667.8" font-family="helvetica" font-size="14.00">Prob: 0.692</text>
<text text-anchor="middle" x="432.5" y="-652.8" font-family="helvetica" font-size="14.00">Frac: 0.043</text>
</g>
<!-- 35&#45;&#45;34 -->
<g id="edge35" class="edge">
<title>35&#45;&#45;34</title>
<path fill="none" stroke="black" stroke-width="3" d="M432.5,-782.37C432.5,-760.71 432.5,-723.2 432.5,-698.12"/>
<text text-anchor="middle" x="438.5" y="-747.3" font-family="helvetica" font-size="14.00"> 1</text>
<text text-anchor="middle" x="438.5" y="-732.3" font-family="helvetica" font-size="14.00"> 2</text>
<text text-anchor="middle" x="438.5" y="-717.3" font-family="helvetica" font-size="14.00"> 4</text>
</g>
<!-- 36 -->
<g id="node37" class="node">
<title>36</title>
<path fill="#55ebff" stroke="black" stroke-width="3" d="M567,-698C567,-698 506,-698 506,-698 500,-698 494,-692 494,-686 494,-686 494,-657 494,-657 494,-651 500,-645 506,-645 506,-645 567,-645 567,-645 573,-645 579,-651 579,-657 579,-657 579,-686 579,-686 579,-692 573,-698 567,-698"/>
<text text-anchor="middle" x="536.5" y="-682.8" font-family="helvetica" font-size="14.00">3</text>
<text text-anchor="middle" x="536.5" y="-667.8" font-family="helvetica" font-size="14.00">Prob: 1.0</text>
<text text-anchor="middle" x="536.5" y="-652.8" font-family="helvetica" font-size="14.00">Frac: 0.046</text>
</g>
<!-- 35&#45;&#45;36 -->
<g id="edge36" class="edge">
<title>35&#45;&#45;36</title>
<path fill="none" stroke="black" stroke-width="3" d="M446.53,-782.37C464.27,-760.71 494.98,-723.2 515.52,-698.12"/>
<text text-anchor="middle" x="514.5" y="-739.8" font-family="helvetica" font-size="14.00"> 3</text>
<text text-anchor="middle" x="514.5" y="-724.8" font-family="helvetica" font-size="14.00"> 5</text>
</g>
</g>
</svg>
