<?xml version="1.0" encoding="UTF-8" standalone="no"?>
<!DOCTYPE svg PUBLIC "-//W3C//DTD SVG 1.1//EN"
 "http://www.w3.org/Graphics/SVG/1.1/DTD/svg11.dtd">
<!-- Generated by graphviz version 2.44.0 (0)
 -->
<!-- Title: Tree Pages: 1 -->
<svg width="752pt" height="1011pt"
 viewBox="0.00 0.00 902.50 1213.50" xmlns="http://www.w3.org/2000/svg" xmlns:xlink="http://www.w3.org/1999/xlink">
<g id="graph0" class="graph" transform="scale(0.83 0.83) rotate(0) translate(4 1209.5)">
<title>Tree</title>
<!-- 0 -->
<g id="node1" class="node">
<title>0</title>
<path fill="#55ebff" stroke="black" stroke-width="3" d="M391,-827C391,-827 338,-827 338,-827 332,-827 326,-821 326,-815 326,-815 326,-786 326,-786 326,-780 332,-774 338,-774 338,-774 391,-774 391,-774 397,-774 403,-780 403,-786 403,-786 403,-815 403,-815 403,-821 397,-827 391,-827"/>
<text text-anchor="middle" x="364.5" y="-811.8" font-family="helvetica" font-size="14.00">3</text>
<text text-anchor="middle" x="364.5" y="-796.8" font-family="helvetica" font-size="14.00">Prob: 1.0</text>
<text text-anchor="middle" x="364.5" y="-781.8" font-family="helvetica" font-size="14.00">Frac: 0.01</text>
</g>
<!-- 1 -->
<g id="node2" class="node">
<title>1</title>
<g id="a_node2"><a xlink:href=".//ptsd88.svg" xlink:title="ptsd88">
<path fill="#d6ce67" stroke="black" stroke-width="3" d="M466,-947.5C466,-947.5 433,-947.5 433,-947.5 427,-947.5 421,-941.5 421,-935.5 421,-935.5 421,-923.5 421,-923.5 421,-917.5 427,-911.5 433,-911.5 433,-911.5 466,-911.5 466,-911.5 472,-911.5 478,-917.5 478,-923.5 478,-923.5 478,-935.5 478,-935.5 478,-941.5 472,-947.5 466,-947.5"/>
<text text-anchor="middle" x="449.5" y="-925.8" font-family="helvetica" font-size="14.00">ptsd88</text>
</a>
</g>
</g>
<!-- 1&#45;&#45;0 -->
<g id="edge1" class="edge">
<title>1&#45;&#45;0</title>
<path fill="none" stroke="black" stroke-width="3" d="M438.04,-911.37C423.54,-889.71 398.44,-852.2 381.65,-827.12"/>
<text text-anchor="middle" x="433.5" y="-861.3" font-family="helvetica" font-size="14.00"> 3</text>
</g>
<!-- 17 -->
<g id="node18" class="node">
<title>17</title>
<g id="a_node18"><a xlink:href=".//ptsd39.svg" xlink:title="ptsd39">
<path fill="#dbcd61" stroke="black" stroke-width="3" d="M466,-818.5C466,-818.5 433,-818.5 433,-818.5 427,-818.5 421,-812.5 421,-806.5 421,-806.5 421,-794.5 421,-794.5 421,-788.5 427,-782.5 433,-782.5 433,-782.5 466,-782.5 466,-782.5 472,-782.5 478,-788.5 478,-794.5 478,-794.5 478,-806.5 478,-806.5 478,-812.5 472,-818.5 466,-818.5"/>
<text text-anchor="middle" x="449.5" y="-796.8" font-family="helvetica" font-size="14.00">ptsd39</text>
</a>
</g>
</g>
<!-- 1&#45;&#45;17 -->
<g id="edge2" class="edge">
<title>1&#45;&#45;17</title>
<path fill="none" stroke="black" stroke-width="3" d="M449.5,-911.37C449.5,-887.13 449.5,-843.07 449.5,-818.76"/>
<text text-anchor="middle" x="455.5" y="-883.8" font-family="helvetica" font-size="14.00"> 1</text>
<text text-anchor="middle" x="455.5" y="-868.8" font-family="helvetica" font-size="14.00"> 2</text>
<text text-anchor="middle" x="455.5" y="-853.8" font-family="helvetica" font-size="14.00"> 4</text>
<text text-anchor="middle" x="455.5" y="-838.8" font-family="helvetica" font-size="14.00"> 5</text>
</g>
<!-- 2 -->
<g id="node3" class="node">
<title>2</title>
<path fill="#ffc155" stroke="black" stroke-width="3" d="M73,-53C73,-53 12,-53 12,-53 6,-53 0,-47 0,-41 0,-41 0,-12 0,-12 0,-6 6,0 12,0 12,0 73,0 73,0 79,0 85,-6 85,-12 85,-12 85,-41 85,-41 85,-47 79,-53 73,-53"/>
<text text-anchor="middle" x="42.5" y="-37.8" font-family="helvetica" font-size="14.00">1</text>
<text text-anchor="middle" x="42.5" y="-22.8" font-family="helvetica" font-size="14.00">Prob: 1.0</text>
<text text-anchor="middle" x="42.5" y="-7.8" font-family="helvetica" font-size="14.00">Frac: 0.086</text>
</g>
<!-- 3 -->
<g id="node4" class="node">
<title>3</title>
<g id="a_node4"><a xlink:href=".//ptsd117.svg" xlink:title="ptsd117">
<path fill="#f9c355" stroke="black" stroke-width="3" d="M115,-173.5C115,-173.5 74,-173.5 74,-173.5 68,-173.5 62,-167.5 62,-161.5 62,-161.5 62,-149.5 62,-149.5 62,-143.5 68,-137.5 74,-137.5 74,-137.5 115,-137.5 115,-137.5 121,-137.5 127,-143.5 127,-149.5 127,-149.5 127,-161.5 127,-161.5 127,-167.5 121,-173.5 115,-173.5"/>
<text text-anchor="middle" x="94.5" y="-151.8" font-family="helvetica" font-size="14.00">ptsd117</text>
</a>
</g>
</g>
<!-- 3&#45;&#45;2 -->
<g id="edge3" class="edge">
<title>3&#45;&#45;2</title>
<path fill="none" stroke="black" stroke-width="3" d="M87.49,-137.37C78.62,-115.71 63.26,-78.2 52.99,-53.12"/>
<text text-anchor="middle" x="79.5" y="-87.3" font-family="helvetica" font-size="14.00"> 1</text>
</g>
<!-- 4 -->
<g id="node5" class="node">
<title>4</title>
<path fill="#cdd555" stroke="black" stroke-width="3" d="M177.5,-53C177.5,-53 115.5,-53 115.5,-53 109.5,-53 103.5,-47 103.5,-41 103.5,-41 103.5,-12 103.5,-12 103.5,-6 109.5,0 115.5,0 115.5,0 177.5,0 177.5,0 183.5,0 189.5,-6 189.5,-12 189.5,-12 189.5,-41 189.5,-41 189.5,-47 183.5,-53 177.5,-53"/>
<text text-anchor="middle" x="146.5" y="-37.8" font-family="helvetica" font-size="14.00">1</text>
<text text-anchor="middle" x="146.5" y="-22.8" font-family="helvetica" font-size="14.00">Prob: 0.667</text>
<text text-anchor="middle" x="146.5" y="-7.8" font-family="helvetica" font-size="14.00">Frac: 0.01</text>
</g>
<!-- 3&#45;&#45;4 -->
<g id="edge4" class="edge">
<title>3&#45;&#45;4</title>
<path fill="none" stroke="black" stroke-width="3" d="M101.51,-137.37C110.38,-115.71 125.74,-78.2 136.01,-53.12"/>
<text text-anchor="middle" x="131.5" y="-94.8" font-family="helvetica" font-size="14.00"> 2</text>
<text text-anchor="middle" x="131.5" y="-79.8" font-family="helvetica" font-size="14.00"> 4</text>
</g>
<!-- 5 -->
<g id="node6" class="node">
<title>5</title>
<g id="a_node6"><a xlink:href=".//ptsd110.svg" xlink:title="ptsd110">
<path fill="#f3c555" stroke="black" stroke-width="3" d="M162,-302.5C162,-302.5 121,-302.5 121,-302.5 115,-302.5 109,-296.5 109,-290.5 109,-290.5 109,-278.5 109,-278.5 109,-272.5 115,-266.5 121,-266.5 121,-266.5 162,-266.5 162,-266.5 168,-266.5 174,-272.5 174,-278.5 174,-278.5 174,-290.5 174,-290.5 174,-296.5 168,-302.5 162,-302.5"/>
<text text-anchor="middle" x="141.5" y="-280.8" font-family="helvetica" font-size="14.00">ptsd110</text>
</a>
</g>
</g>
<!-- 5&#45;&#45;3 -->
<g id="edge5" class="edge">
<title>5&#45;&#45;3</title>
<path fill="none" stroke="black" stroke-width="3" d="M135.16,-266.37C126.19,-242.13 109.89,-198.07 100.89,-173.76"/>
<text text-anchor="middle" x="128.5" y="-223.8" font-family="helvetica" font-size="14.00"> 1</text>
<text text-anchor="middle" x="128.5" y="-208.8" font-family="helvetica" font-size="14.00"> 3</text>
</g>
<!-- 6 -->
<g id="node7" class="node">
<title>6</title>
<path fill="#e3cc55" stroke="black" stroke-width="3" d="M219.5,-182C219.5,-182 157.5,-182 157.5,-182 151.5,-182 145.5,-176 145.5,-170 145.5,-170 145.5,-141 145.5,-141 145.5,-135 151.5,-129 157.5,-129 157.5,-129 219.5,-129 219.5,-129 225.5,-129 231.5,-135 231.5,-141 231.5,-141 231.5,-170 231.5,-170 231.5,-176 225.5,-182 219.5,-182"/>
<text text-anchor="middle" x="188.5" y="-166.8" font-family="helvetica" font-size="14.00">1</text>
<text text-anchor="middle" x="188.5" y="-151.8" font-family="helvetica" font-size="14.00">Prob: 0.818</text>
<text text-anchor="middle" x="188.5" y="-136.8" font-family="helvetica" font-size="14.00">Frac: 0.036</text>
</g>
<!-- 5&#45;&#45;6 -->
<g id="edge6" class="edge">
<title>5&#45;&#45;6</title>
<path fill="none" stroke="black" stroke-width="3" d="M147.84,-266.37C155.86,-244.71 169.74,-207.2 179.02,-182.12"/>
<text text-anchor="middle" x="175.5" y="-223.8" font-family="helvetica" font-size="14.00"> 2</text>
<text text-anchor="middle" x="175.5" y="-208.8" font-family="helvetica" font-size="14.00"> 4</text>
</g>
<!-- 7 -->
<g id="node8" class="node">
<title>7</title>
<g id="a_node8"><a xlink:href=".//ptsd81.svg" xlink:title="ptsd81">
<path fill="#f1c655" stroke="black" stroke-width="3" d="M234,-431.5C234,-431.5 201,-431.5 201,-431.5 195,-431.5 189,-425.5 189,-419.5 189,-419.5 189,-407.5 189,-407.5 189,-401.5 195,-395.5 201,-395.5 201,-395.5 234,-395.5 234,-395.5 240,-395.5 246,-401.5 246,-407.5 246,-407.5 246,-419.5 246,-419.5 246,-425.5 240,-431.5 234,-431.5"/>
<text text-anchor="middle" x="217.5" y="-409.8" font-family="helvetica" font-size="14.00">ptsd81</text>
</a>
</g>
</g>
<!-- 7&#45;&#45;5 -->
<g id="edge7" class="edge">
<title>7&#45;&#45;5</title>
<path fill="none" stroke="black" stroke-width="3" d="M207.25,-395.37C192.75,-371.13 166.38,-327.07 151.83,-302.76"/>
<text text-anchor="middle" x="192.5" y="-345.3" font-family="helvetica" font-size="14.00"> 1</text>
</g>
<!-- 8 -->
<g id="node9" class="node">
<title>8</title>
<path fill="#d9d055" stroke="black" stroke-width="3" d="M265,-311C265,-311 204,-311 204,-311 198,-311 192,-305 192,-299 192,-299 192,-270 192,-270 192,-264 198,-258 204,-258 204,-258 265,-258 265,-258 271,-258 277,-264 277,-270 277,-270 277,-299 277,-299 277,-305 271,-311 265,-311"/>
<text text-anchor="middle" x="234.5" y="-295.8" font-family="helvetica" font-size="14.00">1</text>
<text text-anchor="middle" x="234.5" y="-280.8" font-family="helvetica" font-size="14.00">Prob: 0.75</text>
<text text-anchor="middle" x="234.5" y="-265.8" font-family="helvetica" font-size="14.00">Frac: 0.013</text>
</g>
<!-- 7&#45;&#45;8 -->
<g id="edge8" class="edge">
<title>7&#45;&#45;8</title>
<path fill="none" stroke="black" stroke-width="3" d="M219.79,-395.37C222.69,-373.71 227.71,-336.2 231.07,-311.12"/>
<text text-anchor="middle" x="234.5" y="-352.8" font-family="helvetica" font-size="14.00"> 2</text>
<text text-anchor="middle" x="234.5" y="-337.8" font-family="helvetica" font-size="14.00"> 3</text>
</g>
<!-- 9 -->
<g id="node10" class="node">
<title>9</title>
<g id="a_node10"><a xlink:href=".//ptsd118.svg" xlink:title="ptsd118">
<path fill="#e9ca55" stroke="black" stroke-width="3" d="M327,-560.5C327,-560.5 286,-560.5 286,-560.5 280,-560.5 274,-554.5 274,-548.5 274,-548.5 274,-536.5 274,-536.5 274,-530.5 280,-524.5 286,-524.5 286,-524.5 327,-524.5 327,-524.5 333,-524.5 339,-530.5 339,-536.5 339,-536.5 339,-548.5 339,-548.5 339,-554.5 333,-560.5 327,-560.5"/>
<text text-anchor="middle" x="306.5" y="-538.8" font-family="helvetica" font-size="14.00">ptsd118</text>
</a>
</g>
</g>
<!-- 9&#45;&#45;7 -->
<g id="edge9" class="edge">
<title>9&#45;&#45;7</title>
<path fill="none" stroke="black" stroke-width="3" d="M294.5,-524.37C277.51,-500.13 246.63,-456.07 229.6,-431.76"/>
<text text-anchor="middle" x="276.5" y="-474.3" font-family="helvetica" font-size="14.00"> 1</text>
</g>
<!-- 10 -->
<g id="node11" class="node">
<title>10</title>
<path fill="#8fef55" stroke="black" stroke-width="3" d="M337,-440C337,-440 276,-440 276,-440 270,-440 264,-434 264,-428 264,-428 264,-399 264,-399 264,-393 270,-387 276,-387 276,-387 337,-387 337,-387 343,-387 349,-393 349,-399 349,-399 349,-428 349,-428 349,-434 343,-440 337,-440"/>
<text text-anchor="middle" x="306.5" y="-424.8" font-family="helvetica" font-size="14.00">2</text>
<text text-anchor="middle" x="306.5" y="-409.8" font-family="helvetica" font-size="14.00">Prob: 0.75</text>
<text text-anchor="middle" x="306.5" y="-394.8" font-family="helvetica" font-size="14.00">Frac: 0.013</text>
</g>
<!-- 9&#45;&#45;10 -->
<g id="edge10" class="edge">
<title>9&#45;&#45;10</title>
<path fill="none" stroke="black" stroke-width="3" d="M306.5,-524.37C306.5,-502.71 306.5,-465.2 306.5,-440.12"/>
<text text-anchor="middle" x="312.5" y="-481.8" font-family="helvetica" font-size="14.00"> 2</text>
<text text-anchor="middle" x="312.5" y="-466.8" font-family="helvetica" font-size="14.00"> 4</text>
</g>
<!-- 11 -->
<g id="node12" class="node">
<title>11</title>
<g id="a_node12"><a xlink:href=".//ptsd51.svg" xlink:title="ptsd51">
<path fill="#e1cc57" stroke="black" stroke-width="3" d="M412,-689.5C412,-689.5 379,-689.5 379,-689.5 373,-689.5 367,-683.5 367,-677.5 367,-677.5 367,-665.5 367,-665.5 367,-659.5 373,-653.5 379,-653.5 379,-653.5 412,-653.5 412,-653.5 418,-653.5 424,-659.5 424,-665.5 424,-665.5 424,-677.5 424,-677.5 424,-683.5 418,-689.5 412,-689.5"/>
<text text-anchor="middle" x="395.5" y="-667.8" font-family="helvetica" font-size="14.00">ptsd51</text>
</a>
</g>
</g>
<!-- 11&#45;&#45;9 -->
<g id="edge11" class="edge">
<title>11&#45;&#45;9</title>
<path fill="none" stroke="black" stroke-width="3" d="M383.5,-653.37C366.51,-629.13 335.63,-585.07 318.6,-560.76"/>
<text text-anchor="middle" x="365.5" y="-603.3" font-family="helvetica" font-size="14.00"> 1</text>
</g>
<!-- 15 -->
<g id="node16" class="node">
<title>15</title>
<g id="a_node16"><a xlink:href=".//ptsd144.svg" xlink:title="ptsd144">
<path fill="#bada67" stroke="black" stroke-width="3" d="M416,-560.5C416,-560.5 375,-560.5 375,-560.5 369,-560.5 363,-554.5 363,-548.5 363,-548.5 363,-536.5 363,-536.5 363,-530.5 369,-524.5 375,-524.5 375,-524.5 416,-524.5 416,-524.5 422,-524.5 428,-530.5 428,-536.5 428,-536.5 428,-548.5 428,-548.5 428,-554.5 422,-560.5 416,-560.5"/>
<text text-anchor="middle" x="395.5" y="-538.8" font-family="helvetica" font-size="14.00">ptsd144</text>
</a>
</g>
</g>
<!-- 11&#45;&#45;15 -->
<g id="edge12" class="edge">
<title>11&#45;&#45;15</title>
<path fill="none" stroke="black" stroke-width="3" d="M395.5,-653.37C395.5,-629.13 395.5,-585.07 395.5,-560.76"/>
<text text-anchor="middle" x="401.5" y="-610.8" font-family="helvetica" font-size="14.00"> 2</text>
<text text-anchor="middle" x="401.5" y="-595.8" font-family="helvetica" font-size="14.00"> 3</text>
</g>
<!-- 12 -->
<g id="node13" class="node">
<title>12</title>
<path fill="#ffc155" stroke="black" stroke-width="3" d="M391,-311C391,-311 338,-311 338,-311 332,-311 326,-305 326,-299 326,-299 326,-270 326,-270 326,-264 332,-258 338,-258 338,-258 391,-258 391,-258 397,-258 403,-264 403,-270 403,-270 403,-299 403,-299 403,-305 397,-311 391,-311"/>
<text text-anchor="middle" x="364.5" y="-295.8" font-family="helvetica" font-size="14.00">1</text>
<text text-anchor="middle" x="364.5" y="-280.8" font-family="helvetica" font-size="14.00">Prob: 1.0</text>
<text text-anchor="middle" x="364.5" y="-265.8" font-family="helvetica" font-size="14.00">Frac: 0.01</text>
</g>
<!-- 13 -->
<g id="node14" class="node">
<title>13</title>
<g id="a_node14"><a xlink:href=".//ptsd77.svg" xlink:title="ptsd77">
<path fill="#e2c871" stroke="black" stroke-width="3" d="M412,-431.5C412,-431.5 379,-431.5 379,-431.5 373,-431.5 367,-425.5 367,-419.5 367,-419.5 367,-407.5 367,-407.5 367,-401.5 373,-395.5 379,-395.5 379,-395.5 412,-395.5 412,-395.5 418,-395.5 424,-401.5 424,-407.5 424,-407.5 424,-419.5 424,-419.5 424,-425.5 418,-431.5 412,-431.5"/>
<text text-anchor="middle" x="395.5" y="-409.8" font-family="helvetica" font-size="14.00">ptsd77</text>
</a>
</g>
</g>
<!-- 13&#45;&#45;12 -->
<g id="edge13" class="edge">
<title>13&#45;&#45;12</title>
<path fill="none" stroke="black" stroke-width="3" d="M391.32,-395.37C386.03,-373.71 376.88,-336.2 370.75,-311.12"/>
<text text-anchor="middle" x="389.5" y="-345.3" font-family="helvetica" font-size="14.00"> 1</text>
</g>
<!-- 14 -->
<g id="node15" class="node">
<title>14</title>
<path fill="#c6cf8d" stroke="black" stroke-width="3" d="M495.5,-311C495.5,-311 433.5,-311 433.5,-311 427.5,-311 421.5,-305 421.5,-299 421.5,-299 421.5,-270 421.5,-270 421.5,-264 427.5,-258 433.5,-258 433.5,-258 495.5,-258 495.5,-258 501.5,-258 507.5,-264 507.5,-270 507.5,-270 507.5,-299 507.5,-299 507.5,-305 501.5,-311 495.5,-311"/>
<text text-anchor="middle" x="464.5" y="-295.8" font-family="helvetica" font-size="14.00">1</text>
<text text-anchor="middle" x="464.5" y="-280.8" font-family="helvetica" font-size="14.00">Prob: 0.667</text>
<text text-anchor="middle" x="464.5" y="-265.8" font-family="helvetica" font-size="14.00">Frac: 0.01</text>
</g>
<!-- 13&#45;&#45;14 -->
<g id="edge14" class="edge">
<title>13&#45;&#45;14</title>
<path fill="none" stroke="black" stroke-width="3" d="M404.81,-395.37C416.58,-373.71 436.95,-336.2 450.58,-311.12"/>
<text text-anchor="middle" x="442.5" y="-352.8" font-family="helvetica" font-size="14.00"> 2</text>
<text text-anchor="middle" x="442.5" y="-337.8" font-family="helvetica" font-size="14.00"> 3</text>
</g>
<!-- 15&#45;&#45;13 -->
<g id="edge15" class="edge">
<title>15&#45;&#45;13</title>
<path fill="none" stroke="black" stroke-width="3" d="M395.5,-524.37C395.5,-500.13 395.5,-456.07 395.5,-431.76"/>
<text text-anchor="middle" x="401.5" y="-474.3" font-family="helvetica" font-size="14.00"> 1</text>
</g>
<!-- 16 -->
<g id="node17" class="node">
<title>16</title>
<path fill="#6aff55" stroke="black" stroke-width="3" d="M507,-440C507,-440 454,-440 454,-440 448,-440 442,-434 442,-428 442,-428 442,-399 442,-399 442,-393 448,-387 454,-387 454,-387 507,-387 507,-387 513,-387 519,-393 519,-399 519,-399 519,-428 519,-428 519,-434 513,-440 507,-440"/>
<text text-anchor="middle" x="480.5" y="-424.8" font-family="helvetica" font-size="14.00">2</text>
<text text-anchor="middle" x="480.5" y="-409.8" font-family="helvetica" font-size="14.00">Prob: 1.0</text>
<text text-anchor="middle" x="480.5" y="-394.8" font-family="helvetica" font-size="14.00">Frac: 0.01</text>
</g>
<!-- 15&#45;&#45;16 -->
<g id="edge16" class="edge">
<title>15&#45;&#45;16</title>
<path fill="none" stroke="black" stroke-width="3" d="M406.96,-524.37C421.46,-502.71 446.56,-465.2 463.35,-440.12"/>
<text text-anchor="middle" x="452.5" y="-474.3" font-family="helvetica" font-size="14.00"> 2</text>
</g>
<!-- 17&#45;&#45;11 -->
<g id="edge17" class="edge">
<title>17&#45;&#45;11</title>
<path fill="none" stroke="black" stroke-width="3" d="M442.22,-782.37C431.91,-758.13 413.18,-714.07 402.84,-689.76"/>
<text text-anchor="middle" x="438.5" y="-732.3" font-family="helvetica" font-size="14.00"> 1</text>
</g>
<!-- 19 -->
<g id="node20" class="node">
<title>19</title>
<g id="a_node20"><a xlink:href=".//ptsd77.svg" xlink:title="ptsd77">
<path fill="#cad07b" stroke="black" stroke-width="3" d="M505,-689.5C505,-689.5 472,-689.5 472,-689.5 466,-689.5 460,-683.5 460,-677.5 460,-677.5 460,-665.5 460,-665.5 460,-659.5 466,-653.5 472,-653.5 472,-653.5 505,-653.5 505,-653.5 511,-653.5 517,-659.5 517,-665.5 517,-665.5 517,-677.5 517,-677.5 517,-683.5 511,-689.5 505,-689.5"/>
<text text-anchor="middle" x="488.5" y="-667.8" font-family="helvetica" font-size="14.00">ptsd77</text>
</a>
</g>
</g>
<!-- 17&#45;&#45;19 -->
<g id="edge18" class="edge">
<title>17&#45;&#45;19</title>
<path fill="none" stroke="black" stroke-width="3" d="M454.76,-782.37C462.2,-758.13 475.73,-714.07 483.2,-689.76"/>
<text text-anchor="middle" x="482.5" y="-747.3" font-family="helvetica" font-size="14.00"> 2</text>
<text text-anchor="middle" x="482.5" y="-732.3" font-family="helvetica" font-size="14.00"> 3</text>
<text text-anchor="middle" x="482.5" y="-717.3" font-family="helvetica" font-size="14.00"> 4</text>
</g>
<!-- 18 -->
<g id="node19" class="node">
<title>18</title>
<path fill="#6aff55" stroke="black" stroke-width="3" d="M519,-569C519,-569 458,-569 458,-569 452,-569 446,-563 446,-557 446,-557 446,-528 446,-528 446,-522 452,-516 458,-516 458,-516 519,-516 519,-516 525,-516 531,-522 531,-528 531,-528 531,-557 531,-557 531,-563 525,-569 519,-569"/>
<text text-anchor="middle" x="488.5" y="-553.8" font-family="helvetica" font-size="14.00">2</text>
<text text-anchor="middle" x="488.5" y="-538.8" font-family="helvetica" font-size="14.00">Prob: 1.0</text>
<text text-anchor="middle" x="488.5" y="-523.8" font-family="helvetica" font-size="14.00">Frac: 0.007</text>
</g>
<!-- 19&#45;&#45;18 -->
<g id="edge19" class="edge">
<title>19&#45;&#45;18</title>
<path fill="none" stroke="black" stroke-width="3" d="M488.5,-653.37C488.5,-631.71 488.5,-594.2 488.5,-569.12"/>
<text text-anchor="middle" x="494.5" y="-603.3" font-family="helvetica" font-size="14.00"> 2</text>
</g>
<!-- 20 -->
<g id="node21" class="node">
<title>20</title>
<path fill="#d4cb7f" stroke="black" stroke-width="3" d="M622,-569C622,-569 561,-569 561,-569 555,-569 549,-563 549,-557 549,-557 549,-528 549,-528 549,-522 555,-516 561,-516 561,-516 622,-516 622,-516 628,-516 634,-522 634,-528 634,-528 634,-557 634,-557 634,-563 628,-569 622,-569"/>
<text text-anchor="middle" x="591.5" y="-553.8" font-family="helvetica" font-size="14.00">1</text>
<text text-anchor="middle" x="591.5" y="-538.8" font-family="helvetica" font-size="14.00">Prob: 0.75</text>
<text text-anchor="middle" x="591.5" y="-523.8" font-family="helvetica" font-size="14.00">Frac: 0.066</text>
</g>
<!-- 19&#45;&#45;20 -->
<g id="edge20" class="edge">
<title>19&#45;&#45;20</title>
<path fill="none" stroke="black" stroke-width="3" d="M502.39,-653.37C519.96,-631.71 550.38,-594.2 570.72,-569.12"/>
<text text-anchor="middle" x="555.5" y="-610.8" font-family="helvetica" font-size="14.00"> 1</text>
<text text-anchor="middle" x="555.5" y="-595.8" font-family="helvetica" font-size="14.00"> 3</text>
</g>
<!-- 21 -->
<g id="node22" class="node">
<title>21</title>
<g id="a_node22"><a xlink:href=".//ptsd161.svg" xlink:title="ptsd161">
<path fill="#d8cb6a" stroke="black" stroke-width="3" d="M563,-1076.5C563,-1076.5 522,-1076.5 522,-1076.5 516,-1076.5 510,-1070.5 510,-1064.5 510,-1064.5 510,-1052.5 510,-1052.5 510,-1046.5 516,-1040.5 522,-1040.5 522,-1040.5 563,-1040.5 563,-1040.5 569,-1040.5 575,-1046.5 575,-1052.5 575,-1052.5 575,-1064.5 575,-1064.5 575,-1070.5 569,-1076.5 563,-1076.5"/>
<text text-anchor="middle" x="542.5" y="-1054.8" font-family="helvetica" font-size="14.00">ptsd161</text>
</a>
</g>
</g>
<!-- 21&#45;&#45;1 -->
<g id="edge21" class="edge">
<title>21&#45;&#45;1</title>
<path fill="none" stroke="black" stroke-width="3" d="M529.96,-1040.37C512.21,-1016.13 479.94,-972.07 462.14,-947.76"/>
<text text-anchor="middle" x="518.5" y="-997.8" font-family="helvetica" font-size="14.00"> 1</text>
<text text-anchor="middle" x="518.5" y="-982.8" font-family="helvetica" font-size="14.00"> 2</text>
</g>
<!-- 22 -->
<g id="node23" class="node">
<title>22</title>
<path fill="#ff8baa" stroke="black" stroke-width="3" d="M573,-956C573,-956 512,-956 512,-956 506,-956 500,-950 500,-944 500,-944 500,-915 500,-915 500,-909 506,-903 512,-903 512,-903 573,-903 573,-903 579,-903 585,-909 585,-915 585,-915 585,-944 585,-944 585,-950 579,-956 573,-956"/>
<text text-anchor="middle" x="542.5" y="-940.8" font-family="helvetica" font-size="14.00">1</text>
<text text-anchor="middle" x="542.5" y="-925.8" font-family="helvetica" font-size="14.00">Prob: 0.5</text>
<text text-anchor="middle" x="542.5" y="-910.8" font-family="helvetica" font-size="14.00">Frac: 0.013</text>
</g>
<!-- 21&#45;&#45;22 -->
<g id="edge22" class="edge">
<title>21&#45;&#45;22</title>
<path fill="none" stroke="black" stroke-width="3" d="M542.5,-1040.37C542.5,-1018.71 542.5,-981.2 542.5,-956.12"/>
<text text-anchor="middle" x="548.5" y="-997.8" font-family="helvetica" font-size="14.00"> 3</text>
<text text-anchor="middle" x="548.5" y="-982.8" font-family="helvetica" font-size="14.00"> 4</text>
</g>
<!-- 23 -->
<g id="node24" class="node">
<title>23</title>
<g id="a_node24"><a xlink:href=".//ptsd205.svg" xlink:title="ptsd205">
<path fill="#b4c0a7" stroke="black" stroke-width="3" d="M607,-1205.5C607,-1205.5 566,-1205.5 566,-1205.5 560,-1205.5 554,-1199.5 554,-1193.5 554,-1193.5 554,-1181.5 554,-1181.5 554,-1175.5 560,-1169.5 566,-1169.5 566,-1169.5 607,-1169.5 607,-1169.5 613,-1169.5 619,-1175.5 619,-1181.5 619,-1181.5 619,-1193.5 619,-1193.5 619,-1199.5 613,-1205.5 607,-1205.5"/>
<text text-anchor="middle" x="586.5" y="-1183.8" font-family="helvetica" font-size="14.00">ptsd205</text>
</a>
</g>
</g>
<!-- 23&#45;&#45;21 -->
<g id="edge23" class="edge">
<title>23&#45;&#45;21</title>
<path fill="none" stroke="black" stroke-width="3" d="M580.57,-1169.37C572.17,-1145.13 556.9,-1101.07 548.48,-1076.76"/>
<text text-anchor="middle" x="581.5" y="-1119.3" font-family="helvetica" font-size="14.00"> 1</text>
</g>
<!-- 27 -->
<g id="node28" class="node">
<title>27</title>
<g id="a_node28"><a xlink:href=".//ptsd203.svg" xlink:title="ptsd203">
<path fill="#a6bbbf" stroke="black" stroke-width="3" d="M656,-1076.5C656,-1076.5 615,-1076.5 615,-1076.5 609,-1076.5 603,-1070.5 603,-1064.5 603,-1064.5 603,-1052.5 603,-1052.5 603,-1046.5 609,-1040.5 615,-1040.5 615,-1040.5 656,-1040.5 656,-1040.5 662,-1040.5 668,-1046.5 668,-1052.5 668,-1052.5 668,-1064.5 668,-1064.5 668,-1070.5 662,-1076.5 656,-1076.5"/>
<text text-anchor="middle" x="635.5" y="-1054.8" font-family="helvetica" font-size="14.00">ptsd203</text>
</a>
</g>
</g>
<!-- 23&#45;&#45;27 -->
<g id="edge24" class="edge">
<title>23&#45;&#45;27</title>
<path fill="none" stroke="black" stroke-width="3" d="M593.11,-1169.37C602.46,-1145.13 619.46,-1101.07 628.84,-1076.76"/>
<text text-anchor="middle" x="628.5" y="-1141.8" font-family="helvetica" font-size="14.00"> 2</text>
<text text-anchor="middle" x="628.5" y="-1126.8" font-family="helvetica" font-size="14.00"> 3</text>
<text text-anchor="middle" x="628.5" y="-1111.8" font-family="helvetica" font-size="14.00"> 4</text>
<text text-anchor="middle" x="628.5" y="-1096.8" font-family="helvetica" font-size="14.00"> 5</text>
</g>
<!-- 24 -->
<g id="node25" class="node">
<title>24</title>
<path fill="#9ee078" stroke="black" stroke-width="3" d="M570.5,-827C570.5,-827 508.5,-827 508.5,-827 502.5,-827 496.5,-821 496.5,-815 496.5,-815 496.5,-786 496.5,-786 496.5,-780 502.5,-774 508.5,-774 508.5,-774 570.5,-774 570.5,-774 576.5,-774 582.5,-780 582.5,-786 582.5,-786 582.5,-815 582.5,-815 582.5,-821 576.5,-827 570.5,-827"/>
<text text-anchor="middle" x="539.5" y="-811.8" font-family="helvetica" font-size="14.00">2</text>
<text text-anchor="middle" x="539.5" y="-796.8" font-family="helvetica" font-size="14.00">Prob: 0.453</text>
<text text-anchor="middle" x="539.5" y="-781.8" font-family="helvetica" font-size="14.00">Frac: 0.174</text>
</g>
<!-- 25 -->
<g id="node26" class="node">
<title>25</title>
<g id="a_node26"><a xlink:href=".//ptsd80.svg" xlink:title="ptsd80">
<path fill="#98d3a3" stroke="black" stroke-width="3" d="M652,-947.5C652,-947.5 619,-947.5 619,-947.5 613,-947.5 607,-941.5 607,-935.5 607,-935.5 607,-923.5 607,-923.5 607,-917.5 613,-911.5 619,-911.5 619,-911.5 652,-911.5 652,-911.5 658,-911.5 664,-917.5 664,-923.5 664,-923.5 664,-935.5 664,-935.5 664,-941.5 658,-947.5 652,-947.5"/>
<text text-anchor="middle" x="635.5" y="-925.8" font-family="helvetica" font-size="14.00">ptsd80</text>
</a>
</g>
</g>
<!-- 25&#45;&#45;24 -->
<g id="edge25" class="edge">
<title>25&#45;&#45;24</title>
<path fill="none" stroke="black" stroke-width="3" d="M622.55,-911.37C606.18,-889.71 577.83,-852.2 558.87,-827.12"/>
<text text-anchor="middle" x="616.5" y="-868.8" font-family="helvetica" font-size="14.00"> 1</text>
<text text-anchor="middle" x="616.5" y="-853.8" font-family="helvetica" font-size="14.00"> 2</text>
</g>
<!-- 26 -->
<g id="node27" class="node">
<title>26</title>
<path fill="#94cac3" stroke="black" stroke-width="3" d="M674.5,-827C674.5,-827 612.5,-827 612.5,-827 606.5,-827 600.5,-821 600.5,-815 600.5,-815 600.5,-786 600.5,-786 600.5,-780 606.5,-774 612.5,-774 612.5,-774 674.5,-774 674.5,-774 680.5,-774 686.5,-780 686.5,-786 686.5,-786 686.5,-815 686.5,-815 686.5,-821 680.5,-827 674.5,-827"/>
<text text-anchor="middle" x="643.5" y="-811.8" font-family="helvetica" font-size="14.00">3</text>
<text text-anchor="middle" x="643.5" y="-796.8" font-family="helvetica" font-size="14.00">Prob: 0.444</text>
<text text-anchor="middle" x="643.5" y="-781.8" font-family="helvetica" font-size="14.00">Frac: 0.237</text>
</g>
<!-- 25&#45;&#45;26 -->
<g id="edge26" class="edge">
<title>25&#45;&#45;26</title>
<path fill="none" stroke="black" stroke-width="3" d="M636.58,-911.37C637.94,-889.71 640.31,-852.2 641.89,-827.12"/>
<text text-anchor="middle" x="647.5" y="-876.3" font-family="helvetica" font-size="14.00"> 3</text>
<text text-anchor="middle" x="647.5" y="-861.3" font-family="helvetica" font-size="14.00"> 4</text>
<text text-anchor="middle" x="647.5" y="-846.3" font-family="helvetica" font-size="14.00"> 5</text>
</g>
<!-- 27&#45;&#45;25 -->
<g id="edge27" class="edge">
<title>27&#45;&#45;25</title>
<path fill="none" stroke="black" stroke-width="3" d="M635.5,-1040.37C635.5,-1016.13 635.5,-972.07 635.5,-947.76"/>
<text text-anchor="middle" x="641.5" y="-1005.3" font-family="helvetica" font-size="14.00"> 1</text>
<text text-anchor="middle" x="641.5" y="-990.3" font-family="helvetica" font-size="14.00"> 2</text>
<text text-anchor="middle" x="641.5" y="-975.3" font-family="helvetica" font-size="14.00"> 3</text>
</g>
<!-- 29 -->
<g id="node30" class="node">
<title>29</title>
<g id="a_node30"><a xlink:href=".//ptsd77.svg" xlink:title="ptsd77">
<path fill="#b89be3" stroke="black" stroke-width="3" d="M764,-947.5C764,-947.5 731,-947.5 731,-947.5 725,-947.5 719,-941.5 719,-935.5 719,-935.5 719,-923.5 719,-923.5 719,-917.5 725,-911.5 731,-911.5 731,-911.5 764,-911.5 764,-911.5 770,-911.5 776,-917.5 776,-923.5 776,-923.5 776,-935.5 776,-935.5 776,-941.5 770,-947.5 764,-947.5"/>
<text text-anchor="middle" x="747.5" y="-925.8" font-family="helvetica" font-size="14.00">ptsd77</text>
</a>
</g>
</g>
<!-- 27&#45;&#45;29 -->
<g id="edge28" class="edge">
<title>27&#45;&#45;29</title>
<path fill="none" stroke="black" stroke-width="3" d="M650.6,-1040.37C671.98,-1016.13 710.84,-972.07 732.28,-947.76"/>
<text text-anchor="middle" x="717.5" y="-997.8" font-family="helvetica" font-size="14.00"> 4</text>
<text text-anchor="middle" x="717.5" y="-982.8" font-family="helvetica" font-size="14.00"> 5</text>
</g>
<!-- 28 -->
<g id="node29" class="node">
<title>28</title>
<path fill="#ff8baa" stroke="black" stroke-width="3" d="M778,-827C778,-827 717,-827 717,-827 711,-827 705,-821 705,-815 705,-815 705,-786 705,-786 705,-780 711,-774 717,-774 717,-774 778,-774 778,-774 784,-774 790,-780 790,-786 790,-786 790,-815 790,-815 790,-821 784,-827 778,-827"/>
<text text-anchor="middle" x="747.5" y="-811.8" font-family="helvetica" font-size="14.00">1</text>
<text text-anchor="middle" x="747.5" y="-796.8" font-family="helvetica" font-size="14.00">Prob: 0.5</text>
<text text-anchor="middle" x="747.5" y="-781.8" font-family="helvetica" font-size="14.00">Frac: 0.013</text>
</g>
<!-- 29&#45;&#45;28 -->
<g id="edge29" class="edge">
<title>29&#45;&#45;28</title>
<path fill="none" stroke="black" stroke-width="3" d="M747.5,-911.37C747.5,-889.71 747.5,-852.2 747.5,-827.12"/>
<text text-anchor="middle" x="753.5" y="-861.3" font-family="helvetica" font-size="14.00"> 1</text>
</g>
<!-- 30 -->
<g id="node31" class="node">
<title>30</title>
<path fill="#b59ce6" stroke="black" stroke-width="3" d="M882.5,-827C882.5,-827 820.5,-827 820.5,-827 814.5,-827 808.5,-821 808.5,-815 808.5,-815 808.5,-786 808.5,-786 808.5,-780 814.5,-774 820.5,-774 820.5,-774 882.5,-774 882.5,-774 888.5,-774 894.5,-780 894.5,-786 894.5,-786 894.5,-815 894.5,-815 894.5,-821 888.5,-827 882.5,-827"/>
<text text-anchor="middle" x="851.5" y="-811.8" font-family="helvetica" font-size="14.00">4</text>
<text text-anchor="middle" x="851.5" y="-796.8" font-family="helvetica" font-size="14.00">Prob: 0.539</text>
<text text-anchor="middle" x="851.5" y="-781.8" font-family="helvetica" font-size="14.00">Frac: 0.293</text>
</g>
<!-- 29&#45;&#45;30 -->
<g id="edge30" class="edge">
<title>29&#45;&#45;30</title>
<path fill="none" stroke="black" stroke-width="3" d="M761.53,-911.37C779.27,-889.71 809.98,-852.2 830.52,-827.12"/>
<text text-anchor="middle" x="829.5" y="-883.8" font-family="helvetica" font-size="14.00"> 2</text>
<text text-anchor="middle" x="829.5" y="-868.8" font-family="helvetica" font-size="14.00"> 3</text>
<text text-anchor="middle" x="829.5" y="-853.8" font-family="helvetica" font-size="14.00"> 4</text>
<text text-anchor="middle" x="829.5" y="-838.8" font-family="helvetica" font-size="14.00"> 5</text>
</g>
</g>
</svg>
